<?xml version="1.0" standalone="no"?>
<!DOCTYPE svg PUBLIC "-//W3C//DTD SVG 1.1//EN" "http://www.w3.org/Graphics/SVG/1.1/DTD/svg11.dtd" >
<svg xmlns="http://www.w3.org/2000/svg" xmlns:xlink="http://www.w3.org/1999/xlink" version="1.1">
<metadata>
Created by FontForge 20161013 at Fri Nov 16 22:16:23 2012
 By ,,,
Copyright (c) 2012 by atipo. All rights reserved.
</metadata>
<defs>
<font id="BariolRegular-Italic" horiz-adv-x="518" >
  <font-face 
    font-family="Bariol Regular"
    font-weight="400"
    font-style="italic"
    font-stretch="normal"
    units-per-em="1000"
    panose-1="2 0 5 6 4 0 0 9 0 3"
    ascent="787"
    descent="-213"
    x-height="454"
    cap-height="681"
    bbox="-166 -252 1107 1015.8"
    underline-thickness="20"
    underline-position="-173"
    unicode-range="U+0020-FB06"
  />
<missing-glyph horiz-adv-x="580" 
d="M366 124h-55v55h55v-55zM362 229h-47v39q0 37 16.5 68t36.5 48t36.5 41t16.5 49q0 33 -22 51.5t-54 18.5q-79 0 -79 -81h-48q0 66 35.5 98.5t92.5 32.5q55 0 90 -30t35 -86q0 -29 -11 -52.5t-27.5 -40t-32.5 -32t-27 -37.5t-11 -48v-39zM145 48h404v603h-404v-603z
M97 700h500v-700h-500v700z" />
    <glyph glyph-name="ellipsis" unicode="&#x2e;&#x2e;&#x2e;" horiz-adv-x="703" 
d="M79 -8q-40 0 -40 34q0 28 15.5 44.5t41.5 16.5q40 0 40 -34q0 -28 -15.5 -44.5t-41.5 -16.5zM349 -8q-40 0 -40 34q0 28 15.5 44.5t41.5 16.5q40 0 40 -34q0 -28 -15.5 -44.5t-41.5 -16.5zM621 -8q-40 0 -40 34q0 28 15.5 44.5t41.5 16.5q40 0 40 -34q0 -28 -15.5 -44.5
t-41.5 -16.5z" />
    <glyph glyph-name="f_f" unicode="ff" horiz-adv-x="556" 
d="M496 454h91q11 0 18 -7t7 -18q0 -15 -10.5 -25t-25.5 -10h-91l-73 -420q-14 -80 -68 -127.5t-144 -47.5q-11 0 -18 7t-7 18q0 15 10 24.5t25 9.5q58 0 93 32t45 88l73 416h-203l-73 -420q-14 -80 -68 -127.5t-144 -47.5q-11 0 -18 7t-7 18q0 15 10 24.5t25 9.5
q58 0 93 32t45 88l73 416h-34q-11 0 -18 7t-7 18q0 15 10.5 25t25.5 10h34l10 59q13 75 64.5 123.5t139.5 48.5q11 0 18 -7t7 -18q0 -15 -10.5 -25t-25.5 -10q-56 0 -88 -30.5t-41 -81.5l-10 -59h203l10 59q13 75 64.5 123.5t139.5 48.5q11 0 18 -7t7 -18q0 -15 -10.5 -25
t-25.5 -10q-56 0 -88 -30.5t-41 -81.5z" />
    <glyph glyph-name="fi" unicode="fi" horiz-adv-x="477" 
d="M482 422l-71 -398q-2 -14 -12.5 -23t-24.5 -9t-21.5 9t-5.5 23l66 370h-195l-73 -420q-14 -80 -68 -127.5t-144 -47.5q-11 0 -18 7t-7 18q0 15 10 24.5t25 9.5q58 0 93 32t45 88l73 416h-34q-11 0 -18 7t-7 18q0 15 10.5 25t25.5 10h34l10 59q13 75 64.5 123.5
t139.5 48.5q66 0 101 -24q14 -10 14 -26q0 -13 -8.5 -21.5t-21.5 -8.5q-7 0 -20 5q-39 15 -76 15q-56 0 -88 -30.5t-41 -81.5l-10 -59h228q14 0 20.5 -9t4.5 -23z" />
    <glyph glyph-name="fl" unicode="fl" horiz-adv-x="508" 
d="M518 630l-91 -521q-2 -12 -2 -23q0 -34 33 -34q11 0 18 -7.5t7 -18.5q0 -14 -11 -24t-25 -10q-87 0 -87 84q0 15 3 33l50 285h-195l-73 -420q-14 -80 -68 -127.5t-144 -47.5q-11 0 -18 7t-7 18q0 15 10 24.5t25 9.5q58 0 93 32t45 88l73 416h-34q-11 0 -18 7t-7 18
q0 15 10.5 25t25.5 10h34l10 59q12 73 65 122.5t139 49.5q77 0 122 -26q20 -10 17 -29zM239 513l-10 -59h194l28 156q-38 15 -83 15q-108 0 -129 -112z" />
    <glyph glyph-name="f_f_i" unicode="ffi" horiz-adv-x="739" 
d="M749 422l-71 -398q-2 -14 -12.5 -23t-24.5 -9t-21.5 9t-5.5 23l66 370h-195l-73 -420q-14 -80 -68 -127.5t-144 -47.5q-11 0 -18 7t-7 18q0 15 10 24.5t25 9.5q58 0 93 32t45 88l73 416h-203l-73 -420q-14 -80 -68 -127.5t-144 -47.5q-11 0 -18 7t-7 18q0 15 10 24.5
t25 9.5q58 0 93 32t45 88l73 416h-34q-11 0 -18 7t-7 18q0 15 10.5 25t25.5 10h34l10 59q13 75 64.5 123.5t139.5 48.5q11 0 18 -7t7 -18q0 -15 -10.5 -25t-25.5 -10q-56 0 -88 -30.5t-41 -81.5l-10 -59h203l10 59q13 75 64.5 123.5t139.5 48.5q66 0 101 -24q14 -10 14 -26
q0 -13 -8.5 -21.5t-21.5 -8.5q-7 0 -20 5q-39 15 -76 15q-56 0 -88 -30.5t-41 -81.5l-10 -59h228q14 0 20.5 -9t4.5 -23z" />
    <glyph glyph-name="f_f_l" unicode="ffl" horiz-adv-x="775" 
d="M785 630l-91 -521q-2 -12 -2 -23q0 -34 33 -34q11 0 18 -7.5t7 -18.5q0 -14 -11 -24t-25 -10q-87 0 -87 84q0 15 3 33l50 285h-195l-73 -420q-14 -80 -68 -127.5t-144 -47.5q-11 0 -18 7t-7 18q0 15 10 24.5t25 9.5q58 0 93 32t45 88l73 416h-203l-73 -420
q-14 -80 -68 -127.5t-144 -47.5q-11 0 -18 7t-7 18q0 15 10 24.5t25 9.5q58 0 93 32t45 88l73 416h-34q-11 0 -18 7t-7 18q0 15 10.5 25t25.5 10h34l10 59q13 75 64.5 123.5t139.5 48.5q11 0 18 -7t7 -18q0 -15 -10.5 -25t-25.5 -10q-56 0 -88 -30.5t-41 -81.5l-10 -59h203
l10 59q12 73 65 122.5t139 49.5q77 0 122 -26q20 -10 17 -29zM506 513l-10 -59h194l28 156q-37 15 -83 15q-108 0 -129 -112z" />
    <glyph glyph-name="f_j" unicode="fj" horiz-adv-x="473" 
d="M338 -35l75 429h-195l-73 -420q-14 -80 -68 -127.5t-144 -47.5q-11 0 -18 7t-7 18q0 15 10 24.5t25 9.5q58 0 93 32t45 88l73 416h-34q-11 0 -18 7t-7 18q0 15 10.5 25t25.5 10h34l10 59q13 75 64.5 123.5t139.5 48.5q66 0 101 -24q14 -10 14 -26q0 -13 -8.5 -21.5
t-21.5 -8.5q-7 0 -20 5q-39 15 -76 15q-56 0 -88 -30.5t-41 -81.5l-10 -59h228q14 0 20.5 -9t4.5 -23l-80 -457q-12 -65 -59 -107.5t-113 -42.5q-11 0 -18.5 7t-7.5 18q0 15 10.5 25t25.5 10q36 0 63.5 26t34.5 64z" />
    <glyph glyph-name="f_b" unicode="fb" horiz-adv-x="779" 
d="M518 628l-40 -225q59 65 147 65q78 0 122 -44t44 -127q0 -143 -69.5 -226.5t-188.5 -83.5q-77 0 -119.5 38t-42.5 112q0 22 4 47l76 426q-39 15 -84 15q-56 0 -88 -30.5t-41 -81.5l-10 -59h91q11 0 18 -7t7 -18q0 -15 -10.5 -25t-25.5 -10h-91l-73 -420
q-14 -80 -68 -127.5t-144 -47.5q-11 0 -18 7t-7 18q0 15 10 24.5t25 9.5q58 0 93 32t45 88l73 416h-34q-11 0 -18 7t-7 18q0 15 10.5 25t25.5 10h34l10 59q13 75 64.5 123.5t139.5 48.5q75 0 123 -26q20 -11 17 -31zM464 322l-25 -138q-3 -17 -3 -36q0 -103 107 -103
q87 0 135 67t48 177q0 121 -118 121q-26 0 -50.5 -9t-41 -22t-29 -26t-17.5 -22z" />
    <glyph glyph-name="f_f_b" unicode="ffb" horiz-adv-x="1045" 
d="M731 322l-25 -138q-3 -17 -3 -36q0 -103 107 -103q87 0 135 67t48 177q0 121 -118 121q-26 0 -50.5 -9t-41 -22t-29 -26t-18.5 -22zM642 184l76 426q-39 15 -83 15q-56 0 -88 -30.5t-41 -81.5l-10 -59h91q11 0 18 -7t7 -18q0 -15 -10.5 -25t-25.5 -10h-91l-73 -420
q-14 -80 -68 -127.5t-144 -47.5q-11 0 -18 7t-7 18q0 15 10 24.5t25 9.5q58 0 93 32t45 88l73 416h-203l-73 -420q-14 -80 -68 -127.5t-144 -47.5q-11 0 -18 7t-7 18q0 15 10 24.5t25 9.5q58 0 93 32t45 88l73 416h-34q-11 0 -18 7t-7 18q0 15 10.5 25t25.5 10h34l10 59
q13 75 64.5 123.5t139.5 48.5q11 0 18 -7t7 -18q0 -15 -10.5 -25t-25.5 -10q-56 0 -88 -30.5t-41 -81.5l-10 -59h203l10 59q13 75 64.5 123.5t139.5 48.5q74 0 122 -26q20 -11 17 -31l-40 -225q59 65 147 65q78 0 122 -44t44 -127q0 -143 -69.5 -226.5t-188.5 -83.5
q-76 0 -119 38t-43 112q0 22 4 47z" />
    <glyph glyph-name="f_h" unicode="fh" horiz-adv-x="779" 
d="M378 685q75 0 123 -26q20 -11 17 -31l-41 -230q19 30 57.5 50t87.5 20q82 0 120 -34t38 -89q0 -27 -5 -54l-47 -267q-2 -14 -12.5 -23t-24.5 -9t-21.5 9t-5.5 23l45 254q5 28 5 49q0 84 -102 84q-132 0 -157 -140l-44 -247q-2 -14 -12.5 -23t-24.5 -9t-21.5 9t-5.5 23
l104 586q-39 15 -84 15q-56 0 -88 -30.5t-41 -81.5l-10 -59h91q11 0 18 -7t7 -18q0 -15 -10.5 -25t-25.5 -10h-91l-73 -420q-14 -80 -68 -127.5t-144 -47.5q-11 0 -18 7t-7 18q0 15 10 24.5t25 9.5q58 0 93 32t45 88l73 416h-34q-11 0 -18 7t-7 18q0 15 10.5 25t25.5 10h34
l10 59q13 75 64.5 123.5t139.5 48.5z" />
    <glyph glyph-name="f_f_h" unicode="ffh" horiz-adv-x="1047" 
d="M635 625q-56 0 -88 -30.5t-41 -81.5l-10 -59h91q11 0 18 -7t7 -18q0 -15 -10.5 -25t-25.5 -10h-91l-73 -420q-14 -80 -68 -127.5t-144 -47.5q-11 0 -18 7t-7 18q0 15 10 24.5t25 9.5q58 0 93 32t45 88l73 416h-203l-73 -420q-14 -80 -68 -127.5t-144 -47.5q-11 0 -18 7
t-7 18q0 15 10 24.5t25 9.5q58 0 93 32t45 88l73 416h-34q-11 0 -18 7t-7 18q0 15 10.5 25t25.5 10h34l10 59q13 75 64.5 123.5t139.5 48.5q11 0 18 -7t7 -18q0 -15 -10.5 -25t-25.5 -10q-56 0 -88 -30.5t-41 -81.5l-10 -59h203l10 59q13 75 64.5 123.5t139.5 48.5
q75 0 123 -26q20 -11 17 -31l-41 -230q19 30 57.5 50t87.5 20q82 0 120 -34t38 -89q0 -27 -5 -54l-47 -267q-2 -14 -12.5 -23t-24.5 -9t-21.5 9t-5.5 23l45 254q5 28 5 49q0 84 -102 84q-132 0 -157 -140l-44 -247q-2 -14 -12.5 -23t-24.5 -9t-21.5 9t-5.5 23l104 586
q-39 15 -84 15z" />
    <glyph glyph-name="f_k" unicode="fk" horiz-adv-x="731" 
d="M518 628l-65 -367l267 193q10 8 23 8q12 0 21 -9t9 -20q0 -19 -18 -32l-193 -134l144 -227q4 -7 4 -16q0 -14 -9 -23t-23 -9q-18 0 -27 15l-138 229l-73 -49l-29 -163q-2 -14 -13 -23t-24 -9q-14 0 -21.5 9.5t-5.5 22.5l104 586q-39 15 -84 15q-56 0 -88 -30.5t-41 -81.5
l-10 -59h91q11 0 18 -7t7 -18q0 -15 -10.5 -25t-25.5 -10h-91l-73 -420q-14 -80 -68 -127.5t-144 -47.5q-11 0 -18 7t-7 18q0 15 10 24.5t25 9.5q58 0 93 32t45 88l73 416h-34q-11 0 -18 7t-7 18q0 15 10.5 25t25.5 10h34l10 59q13 75 64.5 123.5t139.5 48.5q75 0 123 -26
q20 -11 17 -31z" />
    <glyph glyph-name="f_f_k" unicode="ffk" horiz-adv-x="999" 
d="M786 628l-65 -367l267 193q10 8 23 8q12 0 21 -9t9 -20q0 -19 -18 -32l-193 -134l144 -227q4 -7 4 -16q0 -14 -9 -23t-23 -9q-18 0 -27 15l-138 229l-73 -49l-29 -163q-2 -14 -13 -23t-24 -9q-14 0 -21.5 9.5t-5.5 22.5l104 586q-39 15 -84 15q-56 0 -88 -30.5t-41 -81.5
l-10 -59h91q11 0 18 -7t7 -18q0 -15 -10.5 -25t-25.5 -10h-91l-73 -420q-14 -80 -68 -127.5t-144 -47.5q-11 0 -18 7t-7 18q0 15 10 24.5t25 9.5q58 0 93 32t45 88l73 416h-203l-73 -420q-14 -80 -68 -127.5t-144 -47.5q-11 0 -18 7t-7 18q0 15 10 24.5t25 9.5q58 0 93 32
t45 88l73 416h-34q-11 0 -18 7t-7 18q0 15 10.5 25t25.5 10h34l10 59q13 75 64.5 123.5t139.5 48.5q11 0 18 -7t7 -18q0 -15 -10.5 -25t-25.5 -10q-56 0 -88 -30.5t-41 -81.5l-10 -59h203l10 59q13 75 64.5 123.5t139.5 48.5q75 0 123 -26q20 -11 17 -31z" />
    <glyph glyph-name="f_f_j" unicode="ffj" horiz-adv-x="739" 
d="M604 -35l75 429h-194l-73 -420q-14 -80 -68 -127.5t-144 -47.5q-11 0 -18 7t-7 18q0 15 10 24.5t25 9.5q58 0 93 32t45 88l73 416h-203l-73 -420q-14 -80 -68 -127.5t-144 -47.5q-11 0 -18 7t-7 18q0 15 10 24.5t25 9.5q58 0 93 32t45 88l73 416h-34q-11 0 -18 7t-7 18
q0 15 10.5 25t25.5 10h34l10 59q13 75 64.5 123.5t139.5 48.5q11 0 18 -7t7 -18q0 -15 -10.5 -25t-25.5 -10q-56 0 -88 -30.5t-41 -81.5l-10 -59h203l10 59q13 75 64.5 123.5t139.5 48.5q66 0 101 -24q14 -10 14 -26q0 -13 -8.5 -21.5t-21.5 -8.5q-7 0 -20 5q-39 15 -76 15
q-56 0 -88 -30.5t-41 -81.5l-10 -59h226q13 0 20.5 -9t5.5 -23l-80 -457q-11 -64 -60.5 -107t-112.5 -43q-11 0 -18 7t-7 18q0 15 10.5 25t25.5 10q36 0 63.5 26t34.5 64z" />
    <glyph glyph-name=".notdef" horiz-adv-x="580" 
d="M366 124h-55v55h55v-55zM362 229h-47v39q0 37 16.5 68t36.5 48t36.5 41t16.5 49q0 33 -22 51.5t-54 18.5q-79 0 -79 -81h-48q0 66 35.5 98.5t92.5 32.5q55 0 90 -30t35 -86q0 -29 -11 -52.5t-27.5 -40t-32.5 -32t-27 -37.5t-11 -48v-39zM145 48h404v603h-404v-603z
M97 700h500v-700h-500v700z" />
    <glyph glyph-name=".null" horiz-adv-x="0" 
 />
    <glyph glyph-name="nonmarkingreturn" horiz-adv-x="333" 
 />
    <glyph glyph-name="space" unicode=" " horiz-adv-x="238" 
 />
    <glyph glyph-name="exclam" unicode="!" horiz-adv-x="208" 
d="M224 681q36 0 29 -35l-98 -471q-4 -18 -23 -18t-17 18l68 471q4 35 41 35zM102 -8q-40 0 -40 34q0 28 15.5 44.5t41.5 16.5q40 0 40 -34q0 -28 -15.5 -44.5t-41.5 -16.5z" />
    <glyph glyph-name="quotedbl" unicode="&#x22;" horiz-adv-x="280" 
d="M204 681q30 0 23 -27l-39 -172q-5 -17 -22 -17q-18 0 -16 17l21 172q3 27 33 27zM316 681q30 0 23 -27l-39 -172q-5 -17 -22 -17q-18 0 -16 17l21 172q3 27 33 27z" />
    <glyph glyph-name="numbersign" unicode="#" horiz-adv-x="550" 
d="M108 23l62 189h-63q-20 0 -20 21q0 11 8.5 19t20.5 8h71l45 136h-70q-21 0 -21 21q0 10 9 18.5t20 8.5h78l61 187q7 21 27 21q22 0 22 -22q0 -6 -3 -15l-56 -171h139l61 187q7 21 27 21q22 0 22 -21q0 -7 -2 -13l-57 -174h69q20 0 20 -21q0 -11 -8.5 -19t-19.5 -8h-77
l-45 -136h76q20 0 20 -21q0 -10 -9 -18.5t-20 -8.5h-84l-67 -202q-7 -21 -28 -21t-21 21q0 4 3 13l63 189h-140l-67 -202q-7 -21 -28 -21t-21 20q0 5 3 14zM283 396l-45 -136h139l45 136h-139z" />
    <glyph glyph-name="dollar" unicode="$" horiz-adv-x="558" 
d="M427 686q61 -5 107 -34t64 -73q3 -7 3 -14q0 -13 -9.5 -22.5t-22.5 -9.5q-16 0 -26 15q-48 77 -152 77q-82 0 -123.5 -36.5t-41.5 -86.5q0 -38 33.5 -64.5t80.5 -43.5t94.5 -36.5t81 -57t33.5 -91.5q0 -99 -63 -157t-183 -65l-13 -75q-2 -11 -11 -18.5t-20 -7.5t-17 7.5
t-4 18.5l13 75q-75 5 -125 41.5t-66 86.5q-2 6 -2 12q0 13 9 22.5t23 9.5q22 0 29 -18q19 -42 60 -67.5t104 -25.5q93 0 145 40.5t52 108.5q0 43 -33.5 71.5t-81 45.5t-95 36t-81 55t-33.5 90q0 77 57 130.5t162 60.5l13 76q6 26 30 26q11 0 17.5 -7.5t4.5 -18.5z" />
    <glyph glyph-name="percent" unicode="%" horiz-adv-x="746" 
d="M652 681q10 0 17 -6.5t7 -17.5q0 -9 -5 -16l-436 -636q-8 -13 -22 -13q-11 0 -18 7t-7 18q0 8 6 16l436 636q8 12 22 12zM260 407q38 0 64.5 18t37 46.5t14.5 49.5t4 40q0 80 -79 80q-38 0 -64.5 -18t-37 -46.5t-14.5 -49.5t-4 -40q0 -80 79 -80zM309 687
q59 0 90.5 -32.5t31.5 -86.5q0 -53 -16.5 -97.5t-58.5 -77t-104 -32.5q-59 0 -90.5 32.5t-31.5 86.5q0 53 16.5 97.5t58.5 77t104 32.5zM565 33q38 0 64.5 18t37 46.5t14.5 49.5t4 40q0 80 -79 80q-38 0 -64.5 -18t-37 -46.5t-14.5 -49.5t-4 -40q0 -80 79 -80zM614 313
q59 0 90.5 -32.5t31.5 -86.5q0 -53 -16.5 -97.5t-58.5 -77t-104 -32.5q-59 0 -90.5 32.5t-31.5 86.5q0 53 16.5 97.5t58.5 77t104 32.5z" />
    <glyph glyph-name="ampersand" unicode="&#x26;" horiz-adv-x="707" 
d="M705 439q18 0 28 -16q14 -24 14 -52q0 -84 -133 -84q7 -35 7 -62q0 -112 -83 -175.5t-208 -63.5q-111 0 -175.5 59t-64.5 149q0 91 59.5 144t140.5 70q-32 17 -55 48.5t-23 73.5q0 74 51.5 115.5t124.5 41.5q52 0 91.5 -21t58.5 -60q3 -6 3 -13q0 -12 -9 -21.5t-23 -9.5
q-17 0 -27 18q-28 49 -99 49q-45 0 -76 -25.5t-31 -73.5q0 -46 38.5 -74t79.5 -28q12 0 19.5 -7.5t7.5 -18.5q0 -14 -9 -22t-23 -8q-64 0 -114 -15.5t-85 -57t-35 -105.5q0 -60 48 -105t132 -45q104 0 165 49t61 132q0 40 -8 62q-83 0 -83 -36q0 -6 4.5 -15t4.5 -17
q0 -13 -9.5 -22t-22.5 -9q-16 0 -26 14q-14 21 -14 44q0 46 41 71t120 25q66 0 91 6t25 23q0 2 -8 24q-2 6 -2 12q0 13 9 22.5t22 9.5z" />
    <glyph glyph-name="quotesingle" unicode="'" horiz-adv-x="168" 
d="M204 681q30 0 23 -27l-39 -172q-5 -17 -22 -17q-18 0 -16 17l21 172q3 27 33 27z" />
    <glyph glyph-name="parenleft" unicode="(" horiz-adv-x="294" 
d="M113 296q40 218 90 307.5t154 131.5q7 3 13 3q11 0 19.5 -8.5t8.5 -19.5q0 -18 -23 -28q-33 -15 -58.5 -34t-44.5 -46.5t-32.5 -54.5t-25 -71t-19 -81t-18.5 -99q-28 -156 -28 -220q0 -63 19 -103t66 -65q17 -8 17 -26q0 -11 -8.5 -19.5t-19.5 -8.5q-5 0 -13 3
q-62 30 -91.5 81t-29.5 139q0 86 24 219z" />
    <glyph glyph-name="parenright" unicode=")" horiz-adv-x="294" 
d="M286 296q-40 -218 -90 -307.5t-154 -131.5q-7 -3 -13 -3q-11 0 -19.5 8.5t-8.5 19.5q0 18 23 28q33 15 58.5 34t44.5 46.5t32.5 54.5t25 71t19 81t18.5 99q28 156 28 220q0 63 -19 103t-66 65q-17 9 -17 26q0 11 8.5 19.5t19.5 8.5q6 0 13 -3q62 -30 91.5 -81t29.5 -139
q0 -85 -24 -219z" />
    <glyph glyph-name="asterisk" unicode="*" horiz-adv-x="357" 
d="M346 441l-62 93l-62 -93q-12 -19 -29 -6q-18 13 -6 29l64 88l-101 23q-20 5 -15 27t26 15l105 -31l-4 106q0 20 22 20t22 -20l-4 -106l105 31q21 7 26 -15t-15 -27l-101 -23l64 -88q12 -16 -6 -29q-17 -13 -29 6z" />
    <glyph glyph-name="plus" unicode="+" horiz-adv-x="454" 
d="M493 222q0 -12 -10 -21.5t-22 -9.5h-171l-30 -170q-5 -29 -34 -29q-12 0 -19 8.5t-5 20.5l30 170h-171q-10 0 -16.5 6.5t-6.5 16.5q0 13 9.5 22t22.5 9h171l30 171q2 12 11.5 20.5t22.5 8.5q12 0 19 -8.5t5 -20.5l-30 -171h171q10 0 16.5 -6.5t6.5 -16.5z" />
    <glyph glyph-name="comma" unicode="," horiz-adv-x="162" 
d="M135 41q0 -96 -103 -196q-7 -7 -14 -7q-16 0 -16 14q0 6 5 12q30 35 42.5 55.5t12.5 41.5q0 14 -11.5 34t-11.5 35q0 27 15 42t42 15q39 0 39 -46z" />
    <glyph glyph-name="hyphen" unicode="-" horiz-adv-x="364" 
d="M354 256q0 -13 -9.5 -22t-22.5 -9h-200q-10 0 -16.5 6.5t-6.5 16.5q0 13 9.5 22t22.5 9h200q10 0 16.5 -6.5t6.5 -16.5z" />
    <glyph glyph-name="period" unicode="." horiz-adv-x="160" 
d="M79 -8q-40 0 -40 34q0 28 15.5 44.5t41.5 16.5q40 0 40 -34q0 -28 -15.5 -44.5t-41.5 -16.5z" />
    <glyph glyph-name="slash" unicode="/" horiz-adv-x="407" 
d="M490 701l-403 -781q-10 -18 -29 -18q-14 0 -23 9t-9 23q0 8 5 18l403 781q10 18 29 18q13 0 22.5 -9.5t9.5 -22.5q0 -8 -5 -18z" />
    <glyph glyph-name="zero" unicode="0" horiz-adv-x="602" 
d="M308 46q61 0 109 34.5t77 93.5t44 132t15 155q0 86 -35 126t-107 40q-61 0 -109 -34.5t-77 -93.5t-44 -132t-15 -155q0 -86 35 -126t107 -40zM298 -14q-100 0 -149 53.5t-49 164.5q0 62 8.5 123.5t31.5 128t58 116.5t92.5 82.5t130.5 32.5q100 0 149 -53.5t49 -164.5
q0 -62 -8.5 -123.5t-31.5 -128t-58 -116.5t-92.5 -82.5t-130.5 -32.5z" />
    <glyph glyph-name="one" unicode="1" horiz-adv-x="351" 
d="M298 588l-120 -77q-9 -5 -18 -5q-13 0 -22 9t-9 22q0 18 16 28l180 109q11 7 22 7q14 0 22 -10t6 -23l-110 -623q-2 -14 -13.5 -23.5t-25.5 -9.5t-21.5 9.5t-5.5 23.5z" />
    <glyph glyph-name="two" unicode="2" horiz-adv-x="532" 
d="M165 561q64 126 223 126q86 0 134.5 -48.5t48.5 -123.5q0 -53 -25 -100t-65 -81.5t-88 -65t-96 -56t-88 -49t-65 -49.5t-25 -52h351q11 0 18.5 -8t7.5 -19q0 -14 -11.5 -24.5t-25.5 -10.5h-386q-11 0 -18.5 8t-7.5 19q0 48 25 88t65.5 69.5t89 56.5t97 54.5t89 57.5
t65.5 71.5t25 90.5q0 51 -32.5 81.5t-92.5 30.5q-57 0 -93.5 -24.5t-65.5 -71.5q-10 -16 -27 -16q-13 0 -22 9t-9 22q0 7 4 15z" />
    <glyph glyph-name="three" unicode="3" horiz-adv-x="542" 
d="M336 408h10q95 0 137 -47t42 -123q0 -119 -70.5 -185.5t-201.5 -66.5q-137 0 -195 116q-3 6 -3 14q0 13 8.5 21.5t21.5 8.5q19 0 27 -16q42 -84 151 -84q97 0 146 47.5t49 135.5q0 119 -128 119h-70q-11 0 -18 7t-7 18q0 14 12 26l222 214h-258q-11 0 -18 7t-7 18
q0 15 10.5 25t25.5 10h326q11 0 18 -7t7 -18q0 -14 -12 -26z" />
    <glyph glyph-name="four" unicode="4" horiz-adv-x="540" 
d="M453 217h57q12 0 19.5 -7.5t7.5 -18.5q0 -14 -11.5 -25t-26.5 -11h-57l-23 -130q-2 -14 -13.5 -23.5t-25.5 -9.5t-21.5 9.5t-5.5 23.5l23 130h-292q-11 0 -18.5 8t-7.5 19q0 12 11 24l402 460q12 14 30 14q14 0 22 -9.5t6 -23.5zM154 217h233l59 335z" />
    <glyph glyph-name="five" unicode="5" horiz-adv-x="555" 
d="M351 446q91 0 144 -48t53 -134q0 -137 -72.5 -207.5t-200.5 -70.5q-80 0 -134.5 36.5t-76.5 99.5q-3 9 -3 15q0 13 8.5 21.5t21.5 8.5q20 0 28 -19q22 -53 60.5 -76.5t101.5 -23.5q93 0 146.5 51t53.5 153q0 67 -37.5 100t-103.5 33q-90 0 -167 -60q-17 -14 -32 -14
q-11 0 -19 8t-8 19q0 6 5 19l109 292q9 24 34 24h305q11 0 18.5 -8t7.5 -19q0 -14 -11.5 -24.5t-25.5 -10.5h-282l-76 -205q63 40 153 40z" />
    <glyph glyph-name="six" unicode="6" horiz-adv-x="566" 
d="M368 433q87 0 139.5 -47t52.5 -131q0 -135 -74 -202t-203 -67q-96 0 -142.5 65t-46.5 178q0 218 84.5 338t241.5 120q51 0 93.5 -19t58.5 -41q6 -8 6 -18q0 -13 -9 -22t-22 -9q-10 0 -21 8q-54 40 -122 40q-99 0 -160.5 -78t-73.5 -204q28 34 78 61.5t120 27.5zM293 46
q92 0 146 48t54 150q0 65 -37 97t-99 32q-64 0 -108.5 -28.5t-82.5 -80.5q-5 -28 -5 -63q0 -71 34.5 -113t97.5 -42z" />
    <glyph glyph-name="seven" unicode="7" horiz-adv-x="483" 
d="M115 19q7 89 49 169.5t96.5 137.5t108.5 105.5t92 94.5t40 85h-337q-11 0 -18.5 8t-7.5 19q0 14 11.5 24.5t25.5 10.5h373q11 0 18.5 -8t7.5 -19q-1 -48 -21 -91.5t-52.5 -79t-72 -70.5t-80.5 -74t-76 -81.5t-60.5 -101t-32.5 -124.5q-1 -14 -12 -23t-25 -9q-12 0 -20 8
t-7 19z" />
    <glyph glyph-name="eight" unicode="8" horiz-adv-x="554" 
d="M274 -14q-94 0 -148 43t-54 125q0 161 153 214q-65 38 -65 118q0 98 65 149.5t173 51.5q83 0 130 -35.5t47 -106.5q0 -120 -118 -177q43 -17 67 -55.5t24 -89.5q0 -112 -76 -174.5t-198 -62.5zM387 627q-75 0 -117.5 -34.5t-42.5 -100.5q0 -48 31 -72.5t88 -24.5
q74 0 117.5 36t43.5 103q0 93 -120 93zM336 335q-91 0 -144 -44t-53 -128q0 -58 39 -87.5t107 -29.5q89 0 142.5 43.5t53.5 128.5q0 117 -145 117z" />
    <glyph glyph-name="nine" unicode="9" horiz-adv-x="566" 
d="M317 240q-87 0 -139.5 47t-52.5 131q0 135 74 202t203 67q96 0 142.5 -65t46.5 -178q0 -218 -84.5 -338t-241.5 -120q-51 0 -93.5 19t-58.5 41q-6 8 -6 18q0 13 9 22t22 9q10 0 21 -8q54 -40 122 -40q99 0 160.5 78t73.5 204q-28 -34 -78 -61.5t-120 -27.5zM392 627
q-92 0 -146 -48t-54 -150q0 -65 37 -97t99 -32q64 0 108.5 28.5t82.5 80.5q5 28 5 63q0 71 -34.5 113t-97.5 42z" />
    <glyph glyph-name="colon" unicode=":" horiz-adv-x="160" 
d="M79 -8q-40 0 -40 34q0 28 15.5 44.5t41.5 16.5q40 0 40 -34q0 -28 -15.5 -44.5t-41.5 -16.5zM144 361q-40 0 -40 34q0 28 15.5 44.5t41.5 16.5q40 0 40 -34q0 -28 -15.5 -44.5t-41.5 -16.5z" />
    <glyph glyph-name="semicolon" unicode=";" horiz-adv-x="160" 
d="M144 361q-40 0 -40 34q0 28 15.5 44.5t41.5 16.5q40 0 40 -34q0 -28 -15.5 -44.5t-41.5 -16.5zM135 41q0 -96 -103 -196q-7 -7 -14 -7q-16 0 -16 14q0 6 5 12q30 35 42.5 55.5t12.5 41.5q0 14 -11.5 34t-11.5 35q0 27 15 42t42 15q39 0 39 -46z" />
    <glyph glyph-name="less" unicode="&#x3c;" horiz-adv-x="337" 
d="M41 231q0 15 18 27l316 222q8 5 16 5q11 0 19 -8t8 -19q0 -14 -14 -24l-297 -204l225 -199q8 -8 8 -19t-8 -19t-19 -8t-17 6l-246 221q-9 9 -9 19z" />
    <glyph glyph-name="equal" unicode="=" horiz-adv-x="454" 
d="M506 298q0 -13 -9.5 -22t-22.5 -9h-400q-10 0 -16.5 6.5t-6.5 16.5q0 12 10 21.5t22 9.5h400q10 0 16.5 -6.5t6.5 -16.5zM479 145q0 -13 -9.5 -22t-22.5 -9h-400q-10 0 -16.5 6.5t-6.5 16.5q0 13 10 22t22 9h400q10 0 16.5 -6.5t6.5 -16.5z" />
    <glyph glyph-name="greater" unicode="&#x3e;" horiz-adv-x="337" 
d="M379 239q0 -16 -17 -27l-316 -222q-8 -5 -17 -5q-11 0 -19 8t-8 19q0 15 13 24l298 202l-223 200q-9 9 -9 20t8 19t19 8t18 -7l244 -220q9 -7 9 -19z" />
    <glyph glyph-name="question" unicode="?" horiz-adv-x="461" 
d="M216 160q-22 27 -22 63q0 44 27 76.5t65.5 53.5t77 42.5t65.5 57.5t27 85q0 44 -30.5 67t-86.5 23q-130 0 -150 -120q-2 -14 -13.5 -23.5t-24.5 -9.5q-12 0 -20.5 9t-7.5 20q4 80 61.5 131.5t164.5 51.5q82 0 127 -36.5t45 -102.5q0 -52 -19 -93t-48 -65t-62.5 -45.5
t-62.5 -35.5t-48 -33.5t-19 -42.5q0 -16 8 -34q4 -9 4 -18q0 -13 -10 -23t-23 -10q-15 0 -25 12zM204 -8q-40 0 -40 34q0 28 15.5 44.5t41.5 16.5q40 0 40 -34q0 -28 -15.5 -44.5t-41.5 -16.5z" />
    <glyph glyph-name="at" unicode="@" horiz-adv-x="801" 
d="M599 -7q-96 0 -96 79q-46 -79 -132 -79q-60 0 -92 35t-32 94q0 104 57 170.5t145 66.5q56 0 95 -34l1 5q5 24 28 24q11 0 16.5 -7t3.5 -17l-42 -222q-2 -9 -2 -23q0 -50 57 -50q74 0 110 59.5t36 161.5q0 118 -70 176.5t-197 58.5q-179 0 -276.5 -96.5t-97.5 -298.5
q0 -242 262 -242q148 0 241 55q6 4 14 4t13.5 -5.5t5.5 -13.5q0 -15 -14 -23q-98 -61 -268 -61q-147 0 -225.5 71t-78.5 212q0 215 114 328.5t318 113.5q142 0 225.5 -70.5t83.5 -205.5q0 -23 -2 -47t-13.5 -66.5t-31.5 -73.5t-60.5 -55t-95.5 -24zM296 129q0 -41 20 -66.5
t63 -25.5q58 0 94.5 46t47.5 112l14 86q-35 35 -89 35q-64 0 -107 -52.5t-43 -134.5z" />
    <glyph glyph-name="A" unicode="A" horiz-adv-x="613" 
d="M471 261l-65 306l-172 -306h237zM481 199h-279l-106 -183q-13 -24 -34 -24q-14 0 -24 10t-10 24q0 10 6 20l356 612q13 23 35 23q24 0 30 -23l134 -617q2 -10 2 -14q0 -15 -9.5 -25t-26.5 -10q-27 0 -32 23z" />
    <glyph glyph-name="B" unicode="B" horiz-adv-x="561" 
d="M256 611l-41 -232h135q70 0 114.5 38.5t44.5 99.5q0 94 -118 94h-135zM205 321l-46 -259h165q78 0 120.5 42t42.5 112q0 50 -31 77.5t-86 27.5h-165zM314 0h-200q-14 0 -22 10t-6 24l107 605q2 14 14 24t26 10h170q89 0 132.5 -38t43.5 -106q0 -64 -35.5 -110t-88.5 -60
q47 -12 74.5 -46.5t27.5 -89.5q0 -100 -62.5 -161.5t-180.5 -61.5z" />
    <glyph glyph-name="C" unicode="C" horiz-adv-x="631" 
d="M353 -14q-260 0 -260 257q0 211 101.5 327.5t278.5 116.5q72 0 127 -30.5t83 -80.5q4 -7 4 -16q0 -14 -9.5 -23t-22.5 -9q-18 0 -26 13q-54 84 -165 84q-141 0 -220.5 -98.5t-79.5 -274.5q0 -108 50 -156t150 -48q111 0 186 82q12 13 26 13t23 -9.5t9 -22.5t-10 -24
q-40 -47 -107 -74t-138 -27z" />
    <glyph glyph-name="D" unicode="D" horiz-adv-x="608" 
d="M256 611l-97 -549h107q141 0 219 88t78 260q0 107 -51 154t-149 47h-107zM233 673h141q260 0 260 -252q0 -203 -100 -312t-279 -109h-141q-14 0 -22 10t-6 24l107 605q2 14 14 24t26 10z" />
    <glyph glyph-name="E" unicode="E" 
d="M446 0h-332q-14 0 -22 10t-6 24l107 605q2 14 14 24t26 10h321q11 0 18.5 -8t7.5 -19q0 -14 -11.5 -24.5t-25.5 -10.5h-287l-42 -241h220q11 0 18.5 -8t7.5 -19q0 -14 -11.5 -24.5t-25.5 -10.5h-220l-44 -246h298q11 0 18.5 -8t7.5 -19q0 -14 -11.5 -24.5t-25.5 -10.5z
" />
    <glyph glyph-name="F" unicode="F" 
d="M200 300l-48 -274q-2 -14 -14 -24t-26 -10t-22 10t-6 24l108 613q2 14 14 24t26 10h321q12 0 19 -7.5t7 -19.5q0 -14 -11 -24.5t-25 -10.5h-287l-44 -249h220q11 0 18.5 -8t7.5 -19q0 -14 -11.5 -24.5t-25.5 -10.5h-221z" />
    <glyph glyph-name="G" unicode="G" horiz-adv-x="663" 
d="M364 48q122 0 200 80l26 145h-167q-12 0 -19 7.5t-7 19.5q0 14 11 24.5t26 10.5h202q12 0 19.5 -9t5.5 -22l-30 -175q-3 -21 -18 -36q-103 -107 -260 -107q-260 0 -260 257q0 211 101.5 327.5t278.5 116.5q72 0 127 -30.5t83 -80.5q4 -7 4 -16q0 -14 -9.5 -23t-22.5 -9
q-18 0 -26 13q-54 84 -165 84q-141 0 -220.5 -98.5t-79.5 -274.5q0 -108 50 -156t150 -48z" />
    <glyph glyph-name="H" unicode="H" horiz-adv-x="644" 
d="M551 314h-348l-51 -288q-2 -14 -13.5 -24t-26.5 -10t-22.5 10t-5.5 24l110 621q2 14 13.5 24t26.5 10t22.5 -10t5.5 -24l-48 -271h348l48 271q2 14 13.5 24t26.5 10t22.5 -10t5.5 -24l-110 -621q-2 -14 -13.5 -24t-26.5 -10t-22.5 10t-5.5 24z" />
    <glyph glyph-name="I" unicode="I" horiz-adv-x="228" 
d="M262 647l-110 -621q-2 -14 -13.5 -24t-26.5 -10t-22.5 10t-5.5 24l110 621q2 14 13.5 24t26.5 10t22.5 -10t5.5 -24z" />
    <glyph glyph-name="J" unicode="J" horiz-adv-x="413" 
d="M38 13q-15 10 -15 27q0 14 9.5 23.5t23.5 9.5q8 0 20 -6q31 -16 76 -16q121 0 149 152l79 444q2 14 13.5 24t26.5 10t22 -10t5 -24l-78 -444q-39 -216 -228 -216q-67 0 -103 26z" />
    <glyph glyph-name="K" unicode="K" horiz-adv-x="554" 
d="M207 335l349 335q11 11 25 11t24 -10t10 -24q0 -15 -12 -26l-256 -239l185 -340q4 -8 4 -16q0 -14 -10 -24t-24 -10q-20 0 -29 16l-175 330l-108 -100l-38 -212q-2 -15 -13.5 -24.5t-26.5 -9.5t-22.5 9.5t-5.5 24.5l110 621q2 14 13.5 24t26.5 10t22.5 -10t5.5 -24z" />
    <glyph glyph-name="L" unicode="L" horiz-adv-x="483" 
d="M159 64h275q12 0 19.5 -8t7.5 -19q0 -15 -12 -26t-27 -11h-308q-14 0 -22 10t-6 24l108 613q2 14 13.5 24t26.5 10t22.5 -10t5.5 -24z" />
    <glyph glyph-name="M" unicode="M" horiz-adv-x="761" 
d="M394 109q-20 0 -27 19l-140 389l-87 -492q-2 -14 -13.5 -23.5t-25.5 -9.5t-21.5 9.5t-5.5 23.5l110 623q6 33 35 33q22 0 30 -22l162 -450l322 453q14 19 35 19q13 0 21 -9.5t6 -23.5l-110 -623q-2 -14 -13.5 -23.5t-25.5 -9.5t-21.5 9.5t-5.5 23.5l87 492l-279 -389
q-13 -19 -33 -19z" />
    <glyph glyph-name="N" unicode="N" horiz-adv-x="620" 
d="M637 681q13 0 21 -9.5t6 -23.5l-110 -622q-2 -14 -14 -24t-26 -10q-17 0 -25 14l-255 548l-94 -529q-2 -14 -13 -23.5t-26 -9.5q-14 0 -21.5 9.5t-5.5 23.5l110 623q6 33 37 33q19 0 27 -16l259 -546l91 529q2 14 13 23.5t26 9.5z" />
    <glyph glyph-name="O" unicode="O" horiz-adv-x="712" 
d="M354 -14q-260 0 -260 257q0 207 103 325.5t280 118.5q260 0 260 -257q0 -207 -103 -325.5t-280 -118.5zM466 625q-141 0 -221 -99.5t-80 -273.5q0 -204 200 -204q141 0 221 99.5t80 273.5q0 204 -200 204z" />
    <glyph glyph-name="P" unicode="P" horiz-adv-x="544" 
d="M256 611l-48 -267h155q72 0 115.5 43t43.5 118q0 52 -29 79t-82 27h-155zM197 282l-45 -256q-2 -14 -14 -24t-26 -10t-22 10t-6 24l108 613q2 14 14 24t26 10h199q73 0 117 -40t44 -116q0 -111 -65.5 -173t-164.5 -62h-165z" />
    <glyph glyph-name="Q" unicode="Q" horiz-adv-x="712" 
d="M354 -14q-260 0 -260 257q0 207 103 325.5t280 118.5q260 0 260 -257q0 -158 -62 -265.5t-173 -149.5q25 -9 50.5 -32.5t25.5 -46.5q0 -14 -10 -23.5t-23 -9.5q-17 0 -25 12q-26 40 -61 55.5t-105 15.5zM466 625q-141 0 -221 -99.5t-80 -273.5q0 -204 200 -204
q141 0 221 99.5t80 273.5q0 204 -200 204z" />
    <glyph glyph-name="R" unicode="R" horiz-adv-x="546" 
d="M256 611l-46 -258h167q65 0 105 44t40 107q0 47 -27.5 77t-74.5 30h-164zM199 291l-47 -265q-2 -14 -13.5 -24t-26.5 -10q-14 0 -22 10t-6 24l108 613q2 14 14 24t26 10h199q73 0 117 -45.5t44 -115.5q0 -90 -61 -155.5t-155 -65.5l139 -247q5 -8 5 -18q0 -14 -10 -24
t-24 -10q-20 0 -29 16l-151 283h-107z" />
    <glyph glyph-name="S" unicode="S" horiz-adv-x="558" 
d="M543 548q-48 77 -152 77q-82 0 -123.5 -36.5t-41.5 -86.5q0 -38 33.5 -64.5t80.5 -43.5t94.5 -36.5t81 -57t33.5 -91.5q0 -105 -71 -164t-206 -59q-83 0 -138.5 37.5t-73.5 91.5q-2 6 -2 12q0 13 9 22.5t23 9.5q22 0 29 -18q19 -42 60 -67.5t104 -25.5q93 0 145 40.5
t52 108.5q0 43 -33.5 71.5t-81 45.5t-95 36t-81 55t-33.5 90q0 82 64 137t182 55q70 0 123 -29.5t73 -78.5q3 -7 3 -14q0 -13 -9.5 -22.5t-22.5 -9.5q-16 0 -26 15z" />
    <glyph glyph-name="T" unicode="T" horiz-adv-x="538" 
d="M343 609h-179q-12 0 -19.5 8t-7.5 19q0 15 11.5 26t26.5 11h425q12 0 19.5 -8t7.5 -19q0 -15 -11.5 -26t-26.5 -11h-178l-103 -583q-2 -14 -14 -24t-26 -10t-22 10t-6 24z" />
    <glyph glyph-name="U" unicode="U" horiz-adv-x="624" 
d="M313 -14q-103 0 -152.5 45.5t-49.5 117.5q0 24 5 56l78 442q2 14 13.5 24t26.5 10t22.5 -10t5.5 -24l-78 -442q-4 -23 -4 -42q0 -113 144 -113q166 0 193 155l78 442q2 14 13.5 24t26.5 10t22.5 -10t5.5 -24l-78 -442q-8 -46 -23.5 -81.5t-45 -68.5t-81 -51t-122.5 -18z
" />
    <glyph glyph-name="V" unicode="V" horiz-adv-x="576" 
d="M308 119l299 542q10 20 31 20q14 0 24 -10t10 -24q0 -8 -6 -20l-343 -612q-13 -23 -36 -23t-28 23l-125 622q-1 6 -1 10q0 14 10 24t24 10q27 0 33 -26z" />
    <glyph glyph-name="W" unicode="W" horiz-adv-x="818" 
d="M503 527l-234 -509q-11 -26 -38 -26q-11 0 -19.5 7t-9.5 18l-67 617q-1 8 -1 13q0 14 10 24t24 10q30 0 34 -30l56 -512l234 517q11 25 36 25q27 0 30 -26l52 -516l237 520q10 22 32 22q14 0 24 -10t10 -24q0 -7 -4 -17l-287 -613q-12 -25 -34 -25q-28 0 -31 26z" />
    <glyph glyph-name="X" unicode="X" horiz-adv-x="500" 
d="M304 287l-232 -282q-11 -13 -27 -13q-14 0 -24 10t-10 24q0 12 8 22l254 300l-137 284q-3 6 -3 15q0 14 10 24t24 10q21 0 30 -18l125 -255l213 260q12 13 27 13q14 0 24 -10t10 -24q0 -12 -7 -21l-238 -281l144 -305q3 -5 3 -14q0 -14 -10 -24t-24 -10q-21 0 -30 18z
" />
    <glyph glyph-name="Y" unicode="Y" 
d="M258 -8q-15 0 -22.5 10t-5.5 24l51 287l-145 320q-3 6 -3 14q0 14 10 24t24 10q21 0 30 -19l129 -281l226 286q11 14 28 14q14 0 24 -10t10 -24q0 -12 -8 -22l-257 -312l-51 -287q-2 -14 -13.5 -24t-26.5 -10z" />
    <glyph glyph-name="Z" unicode="Z" horiz-adv-x="513" 
d="M469 0h-420q-12 0 -19.5 8t-7.5 19q0 13 10 24l469 558h-324q-12 0 -19.5 7.5t-7.5 19.5q0 15 11.5 26t27.5 11h384q12 0 19 -7.5t7 -19.5q0 -14 -9 -24l-466 -558h356q12 0 19.5 -7.5t7.5 -19.5q0 -15 -11 -26t-27 -11z" />
    <glyph glyph-name="bracketleft" unicode="[" horiz-adv-x="259" 
d="M218 -116q0 -12 -9.5 -21t-20.5 -9h-101q-14 0 -21.5 9.5t-5.5 22.5l145 820q2 14 13 23t24 9h101q10 0 16 -6.5t6 -15.5q0 -12 -9.5 -21t-21.5 -9h-69l-137 -780h69q9 0 15 -6.5t6 -15.5z" />
    <glyph glyph-name="backslash" unicode="\" horiz-adv-x="407" 
d="M295 -70l-128 773q-2 12 -2 16q0 13 9.5 22.5t22.5 9.5q27 0 32 -28l128 -773q2 -12 2 -16q0 -14 -9.5 -23t-22.5 -9q-27 0 -32 28z" />
    <glyph glyph-name="bracketright" unicode="]" horiz-adv-x="259" 
d="M-2 -124q0 12 9.5 21t21.5 9h69l137 780h-69q-9 0 -15 6.5t-6 15.5q0 12 9.5 21t21.5 9h101q13 0 20.5 -9t5.5 -23l-145 -820q-2 -14 -13 -23t-24 -9h-101q-10 0 -16 6.5t-6 15.5z" />
    <glyph glyph-name="asciicircum" unicode="^" horiz-adv-x="468" 
d="M442 357l-98 257l-196 -263q-8 -11 -22 -11q-11 0 -19 8t-8 19q0 10 7 18l224 293q9 13 24 13q16 0 22 -13l115 -298q3 -8 3 -13q0 -11 -8 -19t-19 -8q-18 0 -25 17z" />
    <glyph glyph-name="underscore" unicode="_" horiz-adv-x="406" 
d="M415 -66q0 -12 -10 -21.5t-22 -9.5h-394q-10 0 -16.5 6.5t-6.5 16.5q0 13 10 22t22 9h394q10 0 16.5 -6.5t6.5 -16.5z" />
    <glyph glyph-name="grave" unicode="`" horiz-adv-x="370" 
d="M349 520q-14 -14 -31 2l-112 95q-21 19 -2 39q20 22 39 3l104 -108q17 -17 2 -31z" />
    <glyph glyph-name="a" unicode="a" horiz-adv-x="513" 
d="M401 88q-55 -101 -169 -101q-79 0 -121 46t-42 123q0 137 74.5 224.5t191.5 87.5q75 0 124 -43l1 5q7 32 37 32q15 0 22 -9.5t5 -22.5l-72 -406q-2 -14 -12.5 -23t-24.5 -9t-21 9t-5 23zM133 166q0 -54 26.5 -87.5t82.5 -33.5q77 0 124.5 60t62.5 147l19 113
q-47 47 -118 47q-84 0 -140.5 -69t-56.5 -177z" />
    <glyph glyph-name="b" unicode="b" horiz-adv-x="501" 
d="M186 322l-25 -138q-3 -17 -3 -36q0 -103 107 -103q87 0 135 67t48 177q0 121 -118 121q-26 0 -50.5 -9t-41 -22t-29 -26t-17.5 -22zM347 468q78 0 122 -44t44 -127q0 -143 -69.5 -226.5t-188.5 -83.5q-77 0 -119.5 38t-42.5 112q0 22 4 47l88 496q2 14 12.5 23t24.5 9
t21.5 -9t5.5 -23l-49 -277q59 65 147 65z" />
    <glyph glyph-name="c" unicode="c" horiz-adv-x="441" 
d="M69 169q0 135 67 217t188 82q40 0 72.5 -15t46.5 -29t22 -29q4 -7 4 -15q0 -12 -8 -20.5t-20 -8.5q-13 0 -24 12q-12 14 -20.5 21.5t-31.5 16.5t-52 9q-88 0 -133.5 -65.5t-45.5 -167.5q0 -69 28.5 -100.5t85.5 -31.5q60 0 121 42q11 7 20 7q11 0 19.5 -8t8.5 -20
q0 -17 -18 -30q-69 -49 -161 -49q-169 0 -169 182z" />
    <glyph glyph-name="d" unicode="d" horiz-adv-x="501" 
d="M404 184l25 138q-1 4 -3 9.5t-11 21t-21 27t-34 21t-48 9.5q-83 0 -131 -66t-48 -177q0 -122 115 -122q58 0 101 35.5t55 103.5zM318 468q45 0 77.5 -19t47.5 -46l49 277q2 14 12.5 23t24.5 9t21.5 -9t5.5 -23l-88 -496q-17 -97 -78 -147t-153 -50q-80 0 -124.5 43
t-44.5 128q0 139 67.5 224.5t182.5 85.5z" />
    <glyph glyph-name="e" unicode="e" horiz-adv-x="461" 
d="M69 158q0 139 71 224.5t192 85.5q71 0 109 -31t38 -78q0 -162 -343 -162q-3 -15 -3 -31q0 -66 30 -93t93 -27t122 42q10 7 19 7q12 0 20.5 -8t8.5 -20q0 -13 -15 -26q-65 -54 -167 -54q-84 0 -129.5 43t-45.5 128zM143 249q272 0 272 103q0 24 -23 41t-70 17
q-71 0 -118.5 -46t-60.5 -115z" />
    <glyph glyph-name="f" unicode="f" horiz-adv-x="289" 
d="M229 454h91q11 0 18 -7t7 -18q0 -15 -10.5 -25t-25.5 -10h-91l-73 -420q-14 -80 -68 -127.5t-144 -47.5q-11 0 -18 7t-7 18q0 15 10 24.5t25 9.5q58 0 93 32t45 88l73 416h-34q-11 0 -18 7t-7 18q0 15 10.5 25t25.5 10h34l10 59q13 75 64.5 123.5t139.5 48.5q11 0 18 -7
t7 -18q0 -15 -10.5 -25t-25.5 -10q-56 0 -88 -30.5t-41 -81.5z" />
    <glyph glyph-name="g" unicode="g" horiz-adv-x="469" 
d="M395 177l16 94q3 19 3 36q0 51 -30 77t-81 26q-83 0 -128 -53t-45 -135q0 -70 30 -101.5t88 -31.5q29 0 54.5 9t41.5 22t28.5 26t17.5 22zM122 -97q0 -48 77 -48q73 0 110 33t50 96l24 119q-22 -35 -69 -62t-88 -41t-72.5 -38.5t-31.5 -58.5zM475 271l-50 -283
q-17 -97 -75 -143t-163 -46q-60 0 -95 26.5t-35 67.5q0 51 42.5 83.5t131.5 56.5q-78 2 -122 46.5t-44 129.5q0 120 65 189.5t183 69.5q76 0 121 -38.5t45 -111.5q0 -24 -4 -47z" />
    <glyph glyph-name="h" unicode="h" horiz-adv-x="501" 
d="M344 468q82 0 120 -34t38 -89q0 -27 -5 -54l-47 -267q-2 -14 -12.5 -23t-24.5 -9t-21.5 9t-5.5 23l45 254q5 28 5 49q0 84 -102 84q-132 0 -157 -140l-44 -247q-2 -14 -12.5 -23t-24.5 -9t-21.5 9t-5.5 23l116 656q2 14 12.5 23t24.5 9t21.5 -9.5t5.5 -22.5l-50 -282
q19 30 57.5 50t87.5 20z" />
    <glyph glyph-name="i" unicode="i" horiz-adv-x="193" 
d="M204 430l-72 -406q-2 -14 -12.5 -23t-24.5 -9t-21.5 9t-5.5 23l72 406q2 14 12.5 23t24.5 9t21.5 -9t5.5 -23zM208 634q33 0 33 -28q0 -23 -12 -36.5t-34 -13.5q-33 0 -33 28q0 23 12 36.5t34 13.5z" />
    <glyph glyph-name="j" unicode="j" horiz-adv-x="194" 
d="M59 -35l82 465q2 14 13 23t24 9q14 0 21.5 -9.5t5.5 -22.5l-82 -465q-12 -65 -59 -107.5t-113 -42.5q-11 0 -18.5 7t-7.5 18q0 15 10.5 25t25.5 10q36 0 63.5 26t34.5 64zM209 634q33 0 33 -28q0 -23 -12 -36.5t-34 -13.5q-33 0 -33 28q0 23 12 36.5t34 13.5z" />
    <glyph glyph-name="k" unicode="k" horiz-adv-x="453" 
d="M400 -8q-18 0 -27 15l-138 229l-73 -49l-29 -163q-2 -14 -13 -23t-24 -9q-14 0 -21.5 9.5t-5.5 22.5l116 656q2 14 13 23t24 9q14 0 21.5 -9.5t5.5 -22.5l-74 -419l267 193q10 8 23 8q12 0 21 -9t9 -20q0 -19 -18 -32l-193 -134l144 -227q4 -7 4 -16q0 -14 -9 -23t-23 -9
z" />
    <glyph glyph-name="l" unicode="l" horiz-adv-x="219" 
d="M222 712q14 0 21.5 -9t5.5 -23l-101 -571q-2 -12 -2 -23q0 -34 33 -34q11 0 18 -7.5t7 -18.5q0 -14 -11 -24t-25 -10q-87 0 -87 84q0 15 3 33l101 571q2 14 12.5 23t24.5 9z" />
    <glyph glyph-name="m" unicode="m" horiz-adv-x="808" 
d="M646 468q162 0 162 -132q0 -24 -4 -45l-47 -267q-2 -14 -12.5 -23t-24.5 -9t-21.5 9t-5.5 23l45 254q4 21 4 42q0 91 -106 91q-125 0 -146 -120l-47 -267q-2 -14 -12.5 -23t-24.5 -9t-21.5 9t-5.5 23l45 254q5 27 5 44q0 89 -105 89q-66 0 -100.5 -36t-46.5 -104
l-44 -247q-2 -14 -12.5 -23t-24.5 -9t-21.5 9t-5.5 23l72 406q2 14 12.5 23t24.5 9t21.5 -9t5.5 -23l-6 -32q19 31 57 50.5t85 19.5q116 0 147 -70q57 70 158 70z" />
    <glyph glyph-name="n" unicode="n" horiz-adv-x="501" 
d="M344 468q82 0 120 -34t38 -89q0 -27 -5 -54l-47 -267q-2 -14 -12.5 -23t-24.5 -9t-21.5 9t-5.5 23l45 254q5 28 5 49q0 84 -102 84q-132 0 -157 -140l-44 -247q-2 -14 -12.5 -23t-24.5 -9t-21.5 9t-5.5 23l72 406q2 14 12.5 23t24.5 9t21.5 -9.5t5.5 -22.5l-6 -32
q19 30 57.5 50t87.5 20z" />
    <glyph glyph-name="o" unicode="o" horiz-adv-x="490" 
d="M252 45q92 0 137.5 70.5t45.5 173.5q0 121 -118 121q-92 0 -137.5 -70.5t-45.5 -173.5q0 -121 118 -121zM242 -13q-83 0 -128 43t-45 128q0 61 15 115t44.5 98.5t81 70.5t117.5 26q83 0 128 -43t45 -128q0 -61 -15 -115t-44.5 -98.5t-81 -70.5t-117.5 -26z" />
    <glyph glyph-name="p" unicode="p" horiz-adv-x="509" 
d="M178 462q14 0 21.5 -9.5t5.5 -22.5l-6 -32q49 70 148 70q84 0 129 -42.5t45 -128.5q0 -61 -15 -115t-44.5 -98.5t-81 -70.5t-117.5 -26q-93 0 -123 74l-41 -230q-2 -14 -12.5 -23t-24.5 -9t-21.5 9t-5.5 23l106 599q2 14 13 23t24 9zM161 175q0 -130 112 -130
q92 0 137.5 70.5t45.5 173.5q0 121 -118 121q-76 0 -126.5 -63t-50.5 -172z" />
    <glyph glyph-name="q" unicode="q" horiz-adv-x="490" 
d="M396 133l24 138q3 19 3 36q0 51 -29.5 77t-80.5 26q-86 0 -133 -68t-47 -176q0 -121 115 -121q26 0 51 9t42 22t30 26t19 22zM234 -13q-78 0 -122 43.5t-44 127.5q0 140 68.5 225t186.5 85q76 0 120.5 -38.5t44.5 -111.5q0 -24 -4 -47l-78 -440q-2 -14 -12 -23t-25 -9
t-22 9t-5 23l39 221q-57 -65 -147 -65z" />
    <glyph glyph-name="r" unicode="r" horiz-adv-x="309" 
d="M205 430l-8 -44q22 36 62.5 58t90.5 22q11 0 18.5 -8t7.5 -19q0 -14 -11.5 -24.5t-25.5 -10.5q-67 0 -110.5 -42.5t-55.5 -113.5l-40 -224q-2 -14 -13 -23t-24 -9q-14 0 -21.5 9.5t-5.5 22.5l72 406q2 14 12.5 23t24.5 9t21.5 -9.5t5.5 -22.5z" />
    <glyph glyph-name="s" unicode="s" horiz-adv-x="424" 
d="M278 406q-42 0 -71 -16t-29 -52q0 -26 23.5 -44t56.5 -29.5t66 -25t56.5 -39t23.5 -62.5q0 -74 -51.5 -112t-139.5 -38q-54 0 -98 22.5t-65 53.5q-4 7 -4 15q0 12 8.5 20.5t20.5 8.5q13 0 22 -10q41 -49 122 -49q52 0 86 19.5t34 59.5q0 24 -23.5 41t-56.5 28.5t-66.5 25
t-57 40t-23.5 64.5q0 69 48 104.5t126 35.5q47 0 86.5 -20t56.5 -47q5 -8 5 -16q0 -12 -8.5 -20.5t-20.5 -8.5t-21 9q-42 42 -106 42z" />
    <glyph glyph-name="t" unicode="t" horiz-adv-x="279" 
d="M169 454l19 105q2 13 13.5 22.5t24.5 9.5q14 0 21 -9.5t5 -22.5l-19 -105h66q11 0 18 -7t7 -18q0 -15 -10.5 -25t-25.5 -10h-64l-49 -276q-2 -10 -2 -18q0 -48 48 -48q11 0 18.5 -7.5t7.5 -18.5q0 -14 -11 -24t-26 -10q-50 0 -76 26t-26 70q0 15 3 30l49 276h-40
q-11 0 -18 7t-7 18q0 15 10.5 25t25.5 10h38z" />
    <glyph glyph-name="u" unicode="u" horiz-adv-x="482" 
d="M168 462q14 0 21.5 -9.5t5.5 -22.5l-46 -261q-4 -23 -4 -37q0 -84 104 -84q71 0 102.5 32t41.5 89l46 261q2 14 13 23t25 9q13 0 20.5 -9t5.5 -23l-46 -261q-15 -84 -62 -133t-153 -49q-84 0 -123 35t-39 93q0 24 5 54l46 261q2 14 12.5 23t24.5 9z" />
    <glyph glyph-name="v" unicode="v" horiz-adv-x="438" 
d="M217 -8q-21 0 -26 20l-98 405q-2 8 -2 13q0 14 9.5 23t22.5 9q26 0 31 -23l82 -343l202 350q10 16 28 16q14 0 23 -9t9 -23q0 -7 -6 -19l-241 -399q-12 -20 -34 -20z" />
    <glyph glyph-name="w" unicode="w" horiz-adv-x="640" 
d="M378 332l-148 -317q-10 -23 -35 -23q-23 0 -26 21l-75 404q-2 10 -2 13q0 14 9 23t23 9q11 0 20 -7t11 -17l59 -328l151 328q12 24 34 24q26 0 28 -22l37 -330l174 334q10 18 29 18q13 0 22.5 -9t9.5 -23q0 -9 -5 -18l-219 -399q-11 -21 -34 -21q-24 0 -27 23z" />
    <glyph glyph-name="x" unicode="x" horiz-adv-x="412" 
d="M243 185l-157 -180q-12 -13 -27 -13q-13 0 -22.5 9t-9.5 23q0 12 9 23l173 188l-103 181q-3 6 -3 14q0 14 9.5 23t22.5 9q20 0 28 -16l90 -167l151 170q11 13 26 13q14 0 23 -9t9 -23q0 -12 -10 -24l-165 -175l104 -193q3 -6 3 -14q0 -14 -9 -23t-23 -9q-20 0 -28 16z
" />
    <glyph glyph-name="y" unicode="y" horiz-adv-x="482" 
d="M168 462q14 0 21.5 -9.5t5.5 -22.5l-38 -215q-4 -23 -4 -37q0 -84 104 -84q65 0 100 34.5t44 86.5l38 215q2 14 13 23t25 9q13 0 20.5 -9t5.5 -23l-78 -442q-17 -97 -75 -143t-163 -46q-60 0 -95 26.5t-35 67.5q0 51 42 83t133 57q-75 4 -109.5 38.5t-34.5 89.5
q0 24 5 54l38 215q2 14 12.5 23t24.5 9zM122 -97q0 -48 77 -48q73 0 110 33t50 96l24 119q-22 -35 -69 -62t-88 -41t-72.5 -38.5t-31.5 -58.5z" />
    <glyph glyph-name="z" unicode="z" horiz-adv-x="405" 
d="M112 419q0 15 10.5 25t25.5 10h274q11 0 18 -7t7 -18q0 -12 -11 -25l-306 -342h228q12 0 19 -7.5t7 -19.5q0 -14 -11 -24.5t-26 -10.5h-293q-11 0 -18 7t-7 18q0 12 11 25l310 344h-212q-12 0 -19 7t-7 18z" />
    <glyph glyph-name="braceleft" unicode="{" horiz-adv-x="338" 
d="M292 -114q0 -13 -10.5 -22.5t-23.5 -9.5q-62 0 -92 29t-30 71q0 33 27 126t27 124q0 40 -23 54.5t-64 14.5h-7q-19 0 -19 20q0 10 8 18t19 8h7q48 0 77.5 19t39.5 74q5 25 8.5 68.5t6 74.5t12.5 68t27 60t50.5 39t81.5 16q10 0 17 -7t7 -17q0 -12 -11 -22t-23 -10
q-39 0 -58.5 -19t-27.5 -54q-7 -31 -14.5 -98.5t-11.5 -90.5q-9 -55 -47 -89.5t-96 -34.5q51 0 76.5 -24.5t25.5 -69.5q0 -33 -23 -123.5t-23 -112.5q0 -56 63 -56q10 0 17 -7t7 -17z" />
    <glyph glyph-name="bar" unicode="|" horiz-adv-x="216" 
d="M277 775l-159 -902q-2 -13 -13.5 -23t-25.5 -10q-13 0 -21 9.5t-6 23.5l159 902q2 14 13 23.5t26 9.5q13 0 21 -9.5t6 -23.5z" />
    <glyph glyph-name="braceright" unicode="}" horiz-adv-x="338" 
d="M151 706q0 13 10.5 22.5t23.5 9.5q62 0 92 -29t30 -71q0 -33 -27 -126t-27 -124q0 -40 23 -54.5t64 -14.5h7q19 0 19 -20q0 -10 -8 -18t-19 -8h-7q-48 0 -77.5 -19t-39.5 -74q-5 -25 -8.5 -68.5t-6 -74.5t-12.5 -68t-27 -60t-50.5 -39t-81.5 -16q-10 0 -17 7t-7 17
q0 12 11 22t23 10q39 0 58.5 19t27.5 54q7 31 14.5 98.5t11.5 90.5q9 55 47 89.5t96 34.5q-51 0 -76.5 24.5t-25.5 69.5q0 33 23 123.5t23 112.5q0 56 -63 56q-10 0 -17 7t-7 17z" />
    <glyph glyph-name="asciitilde" unicode="~" horiz-adv-x="477" 
d="M381 293q35 0 64 42q11 15 25 15q10 0 18 -7.5t8 -17.5q0 -7 -4 -15q-15 -28 -46 -49t-74 -21t-93 32.5t-78 32.5q-35 0 -64 -42q-11 -15 -25 -15q-10 0 -18 7.5t-8 17.5q0 7 4 15q15 28 46 49t74 21q41 0 92 -32.5t79 -32.5z" />
    <glyph glyph-name="nbspace" unicode="&#xa0;" horiz-adv-x="283" 
 />
    <glyph glyph-name="exclamdown" unicode="&#xa1;" horiz-adv-x="208" 
d="M64 -221q-36 0 -29 35l98 471q4 18 23 18t17 -18l-68 -471q-4 -35 -41 -35zM186 468q40 0 40 -34q0 -28 -15.5 -44.5t-41.5 -16.5q-40 0 -40 34q0 28 15.5 44.5t41.5 16.5z" />
    <glyph glyph-name="cent" unicode="&#xa2;" horiz-adv-x="441" 
d="M69 169q0 127 60 207.5t168 90.5l10 56q1 10 10.5 18t20.5 8q10 0 16.5 -7.5t4.5 -18.5l-10 -57q80 -9 116 -71q4 -7 4 -15q0 -12 -8 -20.5t-20 -8.5q-13 0 -24 12q-12 14 -20.5 21.5t-31.5 16.5t-52 9q-88 0 -133.5 -65.5t-45.5 -167.5q0 -69 28.5 -100.5t85.5 -31.5
q60 0 121 42q11 7 20 7q11 0 19.5 -8t8.5 -20q0 -17 -18 -30q-60 -42 -134 -48l-12 -69q-2 -11 -11.5 -18.5t-19.5 -7.5q-11 0 -17 8t-4 18l12 69q-144 14 -144 181z" />
    <glyph glyph-name="sterling" unicode="&#xa3;" horiz-adv-x="591" 
d="M541 119q13 0 22 -9.5t9 -22.5q0 -10 -6 -19q-33 -47 -71 -65t-90 -18q-32 0 -88.5 23.5t-89.5 23.5q-51 0 -102 -33q-13 -8 -23 -8q-11 0 -19.5 8t-8.5 19q0 17 17 30q39 30 76 80t37 93q0 34 -9 61h-51q-11 0 -18 7t-7 18q0 15 10.5 25t25.5 10h23q-23 65 -23 117
q0 101 68.5 164.5t184.5 63.5q80 0 132 -33.5t65 -95.5q2 -10 2 -17q0 -14 -9.5 -23.5t-24.5 -9.5q-26 0 -32 25q-22 93 -144 93q-75 0 -126 -42.5t-51 -113.5q0 -60 27 -128h175q11 0 18 -7t7 -18q0 -15 -10.5 -25t-25.5 -10h-150q6 -23 6 -46q0 -94 -85 -160q24 13 54 13
q40 0 94 -21.5t80 -21.5q63 0 100 55q12 18 31 18z" />
    <glyph glyph-name="currency" unicode="&#xa4;" horiz-adv-x="467" 
d="M321 126q-62 0 -108 35l-46 -46q-10 -10 -22 -10q-13 0 -21.5 9t-8.5 22t10 23l45 47q-31 46 -31 106q0 56 32 108l-47 48q-9 10 -9 22q0 13 8.5 22t21.5 9q12 0 22 -10l46 -48q52 35 108 35q60 0 106 -33l45 46q9 10 22 10t22 -9t9 -22q0 -12 -11 -23l-45 -46
q32 -47 32 -109q0 -57 -32 -107l45 -46q11 -13 11 -23q0 -13 -9 -22t-22 -9t-22 10l-44 45q-45 -34 -107 -34zM321 187q52 0 84.5 36t32.5 89t-32.5 89t-84.5 36q-51 0 -85 -36.5t-34 -88.5t34 -88.5t85 -36.5z" />
    <glyph glyph-name="yen" unicode="&#xa5;" 
d="M454 264h-114l-8 -47h114q10 0 16.5 -6.5t6.5 -16.5q0 -12 -10 -21.5t-22 -9.5h-115l-24 -137q-2 -14 -13.5 -24t-26.5 -10t-22.5 10t-5.5 24l24 137h-115q-10 0 -16.5 6.5t-6.5 16.5q0 12 10 21.5t22 9.5h116l8 47h-116q-10 0 -16 6.5t-6 16.5q0 13 9.5 22t22.5 9h112
l-142 315q-3 6 -3 14q0 14 10 24t24 10q21 0 30 -19l129 -281l226 286q11 14 28 14q14 0 24 -10t10 -24q0 -12 -8 -22l-253 -307h111q10 0 16.5 -6.5t6.5 -16.5q0 -13 -10 -22t-23 -9z" />
    <glyph glyph-name="brokenbar" unicode="&#xa6;" horiz-adv-x="216" 
d="M277 775l-68 -386q-2 -13 -13.5 -23t-25.5 -10q-13 0 -21 9.5t-6 23.5l68 386q2 14 13.5 23.5t25.5 9.5q13 0 21 -9.5t6 -23.5zM186 260l-68 -387q-2 -13 -13.5 -23t-25.5 -10q-13 0 -21 9.5t-6 23.5l68 387q2 14 13.5 23.5t25.5 9.5t22 -10t5 -23z" />
    <glyph glyph-name="section" unicode="&#xa7;" horiz-adv-x="504" 
d="M438 220q0 44 -39.5 71.5t-105 49.5t-85.5 35q-59 -43 -59 -111q0 -42 39.5 -69.5t105 -50t86.5 -35.5q58 44 58 110zM82 261q0 47 20.5 81.5t59.5 70.5q-22 35 -22 84q0 81 60.5 135.5t179.5 54.5q62 0 109 -26.5t72 -67.5q4 -7 4 -15q0 -13 -9 -22t-22 -9q-14 0 -25 12
q-53 67 -140 67q-81 0 -121.5 -34.5t-40.5 -84.5q0 -38 31 -65t74.5 -44t87.5 -35.5t75 -53t31 -83.5q0 -48 -20.5 -82t-60.5 -71q23 -34 23 -84q0 -80 -61 -135t-179 -55q-58 0 -108.5 28.5t-71.5 64.5q-5 8 -5 16q0 13 9 22t22 9q14 0 25 -12q60 -67 140 -67
q81 0 121.5 34.5t40.5 84.5q0 39 -31 66t-74.5 43t-87.5 34t-75 53t-31 86z" />
    <glyph glyph-name="dieresis" unicode="&#xa8;" horiz-adv-x="317" 
d="M174 534q-30 0 -30 28q0 47 43 47q31 0 31 -29q0 -46 -44 -46zM331 534q-30 0 -30 28q0 47 43 47q31 0 31 -29q0 -46 -44 -46z" />
    <glyph glyph-name="copyright" unicode="&#xa9;" horiz-adv-x="801" 
d="M447 155q-157 0 -157 182q0 183 157 183q44 0 78 -18.5t46 -40.5q3 -6 3 -12q0 -11 -7 -18t-18 -7t-20 9q-37 37 -82 37q-52 0 -77 -30.5t-25 -102.5q0 -132 102 -132q52 0 82 30q10 10 20 10q11 0 18 -7.5t7 -17.5q0 -8 -6 -16q-39 -49 -121 -49zM450 687
q170 0 259 -87.5t89 -263.5q0 -175 -89.5 -262.5t-258.5 -87.5q-167 0 -257 88t-90 262q0 175 90 263t257 88zM450 38q293 0 293 298q0 299 -293 299q-145 0 -217 -73.5t-72 -225.5t72 -225t217 -73z" />
    <glyph glyph-name="ordfeminine" unicode="&#xaa;" horiz-adv-x="342" 
d="M373 290q0 -8 -7.5 -14.5t-15.5 -6.5h-262q-7 0 -11.5 5t-4.5 12q0 8 7.5 14.5t15.5 6.5h262q7 0 11.5 -5t4.5 -12zM337 429q-37 -68 -115 -68q-53 0 -81.5 31t-28.5 83q0 93 50.5 152.5t129.5 59.5q51 0 84 -30l1 4q4 22 26 22q9 0 15 -6.5t4 -15.5l-49 -275
q-4 -22 -26 -22q-10 0 -15 6.5t-3 15.5zM156 482q0 -82 73 -82q52 0 84 40.5t43 99.5l13 76q-34 32 -80 32q-57 0 -95 -46.5t-38 -119.5z" />
    <glyph glyph-name="guillemotleft" unicode="&#xab;" horiz-adv-x="522" 
d="M115 208q0 11 11 22l194 192q9 9 19 9q9 0 16 -7t7 -17q0 -9 -10 -19l-186 -180l121 -178q4 -7 4 -14q0 -9 -7 -16t-17 -7q-12 0 -18 9l-129 191q-5 8 -5 15zM269 208q0 11 11 22l194 192q9 9 19 9q9 0 16 -7t7 -17q0 -9 -10 -19l-186 -180l121 -178q4 -7 4 -14
q0 -9 -7 -16t-17 -7q-12 0 -18 9l-129 191q-5 8 -5 15z" />
    <glyph glyph-name="logicalnot" unicode="&#xac;" horiz-adv-x="563" 
d="M576 279l-45 -257q-2 -13 -12.5 -21.5t-23.5 -8.5t-19.5 8.5t-4.5 21.5l41 233h-404q-10 0 -16.5 6.5t-6.5 16.5q0 12 10 21.5t22 9.5h434q13 0 20 -8.5t5 -21.5z" />
    <glyph glyph-name="registered" unicode="&#xae;" horiz-adv-x="377" 
d="M277 687q149 0 149 -152q0 -153 -149 -153q-70 0 -108.5 38.5t-38.5 114.5t38.5 114t108.5 38zM278 406q120 0 120 129q0 67 -30 97.5t-90 30.5q-120 0 -120 -128q0 -129 120 -129zM269 518h-23v-49q0 -13 -13 -13t-13 13v131q0 13 13 13h55q22 0 36 -13.5t14 -33.5
q0 -19 -12.5 -33.5t-28.5 -14.5l33 -41q3 -4 3 -8q0 -13 -12 -13q-7 0 -11 6zM246 540h42q24 0 24 26q0 25 -24 25h-42v-51z" />
    <glyph glyph-name="macron" unicode="&#xaf;" horiz-adv-x="382" 
d="M409 566q0 -12 -9 -20.5t-21 -8.5h-186q-9 0 -15 6t-6 15q0 12 9 20.5t21 8.5h186q9 0 15 -6t6 -15z" />
    <glyph glyph-name="degree" unicode="&#xb0;" horiz-adv-x="358" 
d="M410 550q0 -56 -40 -96t-97 -40q-56 0 -96 40t-40 96t40 96.5t96 40.5q57 0 97 -40.5t40 -96.5zM372 550q0 41 -28.5 70t-70.5 29q-41 0 -69.5 -29t-28.5 -70t28.5 -69.5t69.5 -28.5q42 0 70.5 28.5t28.5 69.5z" />
    <glyph glyph-name="plusminus" unicode="&#xb1;" horiz-adv-x="454" 
d="M508 311q0 -13 -9.5 -22t-22.5 -9h-171l-30 -171q-2 -12 -12 -20.5t-22 -8.5t-19 8.5t-5 20.5l30 171h-171q-10 0 -16.5 6.5t-6.5 16.5q0 13 10 22t23 9h171l30 170q2 12 12 20.5t22 8.5t19 -8.5t5 -20.5l-30 -170h171q10 0 16 -6.5t6 -16.5zM459 31q0 -13 -10 -22
t-22 -9h-400q-10 0 -16.5 6.5t-6.5 16.5q0 13 10 22t22 9h400q10 0 16.5 -6.5t6.5 -16.5z" />
    <glyph glyph-name="twosuperior" unicode="&#xb2;" horiz-adv-x="266" 
d="M155 680q29 50 106 50q42 0 68 -20t26 -55q0 -39 -30.5 -69.5t-66.5 -45t-66.5 -32.5t-30.5 -35h137q8 0 14 -6t6 -15q0 -11 -8.5 -19t-20.5 -8h-167q-8 0 -14 6t-6 15q0 35 20.5 61t50 41.5t59 28.5t50 30.5t20.5 39.5q0 36 -49 36q-35 0 -59 -29q-8 -10 -20 -10
q-10 0 -16.5 6.5t-6.5 16.5q0 6 4 13z" />
    <glyph glyph-name="threesuperior" unicode="&#xb3;" horiz-adv-x="259" 
d="M332 681l-80 -70q35 0 55 -22t20 -53q0 -52 -32.5 -84.5t-98.5 -32.5q-39 0 -63 18.5t-32 42.5q-2 6 -2 11q0 10 6.5 16.5t16.5 6.5q14 0 21 -13q18 -34 57 -34q73 0 73 61q0 39 -52 39h-22q-20 0 -20 21q0 11 9 19l73 67h-92q-21 0 -21 21q0 12 8 20.5t21 8.5h144
q21 0 21 -21q0 -15 -10 -22z" />
    <glyph glyph-name="acute" unicode="&#xb4;" horiz-adv-x="370" 
d="M213 520q-15 14 2 31l104 108q19 19 39 -3q19 -20 -2 -39l-112 -95q-17 -16 -31 -2z" />
    <glyph glyph-name="mu" unicode="&#xb5;" horiz-adv-x="482" 
d="M195 430l-47 -261q-4 -23 -4 -42q0 -39 23.5 -59t81.5 -20q124 0 144 121l45 261q3 14 14.5 23t24.5 9t20.5 -9.5t5.5 -22.5l-47 -261q-15 -84 -63.5 -133t-154.5 -49q-84 0 -114 46l-36 -206q-2 -14 -13 -23t-24 -9q-14 0 -21.5 9.5t-5.5 22.5l106 603q2 13 13 22.5
t25 9.5q13 0 21 -9.5t6 -22.5z" />
    <glyph glyph-name="paragraph" unicode="&#xb6;" horiz-adv-x="513" 
d="M578 648q0 -15 -10.5 -25t-24.5 -10h-28l-55 -314q-29 -165 -115 -248.5t-224 -83.5q-43 0 -61 10q-18 9 -18 28q0 13 9 22t22 9q5 0 17 -4q16 -5 41 -5q53 0 90.5 46.5t50.5 122.5l27 152h-33q-59 0 -97 40t-38 99q0 74 59 130t133 56h230q11 0 18 -7t7 -18zM451 613
h-41l-71 -402q-11 -62 -32 -99t-64 -73q62 24 98 89t55 171z" />
    <glyph glyph-name="periodcentered" unicode="&#xb7;" horiz-adv-x="164" 
d="M126 253q-40 0 -40 34q0 28 15.5 44.5t41.5 16.5q40 0 40 -34q0 -28 -15.5 -44.5t-41.5 -16.5z" />
    <glyph glyph-name="cedilla" unicode="&#xb8;" horiz-adv-x="315" 
d="M222 -121q0 -103 -110 -103q-41 0 -63 17q-8 6 -8 16q0 7 5.5 13t13.5 6q5 0 11 -3q18 -10 43 -10q34 0 48.5 12.5t14.5 45.5q0 34 -37 34q-9 0 -23 -2t-19 -2q-15 0 -15 15q0 2 2 12l15 70h35l-15 -59q18 2 27 2q75 0 75 -64z" />
    <glyph glyph-name="onesuperior" unicode="&#xb9;" horiz-adv-x="196" 
d="M215 654l-31 -19q-11 -7 -19 -7q-11 0 -18 7t-7 18q0 15 14 23l83 46q8 5 16 5q10 0 17 -7.5t5 -18.5l-45 -253q-1 -10 -10 -18t-20 -8q-10 0 -17 7.5t-5 18.5z" />
    <glyph glyph-name="ordmasculine" unicode="&#xba;" horiz-adv-x="348" 
d="M245 400q59 0 91.5 41t32.5 116q0 91 -80 91q-59 0 -91.5 -41t-32.5 -116q0 -91 80 -91zM381 290q0 -8 -7.5 -14.5t-15.5 -6.5h-272q-7 0 -11.5 5t-4.5 12q0 8 7.5 14.5t15.5 6.5h272q7 0 11.5 -5t4.5 -12zM296 687q118 0 118 -123q0 -97 -46 -150t-130 -53
q-119 0 -119 123q0 97 46.5 150t130.5 53z" />
    <glyph glyph-name="guillemotright" unicode="&#xbb;" horiz-adv-x="522" 
d="M482 216q0 -11 -11 -22l-194 -192q-9 -9 -19 -9q-9 0 -16 7t-7 17q0 9 10 19l186 180l-121 178q-4 7 -4 14q0 9 7 16t17 7q12 0 18 -9l129 -191q5 -8 5 -15zM328 216q0 -11 -11 -22l-194 -192q-9 -9 -19 -9q-9 0 -16 7t-7 17q0 9 10 19l186 180l-121 178q-4 7 -4 14
q0 9 7 16t17 7q12 0 18 -9l129 -191q5 -8 5 -15z" />
    <glyph glyph-name="onequarter" unicode="&#xbc;" horiz-adv-x="492" 
d="M94 33l356 632q9 16 25 16q11 0 19 -8t8 -19q0 -6 -4 -14l-356 -632q-10 -16 -25 -16q-11 0 -19 8t-8 19q0 7 4 14zM207 611l-31 -19q-11 -7 -19 -7q-11 0 -18 7.5t-7 17.5q0 15 14 23l83 46q8 5 16 5q10 0 17 -7.5t5 -18.5l-45 -253q-1 -10 -10 -18t-20 -8
q-10 0 -17 7.5t-5 18.5zM443 107h16q8 0 14 -6t6 -15q0 -10 -9 -18.5t-20 -8.5h-16l-7 -41q-4 -26 -31 -26q-10 0 -16.5 7.5t-4.5 18.5l7 41h-111q-9 0 -15 6t-6 15q0 8 9 19l166 186q12 12 24 12q11 0 18 -7.5t5 -18.5zM324 107h67l17 96z" />
    <glyph glyph-name="onehalf" unicode="&#xbd;" horiz-adv-x="527" 
d="M94 33l356 632q9 16 25 16q11 0 19 -8t8 -19q0 -6 -4 -14l-356 -632q-10 -16 -25 -16q-11 0 -19 8t-8 19q0 7 4 14zM207 611l-31 -19q-11 -7 -19 -7q-11 0 -18 7.5t-7 17.5q0 15 14 23l83 46q8 5 16 5q10 0 17 -7.5t5 -18.5l-45 -253q-1 -10 -10 -18t-20 -8
q-10 0 -17 7.5t-5 18.5zM341 255q29 50 106 50q42 0 68 -20t26 -55q0 -39 -30.5 -69.5t-66.5 -45t-66.5 -32.5t-30.5 -35h137q8 0 14 -6t6 -15q0 -11 -8.5 -19t-20.5 -8h-167q-8 0 -14 6t-6 15q0 35 20.5 61t50 41.5t59 28.5t50 30.5t20.5 39.5q0 36 -49 36q-35 0 -59 -29
q-8 -10 -20 -10q-10 0 -16.5 6.5t-6.5 16.5q0 6 4 13z" />
    <glyph glyph-name="threequarters" unicode="&#xbe;" horiz-adv-x="579" 
d="M335 638l-80 -70q35 0 55 -22t20 -53q0 -52 -32.5 -84.5t-98.5 -32.5q-39 0 -63 18.5t-32 42.5q-2 6 -2 11q0 10 6.5 16.5t16.5 6.5q15 0 21 -13q18 -34 57 -34q73 0 73 61q0 39 -52 39h-22q-20 0 -20 21q0 11 9 19l73 67h-92q-21 0 -21 21q0 12 8 20.5t21 8.5h144
q21 0 21 -21q0 -14 -10 -22zM150 33l356 632q9 16 25 16q11 0 19 -8t8 -19q0 -6 -4 -14l-356 -632q-10 -16 -25 -16q-11 0 -19 8t-8 19q0 7 4 14zM499 107h16q8 0 14 -6t6 -15q0 -10 -9 -18.5t-20 -8.5h-16l-7 -41q-4 -26 -31 -26q-10 0 -16.5 7.5t-4.5 18.5l7 41h-111
q-9 0 -15 6t-6 15q0 8 9 19l166 186q12 12 24 12q11 0 18 -7.5t5 -18.5zM380 107h67l17 96z" />
    <glyph glyph-name="questiondown" unicode="&#xbf;" horiz-adv-x="461" 
d="M326 300q22 -27 22 -63q0 -44 -27 -76.5t-65.5 -53.5t-77 -42.5t-65.5 -57.5t-27 -85q0 -44 30.5 -67t86.5 -23q130 0 150 120q2 14 12 23.5t26 9.5q13 0 21 -8.5t7 -20.5q-4 -80 -61.5 -131.5t-164.5 -51.5q-82 0 -127 36.5t-45 102.5q0 52 19 93t48 65t62.5 45.5
t62.5 35.5t48 33.5t19 42.5q0 16 -8 34q-4 9 -4 18q0 13 10 23t23 10q15 0 25 -12zM338 468q40 0 40 -34q0 -28 -15.5 -44.5t-41.5 -16.5q-40 0 -40 34q0 28 15.5 44.5t41.5 16.5z" />
    <glyph glyph-name="Agrave" unicode="&#xc0;" horiz-adv-x="613" 
d="M471 261l-65 306l-172 -306h237zM481 199h-279l-106 -183q-13 -24 -34 -24q-14 0 -24 10t-10 24q0 10 6 20l356 612q13 23 35 23q24 0 30 -23l134 -617q2 -10 2 -14q0 -15 -9.5 -25t-26.5 -10q-27 0 -32 23zM494 724q-14 -14 -31 2l-112 95q-21 19 -2 39q20 22 39 3
l104 -108q16 -17 2 -31z" />
    <glyph glyph-name="Aacute" unicode="&#xc1;" horiz-adv-x="613" 
d="M471 261l-65 306l-172 -306h237zM481 199h-279l-106 -183q-13 -24 -34 -24q-14 0 -24 10t-10 24q0 10 6 20l356 612q13 23 35 23q24 0 30 -23l134 -617q2 -10 2 -14q0 -15 -9.5 -25t-26.5 -10q-27 0 -32 23zM382 724q-14 14 2 31l104 108q19 19 39 -3q19 -20 -2 -39
l-112 -95q-17 -16 -31 -2z" />
    <glyph glyph-name="Acircumflex" unicode="&#xc2;" horiz-adv-x="613" 
d="M471 261l-65 306l-172 -306h237zM481 199h-279l-106 -183q-13 -24 -34 -24q-14 0 -24 10t-10 24q0 10 6 20l356 612q13 23 35 23q24 0 30 -23l134 -617q2 -10 2 -14q0 -15 -9.5 -25t-26.5 -10q-27 0 -32 23zM518 726l-67 67l-95 -68q-8 -6 -16 -6q-10 0 -17 7t-7 17
q0 12 11 20l112 78q8 6 17 6t16 -7l81 -81q6 -6 6 -16t-7 -17t-17 -7t-17 7z" />
    <glyph glyph-name="Atilde" unicode="&#xc3;" horiz-adv-x="613" 
d="M471 261l-65 306l-172 -306h237zM481 199h-279l-106 -183q-13 -24 -34 -24q-14 0 -24 10t-10 24q0 10 6 20l356 612q13 23 35 23q24 0 30 -23l134 -617q2 -10 2 -14q0 -15 -9.5 -25t-26.5 -10q-27 0 -32 23zM393 819q25 0 57.5 -19.5t52.5 -19.5q27 0 51 30q7 9 19 9
q10 0 17 -7t7 -17q0 -7 -5 -15q-34 -49 -97 -49q-26 0 -58 19.5t-52 19.5q-21 0 -51 -30q-9 -9 -19 -9t-17 7t-7 17q0 9 6 16q38 48 96 48z" />
    <glyph glyph-name="Adieresis" unicode="&#xc4;" horiz-adv-x="613" 
d="M471 261l-65 306l-172 -306h237zM481 199h-279l-106 -183q-13 -24 -34 -24q-14 0 -24 10t-10 24q0 10 6 20l356 612q13 23 35 23q24 0 30 -23l134 -617q2 -10 2 -14q0 -15 -9.5 -25t-26.5 -10q-27 0 -32 23zM358 741q-30 0 -30 28q0 47 43 47q31 0 31 -29q0 -46 -44 -46z
M515 741q-30 0 -30 28q0 47 43 47q31 0 31 -29q0 -46 -44 -46z" />
    <glyph glyph-name="Aring" unicode="&#xc5;" horiz-adv-x="613" 
d="M471 261l-65 306l-172 -306h237zM481 199h-279l-106 -183q-13 -24 -34 -24q-14 0 -24 10t-10 24q0 10 6 20l356 612q13 23 35 23q24 0 30 -23l134 -617q2 -10 2 -14q0 -15 -9.5 -25t-26.5 -10q-27 0 -32 23zM430 703q-43 0 -66 20.5t-23 57.5q0 54 31.5 86t92.5 32
q43 0 66 -20.5t23 -57.5q0 -54 -31.5 -86t-92.5 -32zM458 861q-74 0 -74 -75q0 -45 53 -45q74 0 74 75q0 45 -53 45z" />
    <glyph glyph-name="AE" unicode="&#xc6;" horiz-adv-x="841" 
d="M769 0h-332q-14 0 -22 10t-6 24l29 165h-212l-149 -191q-12 -16 -32 -16q-13 0 -22.5 9.5t-9.5 22.5q0 14 11 26l494 607q13 16 31 16h327q12 0 19 -7.5t7 -19.5q0 -14 -11.5 -24.5t-25.5 -10.5h-287l-42 -241h220q11 0 18.5 -8t7.5 -19q0 -14 -11.5 -24.5t-25.5 -10.5
h-220l-43 -246h298q11 0 18.5 -8t7.5 -19q0 -14 -11.5 -24.5t-25.5 -10.5zM274 261h175l49 280z" />
    <glyph glyph-name="Ccedilla" unicode="&#xc7;" horiz-adv-x="631" 
d="M419 -121q0 -103 -110 -103q-41 0 -63 17q-8 6 -8 16q0 7 6 13t13 6q5 0 11 -3q18 -10 43 -10q34 0 48.5 12.5t14.5 45.5q0 34 -37 34q-9 0 -23 -2t-19 -2q-15 0 -15 15q0 2 2 12l13 60q-202 27 -202 253q0 211 101.5 327.5t278.5 116.5q72 0 127 -30.5t83 -80.5
q4 -7 4 -16q0 -14 -9.5 -23t-22.5 -9q-18 0 -26 13q-54 84 -165 84q-141 0 -220.5 -98.5t-79.5 -274.5q0 -108 50 -156t150 -48q111 0 186 82q12 13 26 13t23 -9.5t9 -22.5t-10 -24q-40 -47 -107 -74t-138 -27q-15 0 -25 1l-11 -46q18 2 27 2q75 0 75 -64z" />
    <glyph glyph-name="Egrave" unicode="&#xc8;" 
d="M446 0h-332q-14 0 -22 10t-6 24l107 605q2 14 14 24t26 10h321q11 0 18.5 -8t7.5 -19q0 -14 -11.5 -24.5t-25.5 -10.5h-287l-42 -241h220q11 0 18.5 -8t7.5 -19q0 -14 -11.5 -24.5t-25.5 -10.5h-220l-44 -246h298q11 0 18.5 -8t7.5 -19q0 -14 -11.5 -24.5t-25.5 -10.5z
M473 724q-14 -14 -31 2l-112 95q-21 19 -2 39q20 22 39 3l104 -108q17 -17 2 -31z" />
    <glyph glyph-name="Eacute" unicode="&#xc9;" 
d="M446 0h-332q-14 0 -22 10t-6 24l107 605q2 14 14 24t26 10h321q11 0 18.5 -8t7.5 -19q0 -14 -11.5 -24.5t-25.5 -10.5h-287l-42 -241h220q11 0 18.5 -8t7.5 -19q0 -14 -11.5 -24.5t-25.5 -10.5h-220l-44 -246h298q11 0 18.5 -8t7.5 -19q0 -14 -11.5 -24.5t-25.5 -10.5z
M355 724q-15 14 2 31l104 108q19 19 39 -3q19 -20 -2 -39l-112 -95q-17 -16 -31 -2z" />
    <glyph glyph-name="Ecircumflex" unicode="&#xca;" 
d="M446 0h-332q-14 0 -22 10t-6 24l107 605q2 14 14 24t26 10h321q11 0 18.5 -8t7.5 -19q0 -14 -11.5 -24.5t-25.5 -10.5h-287l-42 -241h220q11 0 18.5 -8t7.5 -19q0 -14 -11.5 -24.5t-25.5 -10.5h-220l-44 -246h298q11 0 18.5 -8t7.5 -19q0 -14 -11.5 -24.5t-25.5 -10.5z
M493 726l-67 67l-95 -68q-8 -6 -16 -6q-10 0 -17 7t-7 17q0 12 11 20l112 78q8 6 17 6t16 -7l81 -81q6 -6 6 -16t-7 -17t-17 -7t-17 7z" />
    <glyph glyph-name="Edieresis" unicode="&#xcb;" 
d="M446 0h-332q-14 0 -22 10t-6 24l107 605q2 14 14 24t26 10h321q11 0 18.5 -8t7.5 -19q0 -14 -11.5 -24.5t-25.5 -10.5h-287l-42 -241h220q11 0 18.5 -8t7.5 -19q0 -14 -11.5 -24.5t-25.5 -10.5h-220l-44 -246h298q11 0 18.5 -8t7.5 -19q0 -14 -11.5 -24.5t-25.5 -10.5z
M330 741q-30 0 -30 28q0 47 43 47q31 0 31 -29q0 -46 -44 -46zM487 741q-30 0 -30 28q0 47 43 47q31 0 31 -29q0 -46 -44 -46z" />
    <glyph glyph-name="Igrave" unicode="&#xcc;" horiz-adv-x="228" 
d="M262 647l-110 -621q-2 -14 -13.5 -24t-26.5 -10t-22.5 10t-5.5 24l110 621q2 14 13.5 24t26.5 10t22.5 -10t5.5 -24zM302 724q-14 -14 -31 2l-112 95q-21 19 -2 39q20 22 39 3l104 -108q16 -17 2 -31z" />
    <glyph glyph-name="Iacute" unicode="&#xcd;" horiz-adv-x="228" 
d="M262 647l-110 -621q-2 -14 -13.5 -24t-26.5 -10t-22.5 10t-5.5 24l110 621q2 14 13.5 24t26.5 10t22.5 -10t5.5 -24zM190 724q-14 14 2 31l104 108q19 19 39 -3q19 -20 -2 -39l-112 -95q-17 -16 -31 -2z" />
    <glyph glyph-name="Icircumflex" unicode="&#xce;" horiz-adv-x="228" 
d="M262 647l-110 -621q-2 -14 -13.5 -24t-26.5 -10t-22.5 10t-5.5 24l110 621q2 14 13.5 24t26.5 10t22.5 -10t5.5 -24zM327 726l-67 67l-95 -68q-8 -6 -16 -6q-10 0 -17 7t-7 17q0 12 11 20l112 78q8 6 17 6t16 -7l81 -81q6 -6 6 -16t-7 -17t-17 -7t-17 7z" />
    <glyph glyph-name="Idieresis" unicode="&#xcf;" horiz-adv-x="228" 
d="M262 647l-110 -621q-2 -14 -13.5 -24t-26.5 -10t-22.5 10t-5.5 24l110 621q2 14 13.5 24t26.5 10t22.5 -10t5.5 -24zM166 741q-30 0 -30 28q0 47 43 47q31 0 31 -29q0 -46 -44 -46zM323 741q-30 0 -30 28q0 47 43 47q31 0 31 -29q0 -46 -44 -46z" />
    <glyph glyph-name="Eth" unicode="&#xd0;" horiz-adv-x="608" 
d="M233 673h141q260 0 260 -252q0 -203 -100 -312t-279 -109h-141q-14 0 -22 10t-6 24l50 283h-31q-11 0 -18.5 8t-7.5 19q0 14 11.5 24.5t25.5 10.5h31l46 260q2 14 14 24t26 10zM256 611l-41 -232h193q11 0 19 -8t8 -19q0 -14 -11.5 -24.5t-26.5 -10.5h-193l-45 -255h107
q141 0 219 88t78 260q0 107 -51 154t-149 47h-107z" />
    <glyph glyph-name="Ntilde" unicode="&#xd1;" horiz-adv-x="620" 
d="M637 681q13 0 21 -9.5t6 -23.5l-110 -622q-2 -14 -14 -24t-26 -10q-17 0 -25 14l-255 548l-94 -529q-2 -14 -13 -23.5t-26 -9.5q-14 0 -21.5 9.5t-5.5 23.5l110 623q6 33 37 33q19 0 27 -16l259 -546l91 529q2 14 13 23.5t26 9.5zM402 819q26 0 58 -19.5t52 -19.5
q27 0 51 30q7 9 19 9q10 0 17 -7t7 -17q0 -7 -5 -15q-34 -49 -97 -49q-26 0 -58 19.5t-52 19.5q-21 0 -51 -30q-9 -9 -19 -9t-17 7t-7 17q0 9 6 16q38 48 96 48z" />
    <glyph glyph-name="Ograve" unicode="&#xd2;" horiz-adv-x="712" 
d="M354 -14q-260 0 -260 257q0 207 103 325.5t280 118.5q260 0 260 -257q0 -207 -103 -325.5t-280 -118.5zM466 625q-141 0 -221 -99.5t-80 -273.5q0 -204 200 -204q141 0 221 99.5t80 273.5q0 204 -200 204zM556 724q-14 -14 -31 2l-112 95q-21 19 -2 39q20 22 39 3
l104 -108q16 -17 2 -31z" />
    <glyph glyph-name="Oacute" unicode="&#xd3;" horiz-adv-x="712" 
d="M354 -14q-260 0 -260 257q0 207 103 325.5t280 118.5q260 0 260 -257q0 -207 -103 -325.5t-280 -118.5zM466 625q-141 0 -221 -99.5t-80 -273.5q0 -204 200 -204q141 0 221 99.5t80 273.5q0 204 -200 204zM429 724q-15 14 2 31l104 108q19 19 39 -3q19 -20 -2 -39
l-112 -95q-17 -16 -31 -2z" />
    <glyph glyph-name="Ocircumflex" unicode="&#xd4;" horiz-adv-x="712" 
d="M354 -14q-260 0 -260 257q0 207 103 325.5t280 118.5q260 0 260 -257q0 -207 -103 -325.5t-280 -118.5zM466 625q-141 0 -221 -99.5t-80 -273.5q0 -204 200 -204q141 0 221 99.5t80 273.5q0 204 -200 204zM571 726l-67 67l-95 -68q-8 -6 -16 -6q-10 0 -17 7t-7 17
q0 12 11 20l112 78q8 6 17 6t16 -7l81 -81q6 -6 6 -16t-7 -17t-17 -7t-17 7z" />
    <glyph glyph-name="Otilde" unicode="&#xd5;" horiz-adv-x="712" 
d="M354 -14q-260 0 -260 257q0 207 103 325.5t280 118.5q260 0 260 -257q0 -207 -103 -325.5t-280 -118.5zM466 625q-141 0 -221 -99.5t-80 -273.5q0 -204 200 -204q141 0 221 99.5t80 273.5q0 204 -200 204zM442 819q26 0 58 -19.5t52 -19.5q27 0 51 30q7 9 19 9
q10 0 17 -7t7 -17q0 -7 -5 -15q-34 -49 -97 -49q-26 0 -58 19.5t-52 19.5q-21 0 -51 -30q-9 -9 -19 -9t-17 7t-7 17q0 9 6 16q38 48 96 48z" />
    <glyph glyph-name="Odieresis" unicode="&#xd6;" horiz-adv-x="712" 
d="M354 -14q-260 0 -260 257q0 207 103 325.5t280 118.5q260 0 260 -257q0 -207 -103 -325.5t-280 -118.5zM466 625q-141 0 -221 -99.5t-80 -273.5q0 -204 200 -204q141 0 221 99.5t80 273.5q0 204 -200 204zM408 741q-30 0 -30 28q0 47 43 47q31 0 31 -29q0 -46 -44 -46z
M565 741q-30 0 -30 28q0 47 43 47q31 0 31 -29q0 -46 -44 -46z" />
    <glyph glyph-name="multiply" unicode="&#xd7;" horiz-adv-x="354" 
d="M221 258l148 125q10 9 21 9t19.5 -8.5t8.5 -19.5q0 -13 -11 -22l-155 -125l109 -128q6 -8 6 -17q0 -11 -8.5 -19.5t-19.5 -8.5q-12 0 -21 10l-106 128l-151 -129q-10 -9 -21 -9t-19.5 8.5t-8.5 19.5q0 12 11 22l156 128l-110 126q-5 7 -5 16q0 11 8.5 19.5t19.5 8.5
q12 0 21 -10z" />
    <glyph glyph-name="Oslash" unicode="&#xd8;" horiz-adv-x="712" 
d="M354 -14q-122 0 -186 55l-55 -57q-10 -10 -21 -10q-10 0 -18 8t-8 18q0 11 8 19l60 62q-40 62 -40 162q0 207 103 325.5t280 118.5q123 0 187 -57l54 56q10 10 21 10t18.5 -8t7.5 -18t-8 -19l-59 -61q39 -62 39 -160q0 -207 -103 -325.5t-280 -118.5zM466 625
q-141 0 -221 -99.5t-80 -273.5q0 -69 23 -115l425 440q-49 48 -147 48zM666 421q0 66 -22 113l-425 -440q49 -46 146 -46q141 0 221 99.5t80 273.5z" />
    <glyph glyph-name="Ugrave" unicode="&#xd9;" horiz-adv-x="624" 
d="M313 -14q-103 0 -152.5 45.5t-49.5 117.5q0 24 5 56l78 442q2 14 13.5 24t26.5 10t22.5 -10t5.5 -24l-78 -442q-4 -23 -4 -42q0 -113 144 -113q166 0 193 155l78 442q2 14 13.5 24t26.5 10t22.5 -10t5.5 -24l-78 -442q-8 -46 -23.5 -81.5t-45 -68.5t-81 -51t-122.5 -18z
M511 724q-14 -14 -31 2l-112 95q-21 19 -2 39q20 22 39 3l104 -108q17 -17 2 -31z" />
    <glyph glyph-name="Uacute" unicode="&#xda;" horiz-adv-x="624" 
d="M313 -14q-103 0 -152.5 45.5t-49.5 117.5q0 24 5 56l78 442q2 14 13.5 24t26.5 10t22.5 -10t5.5 -24l-78 -442q-4 -23 -4 -42q0 -113 144 -113q166 0 193 155l78 442q2 14 13.5 24t26.5 10t22.5 -10t5.5 -24l-78 -442q-8 -46 -23.5 -81.5t-45 -68.5t-81 -51t-122.5 -18z
M396 724q-14 14 2 31l104 108q19 19 39 -3q19 -20 -2 -39l-112 -95q-17 -16 -31 -2z" />
    <glyph glyph-name="Ucircumflex" unicode="&#xdb;" horiz-adv-x="624" 
d="M313 -14q-103 0 -152.5 45.5t-49.5 117.5q0 24 5 56l78 442q2 14 13.5 24t26.5 10t22.5 -10t5.5 -24l-78 -442q-4 -23 -4 -42q0 -113 144 -113q166 0 193 155l78 442q2 14 13.5 24t26.5 10t22.5 -10t5.5 -24l-78 -442q-8 -46 -23.5 -81.5t-45 -68.5t-81 -51t-122.5 -18z
M527 726l-67 67l-95 -68q-8 -6 -16 -6q-10 0 -17 7t-7 17q0 12 11 20l112 78q8 6 17 6t16 -7l81 -81q6 -6 6 -16t-7 -17t-17 -7t-17 7z" />
    <glyph glyph-name="Udieresis" unicode="&#xdc;" horiz-adv-x="624" 
d="M313 -14q-103 0 -152.5 45.5t-49.5 117.5q0 24 5 56l78 442q2 14 13.5 24t26.5 10t22.5 -10t5.5 -24l-78 -442q-4 -23 -4 -42q0 -113 144 -113q166 0 193 155l78 442q2 14 13.5 24t26.5 10t22.5 -10t5.5 -24l-78 -442q-8 -46 -23.5 -81.5t-45 -68.5t-81 -51t-122.5 -18z
M366 741q-30 0 -30 28q0 47 43 47q31 0 31 -29q0 -46 -44 -46zM523 741q-30 0 -30 28q0 47 43 47q31 0 31 -29q0 -46 -44 -46z" />
    <glyph glyph-name="Yacute" unicode="&#xdd;" 
d="M258 -8q-15 0 -22.5 10t-5.5 24l51 287l-145 320q-3 6 -3 14q0 14 10 24t24 10q21 0 30 -19l129 -281l226 286q11 14 28 14q14 0 24 -10t10 -24q0 -12 -8 -22l-257 -312l-51 -287q-2 -14 -13.5 -24t-26.5 -10zM344 724q-14 14 2 31l104 108q19 19 39 -3q19 -20 -2 -39
l-112 -95q-17 -16 -31 -2z" />
    <glyph glyph-name="Thorn" unicode="&#xde;" horiz-adv-x="544" 
d="M175 154l-23 -128q-2 -14 -14 -24t-26 -10t-22 10t-6 24l110 621q2 14 14 24t26 10t22 -10t6 -24l-18 -102h160q72 0 118.5 -41.5t46.5 -114.5q0 -112 -63 -173.5t-166 -61.5h-165zM233 483l-47 -267h155q73 0 116 41.5t43 119.5q0 52 -29.5 79t-82.5 27h-155z" />
    <glyph glyph-name="germandbls" unicode="&#xdf;" horiz-adv-x="553" 
d="M375 685q57 0 95 -32.5t38 -81.5q0 -39 -19.5 -69.5t-47 -49.5t-54.5 -35t-46.5 -36t-19.5 -43q0 -25 23.5 -42t56.5 -29t66 -26t56.5 -40t23.5 -63q0 -73 -52 -111.5t-135 -38.5q-57 0 -103 22t-63 50q-5 8 -5 16q0 14 9.5 23t22.5 9q14 0 23 -10q46 -49 119 -49
q51 0 85 19.5t34 59.5q0 24 -23.5 41t-56.5 28.5t-66 25t-56.5 40t-23.5 64.5q0 37 19.5 64.5t47 45t55 33.5t47 39t19.5 53q0 26 -22 44.5t-58 18.5q-106 0 -125 -112l-94 -539q-14 -80 -68 -127.5t-144 -47.5q-11 0 -18 7t-7 18q0 15 10 24.5t25 9.5q58 0 93 32t45 88
l73 416h-34q-11 0 -18 7t-7 18q0 15 10.5 25t25.5 10h34l10 60q13 75 61.5 123t138.5 48z" />
    <glyph glyph-name="agrave" unicode="&#xe0;" horiz-adv-x="513" 
d="M401 88q-55 -101 -169 -101q-79 0 -121 46t-42 123q0 137 74.5 224.5t191.5 87.5q75 0 124 -43l1 5q7 32 37 32q15 0 22 -9.5t5 -22.5l-72 -406q-2 -14 -12.5 -23t-24.5 -9t-21 9t-5 23zM133 166q0 -54 26.5 -87.5t82.5 -33.5q77 0 124.5 60t62.5 147l19 113
q-47 47 -118 47q-84 0 -140.5 -69t-56.5 -177zM443 520q-14 -14 -31 2l-112 95q-21 19 -2 39q20 22 39 3l104 -108q17 -17 2 -31z" />
    <glyph glyph-name="aacute" unicode="&#xe1;" horiz-adv-x="513" 
d="M401 88q-55 -101 -169 -101q-79 0 -121 46t-42 123q0 137 74.5 224.5t191.5 87.5q75 0 124 -43l1 5q7 32 37 32q15 0 22 -9.5t5 -22.5l-72 -406q-2 -14 -12.5 -23t-24.5 -9t-21 9t-5 23zM133 166q0 -54 26.5 -87.5t82.5 -33.5q77 0 124.5 60t62.5 147l19 113
q-47 47 -118 47q-84 0 -140.5 -69t-56.5 -177zM313 520q-15 14 2 31l104 108q19 19 39 -3q19 -20 -2 -39l-112 -95q-17 -16 -31 -2z" />
    <glyph glyph-name="acircumflex" unicode="&#xe2;" horiz-adv-x="513" 
d="M401 88q-55 -101 -169 -101q-79 0 -121 46t-42 123q0 137 74.5 224.5t191.5 87.5q75 0 124 -43l1 5q7 32 37 32q15 0 22 -9.5t5 -22.5l-72 -406q-2 -14 -12.5 -23t-24.5 -9t-21 9t-5 23zM133 166q0 -54 26.5 -87.5t82.5 -33.5q77 0 124.5 60t62.5 147l19 113
q-47 47 -118 47q-84 0 -140.5 -69t-56.5 -177zM448 529l-67 67l-95 -68q-8 -6 -16 -6q-10 0 -17 7t-7 17q0 12 11 20l112 78q8 6 17 6t16 -7l81 -81q6 -6 6 -16t-7 -17t-17 -7t-17 7z" />
    <glyph glyph-name="atilde" unicode="&#xe3;" horiz-adv-x="513" 
d="M401 88q-55 -101 -169 -101q-79 0 -121 46t-42 123q0 137 74.5 224.5t191.5 87.5q75 0 124 -43l1 5q7 32 37 32q15 0 22 -9.5t5 -22.5l-72 -406q-2 -14 -12.5 -23t-24.5 -9t-21 9t-5 23zM133 166q0 -54 26.5 -87.5t82.5 -33.5q77 0 124.5 60t62.5 147l19 113
q-47 47 -118 47q-84 0 -140.5 -69t-56.5 -177zM299 617q25 0 58 -19.5t52 -19.5q27 0 51 30q7 9 19 9q10 0 17 -7t7 -17q0 -7 -5 -15q-34 -49 -97 -49q-26 0 -58 19.5t-52 19.5q-21 0 -51 -30q-9 -9 -19 -9t-17 7t-7 17q0 9 6 16q38 48 96 48z" />
    <glyph glyph-name="adieresis" unicode="&#xe4;" horiz-adv-x="513" 
d="M401 88q-55 -101 -169 -101q-79 0 -121 46t-42 123q0 137 74.5 224.5t191.5 87.5q75 0 124 -43l1 5q7 32 37 32q15 0 22 -9.5t5 -22.5l-72 -406q-2 -14 -12.5 -23t-24.5 -9t-21 9t-5 23zM133 166q0 -54 26.5 -87.5t82.5 -33.5q77 0 124.5 60t62.5 147l19 113
q-47 47 -118 47q-84 0 -140.5 -69t-56.5 -177zM267 534q-30 0 -30 28q0 47 43 47q31 0 31 -29q0 -46 -44 -46zM424 534q-30 0 -30 28q0 47 43 47q31 0 31 -29q0 -46 -44 -46z" />
    <glyph glyph-name="aring" unicode="&#xe5;" horiz-adv-x="513" 
d="M401 88q-55 -101 -169 -101q-79 0 -121 46t-42 123q0 137 74.5 224.5t191.5 87.5q75 0 124 -43l1 5q7 32 37 32q15 0 22 -9.5t5 -22.5l-72 -406q-2 -14 -12.5 -23t-24.5 -9t-21 9t-5 23zM133 166q0 -54 26.5 -87.5t82.5 -33.5q77 0 124.5 60t62.5 147l19 113
q-47 47 -118 47q-84 0 -140.5 -69t-56.5 -177zM349 502q-43 0 -66 20.5t-23 57.5q0 54 31.5 86t92.5 32q43 0 66 -20.5t23 -57.5q0 -54 -31.5 -86t-92.5 -32zM377 660q-74 0 -74 -75q0 -45 53 -45q74 0 74 75q0 45 -53 45z" />
    <glyph glyph-name="ae" unicode="&#xe6;" horiz-adv-x="809" 
d="M592 -13q-146 0 -170 121q-23 -53 -72.5 -87t-117.5 -34q-79 0 -121 46t-42 123q0 137 74.5 224.5t191.5 87.5q101 0 168 -69q69 69 177 69q71 0 109 -31t38 -78q0 -162 -343 -162q-3 -15 -3 -31q0 -66 30 -93t93 -27t122 42q10 7 19 7q12 0 20.5 -8t8.5 -20
q0 -13 -15 -26q-65 -54 -167 -54zM133 166q0 -54 26.5 -87.5t82.5 -33.5q68 0 112.5 47t65.5 120q9 81 47 142q-22 25 -59 41.5t-78 16.5q-84 0 -140.5 -69t-56.5 -177zM491 248q136 0 204 27.5t68 76.5q0 24 -23 41t-70 17q-71 0 -118.5 -46.5t-60.5 -115.5z" />
    <glyph glyph-name="ccedilla" unicode="&#xe7;" horiz-adv-x="441" 
d="M321 -121q0 -103 -110 -103q-41 0 -63 17q-8 6 -8 16q0 7 6 13t13 6q5 0 11 -3q18 -10 43 -10q34 0 48.5 12.5t14.5 45.5q0 34 -37 34q-9 0 -23 -2t-19 -2q-15 0 -15 15q0 2 2 12l13 60q-128 20 -128 179q0 135 67 217t188 82q40 0 72.5 -15t46.5 -29t22 -29q4 -7 4 -15
q0 -12 -8 -20.5t-20 -8.5q-13 0 -24 12q-12 14 -20.5 21.5t-31.5 16.5t-52 9q-88 0 -133.5 -65.5t-45.5 -167.5q0 -69 28.5 -100.5t85.5 -31.5q60 0 121 42q11 7 20 7q11 0 19.5 -8t8.5 -20q0 -17 -18 -30q-69 -49 -161 -49h-8l-11 -46q18 2 27 2q75 0 75 -64z" />
    <glyph glyph-name="egrave" unicode="&#xe8;" horiz-adv-x="461" 
d="M69 158q0 139 71 224.5t192 85.5q71 0 109 -31t38 -78q0 -162 -343 -162q-3 -15 -3 -31q0 -66 30 -93t93 -27t122 42q10 7 19 7q12 0 20.5 -8t8.5 -20q0 -13 -15 -26q-65 -54 -167 -54q-84 0 -129.5 43t-45.5 128zM143 249q272 0 272 103q0 24 -23 41t-70 17
q-71 0 -118.5 -46t-60.5 -115zM425 520q-14 -14 -31 2l-112 95q-21 19 -2 39q20 22 39 3l104 -108q17 -17 2 -31z" />
    <glyph glyph-name="eacute" unicode="&#xe9;" horiz-adv-x="461" 
d="M69 158q0 139 71 224.5t192 85.5q71 0 109 -31t38 -78q0 -162 -343 -162q-3 -15 -3 -31q0 -66 30 -93t93 -27t122 42q10 7 19 7q12 0 20.5 -8t8.5 -20q0 -13 -15 -26q-65 -54 -167 -54q-84 0 -129.5 43t-45.5 128zM143 249q272 0 272 103q0 24 -23 41t-70 17
q-71 0 -118.5 -46t-60.5 -115zM256 520q-14 14 2 31l104 108q19 19 39 -3q19 -20 -2 -39l-112 -95q-17 -16 -31 -2z" />
    <glyph glyph-name="ecircumflex" unicode="&#xea;" horiz-adv-x="461" 
d="M69 158q0 139 71 224.5t192 85.5q71 0 109 -31t38 -78q0 -162 -343 -162q-3 -15 -3 -31q0 -66 30 -93t93 -27t122 42q10 7 19 7q12 0 20.5 -8t8.5 -20q0 -13 -15 -26q-65 -54 -167 -54q-84 0 -129.5 43t-45.5 128zM143 249q272 0 272 103q0 24 -23 41t-70 17
q-71 0 -118.5 -46t-60.5 -115zM425 529l-67 67l-95 -68q-8 -6 -16 -6q-10 0 -17 7t-7 17q0 12 11 20l112 78q8 6 17 6t16 -7l81 -81q6 -6 6 -16t-7 -17t-17 -7t-17 7z" />
    <glyph glyph-name="edieresis" unicode="&#xeb;" horiz-adv-x="461" 
d="M69 158q0 139 71 224.5t192 85.5q71 0 109 -31t38 -78q0 -162 -343 -162q-3 -15 -3 -31q0 -66 30 -93t93 -27t122 42q10 7 19 7q12 0 20.5 -8t8.5 -20q0 -13 -15 -26q-65 -54 -167 -54q-84 0 -129.5 43t-45.5 128zM143 249q272 0 272 103q0 24 -23 41t-70 17
q-71 0 -118.5 -46t-60.5 -115zM270 534q-30 0 -30 28q0 47 43 47q31 0 31 -29q0 -46 -44 -46zM427 534q-30 0 -30 28q0 47 43 47q31 0 31 -29q0 -46 -44 -46z" />
    <glyph glyph-name="igrave" unicode="&#xec;" horiz-adv-x="193" 
d="M204 430l-72 -406q-2 -14 -13 -23t-24 -9q-14 0 -21.5 9.5t-5.5 22.5l72 406q2 14 13 23t24 9q14 0 21.5 -9.5t5.5 -22.5zM249 520q-14 -14 -31 2l-112 95q-21 19 -2 39q20 22 39 3l104 -108q17 -17 2 -31z" />
    <glyph glyph-name="iacute" unicode="&#xed;" horiz-adv-x="193" 
d="M204 430l-72 -406q-2 -14 -13 -23t-24 -9q-14 0 -21.5 9.5t-5.5 22.5l72 406q2 14 13 23t24 9q14 0 21.5 -9.5t5.5 -22.5zM145 520q-15 14 2 31l104 108q19 19 39 -3q19 -20 -2 -39l-112 -95q-17 -16 -31 -2z" />
    <glyph glyph-name="icircumflex" unicode="&#xee;" horiz-adv-x="193" 
d="M204 430l-72 -406q-2 -14 -13 -23t-24 -9q-14 0 -21.5 9.5t-5.5 22.5l72 406q2 14 13 23t24 9q14 0 21.5 -9.5t5.5 -22.5zM273 529l-67 67l-95 -68q-8 -6 -16 -6q-10 0 -17 7t-7 17q0 12 11 20l112 78q8 6 17 6t16 -7l81 -81q6 -6 6 -16t-7 -17t-17 -7t-17 7z" />
    <glyph glyph-name="idieresis" unicode="&#xef;" horiz-adv-x="193" 
d="M204 430l-72 -406q-2 -14 -13 -23t-24 -9q-14 0 -21.5 9.5t-5.5 22.5l72 406q2 14 13 23t24 9q14 0 21.5 -9.5t5.5 -22.5zM112 534q-30 0 -30 28q0 47 43 47q31 0 31 -29q0 -46 -44 -46zM269 534q-30 0 -30 28q0 47 43 47q31 0 31 -29q0 -46 -44 -46z" />
    <glyph glyph-name="eth" unicode="&#xf0;" horiz-adv-x="492" 
d="M327 468q69 0 111 -31q-9 78 -43 120l-59 -37l-18 -5q-13 0 -21.5 8.5t-8.5 21.5q0 18 16 27l55 32q-25 27 -67 55q-13 7 -13 24q0 12 8.5 20.5t20.5 8.5q8 0 16 -4q43 -24 87 -71l50 29q9 5 18 5q13 0 21.5 -8.5t8.5 -21.5q0 -17 -16 -27l-46 -26q61 -87 61 -225
q0 -54 -6.5 -102.5t-24 -100t-46 -88.5t-77 -61t-111.5 -24q-84 0 -129 43t-45 129q0 58 14.5 111.5t44 98.5t81 72t118.5 27zM253 45q47 0 83.5 21t57.5 56.5t31.5 77t10.5 87.5q0 123 -119 123q-92 0 -137.5 -71.5t-45.5 -170.5q0 -123 119 -123z" />
    <glyph glyph-name="ntilde" unicode="&#xf1;" horiz-adv-x="501" 
d="M344 468q82 0 120 -34t38 -89q0 -27 -5 -54l-47 -267q-2 -14 -12.5 -23t-24.5 -9t-21.5 9t-5.5 23l45 254q5 28 5 49q0 84 -102 84q-132 0 -157 -140l-44 -247q-2 -14 -12.5 -23t-24.5 -9t-21.5 9t-5.5 23l72 406q2 14 12.5 23t24.5 9t21.5 -9.5t5.5 -22.5l-6 -32
q19 30 57.5 50t87.5 20zM310 617q26 0 58 -19.5t52 -19.5q27 0 51 30q7 9 19 9q10 0 17 -7t7 -17q0 -7 -5 -15q-34 -49 -97 -49q-26 0 -58 19.5t-52 19.5q-21 0 -51 -30q-9 -9 -19 -9t-17 7t-7 17q0 9 6 16q38 48 96 48z" />
    <glyph glyph-name="ograve" unicode="&#xf2;" horiz-adv-x="490" 
d="M252 45q92 0 137.5 70.5t45.5 173.5q0 121 -118 121q-92 0 -137.5 -70.5t-45.5 -173.5q0 -121 118 -121zM242 -13q-83 0 -128 43t-45 128q0 61 15 115t44.5 98.5t81 70.5t117.5 26q83 0 128 -43t45 -128q0 -61 -15 -115t-44.5 -98.5t-81 -70.5t-117.5 -26zM417 520
q-14 -14 -31 2l-112 95q-21 19 -2 39q20 22 39 3l104 -108q17 -17 2 -31z" />
    <glyph glyph-name="oacute" unicode="&#xf3;" horiz-adv-x="490" 
d="M252 45q92 0 137.5 70.5t45.5 173.5q0 121 -118 121q-92 0 -137.5 -70.5t-45.5 -173.5q0 -121 118 -121zM242 -13q-83 0 -128 43t-45 128q0 61 15 115t44.5 98.5t81 70.5t117.5 26q83 0 128 -43t45 -128q0 -61 -15 -115t-44.5 -98.5t-81 -70.5t-117.5 -26zM292 520
q-14 14 2 31l104 108q19 19 39 -3q19 -20 -2 -39l-112 -95q-17 -16 -31 -2z" />
    <glyph glyph-name="ocircumflex" unicode="&#xf4;" horiz-adv-x="490" 
d="M252 45q92 0 137.5 70.5t45.5 173.5q0 121 -118 121q-92 0 -137.5 -70.5t-45.5 -173.5q0 -121 118 -121zM242 -13q-83 0 -128 43t-45 128q0 61 15 115t44.5 98.5t81 70.5t117.5 26q83 0 128 -43t45 -128q0 -61 -15 -115t-44.5 -98.5t-81 -70.5t-117.5 -26zM426 529
l-67 67l-95 -68q-8 -6 -16 -6q-10 0 -17 7t-7 17q0 12 11 20l112 78q8 6 17 6t16 -7l81 -81q6 -6 6 -16t-7 -17t-17 -7t-17 7z" />
    <glyph glyph-name="otilde" unicode="&#xf5;" horiz-adv-x="490" 
d="M252 45q92 0 137.5 70.5t45.5 173.5q0 121 -118 121q-92 0 -137.5 -70.5t-45.5 -173.5q0 -121 118 -121zM242 -13q-83 0 -128 43t-45 128q0 61 15 115t44.5 98.5t81 70.5t117.5 26q83 0 128 -43t45 -128q0 -61 -15 -115t-44.5 -98.5t-81 -70.5t-117.5 -26zM297 617
q25 0 58 -19.5t52 -19.5q27 0 51 30q7 9 19 9q10 0 17 -7t7 -17q0 -7 -5 -15q-34 -49 -97 -49q-26 0 -58 19.5t-52 19.5q-21 0 -51 -30q-9 -9 -19 -9t-17 7t-7 17q0 9 6 16q38 48 96 48z" />
    <glyph glyph-name="odieresis" unicode="&#xf6;" horiz-adv-x="490" 
d="M252 45q92 0 137.5 70.5t45.5 173.5q0 121 -118 121q-92 0 -137.5 -70.5t-45.5 -173.5q0 -121 118 -121zM242 -13q-83 0 -128 43t-45 128q0 61 15 115t44.5 98.5t81 70.5t117.5 26q83 0 128 -43t45 -128q0 -61 -15 -115t-44.5 -98.5t-81 -70.5t-117.5 -26zM265 534
q-30 0 -30 28q0 47 43 47q31 0 31 -29q0 -46 -44 -46zM422 534q-30 0 -30 28q0 47 43 47q31 0 31 -29q0 -46 -44 -46z" />
    <glyph glyph-name="divide" unicode="&#xf7;" horiz-adv-x="454" 
d="M210 92q0 15 12 26.5t28 11.5q13 0 20.5 -8t7.5 -20q0 -16 -12 -27.5t-28 -11.5q-13 0 -20.5 8t-7.5 21zM253 335q0 16 11.5 27.5t28.5 11.5q13 0 20.5 -8.5t7.5 -20.5q0 -16 -12 -27t-28 -11q-13 0 -20.5 8t-7.5 20zM493 223q0 -13 -10 -22t-22 -9h-400q-10 0 -16.5 6.5
t-6.5 16.5q0 13 10 22t22 9h400q10 0 16.5 -6.5t6.5 -16.5z" />
    <glyph glyph-name="oslash" unicode="&#xf8;" horiz-adv-x="490" 
d="M242 -13q-91 0 -134 49l-40 -36q-10 -8 -19 -8q-11 0 -18.5 8t-7.5 18q0 11 10 20l48 43q-12 33 -12 77q0 61 15 115t44.5 98.5t81 70.5t117.5 26q88 0 132 -47l44 39q10 8 19 8q10 0 18 -8t8 -18q0 -11 -10 -20l-51 -46q13 -36 13 -79q0 -61 -15 -115t-44.5 -98.5
t-81 -70.5t-117.5 -26zM252 45q92 0 137.5 70.5t45.5 173.5q0 15 -4 37l-273 -245q29 -36 94 -36zM134 166q0 -18 3 -35l272 245q-30 34 -92 34q-92 0 -137.5 -70.5t-45.5 -173.5z" />
    <glyph glyph-name="ugrave" unicode="&#xf9;" horiz-adv-x="482" 
d="M168 462q14 0 21.5 -9.5t5.5 -22.5l-46 -261q-4 -23 -4 -37q0 -84 104 -84q71 0 102.5 32t41.5 89l46 261q2 14 13 23t25 9q13 0 20.5 -9t5.5 -23l-46 -261q-15 -84 -62 -133t-153 -49q-84 0 -123 35t-39 93q0 24 5 54l46 261q2 14 12.5 23t24.5 9zM392 520
q-14 -14 -31 2l-112 95q-21 19 -2 39q20 22 39 3l104 -108q16 -17 2 -31z" />
    <glyph glyph-name="uacute" unicode="&#xfa;" horiz-adv-x="482" 
d="M168 462q14 0 21.5 -9.5t5.5 -22.5l-46 -261q-4 -23 -4 -37q0 -84 104 -84q71 0 102.5 32t41.5 89l46 261q2 14 13 23t25 9q13 0 20.5 -9t5.5 -23l-46 -261q-15 -84 -62 -133t-153 -49q-84 0 -123 35t-39 93q0 24 5 54l46 261q2 14 12.5 23t24.5 9zM294 520q-14 14 2 31
l104 108q19 19 39 -3q19 -20 -2 -39l-112 -95q-17 -16 -31 -2z" />
    <glyph glyph-name="ucircumflex" unicode="&#xfb;" horiz-adv-x="482" 
d="M168 462q14 0 21.5 -9.5t5.5 -22.5l-46 -261q-4 -23 -4 -37q0 -84 104 -84q71 0 102.5 32t41.5 89l46 261q2 14 13 23t25 9q13 0 20.5 -9t5.5 -23l-46 -261q-15 -84 -62 -133t-153 -49q-84 0 -123 35t-39 93q0 24 5 54l46 261q2 14 12.5 23t24.5 9zM422 529l-67 67
l-95 -68q-8 -6 -16 -6q-10 0 -17 7t-7 17q0 12 11 20l112 78q8 6 17 6t16 -7l81 -81q6 -6 6 -16t-7 -17t-17 -7t-17 7z" />
    <glyph glyph-name="udieresis" unicode="&#xfc;" horiz-adv-x="482" 
d="M168 462q14 0 21.5 -9.5t5.5 -22.5l-46 -261q-4 -23 -4 -37q0 -84 104 -84q71 0 102.5 32t41.5 89l46 261q2 14 13 23t25 9q13 0 20.5 -9t5.5 -23l-46 -261q-15 -84 -62 -133t-153 -49q-84 0 -123 35t-39 93q0 24 5 54l46 261q2 14 12.5 23t24.5 9zM263 534q-30 0 -30 28
q0 47 43 47q31 0 31 -29q0 -46 -44 -46zM420 534q-30 0 -30 28q0 47 43 47q31 0 31 -29q0 -46 -44 -46z" />
    <glyph glyph-name="yacute" unicode="&#xfd;" horiz-adv-x="482" 
d="M168 462q14 0 21.5 -9.5t5.5 -22.5l-38 -215q-4 -23 -4 -37q0 -84 104 -84q65 0 100 34.5t44 86.5l38 215q2 14 13 23t25 9q13 0 20.5 -9t5.5 -23l-78 -442q-17 -97 -75 -143t-163 -46q-60 0 -95 26.5t-35 67.5q0 51 42 83t133 57q-75 4 -109.5 38.5t-34.5 89.5
q0 24 5 54l38 215q2 14 12.5 23t24.5 9zM122 -97q0 -48 77 -48q73 0 110 33t50 96l24 119q-22 -35 -69 -62t-88 -41t-72.5 -38.5t-31.5 -58.5zM282 520q-14 14 2 31l104 108q19 19 39 -3q19 -20 -2 -39l-112 -95q-17 -16 -31 -2z" />
    <glyph glyph-name="thorn" unicode="&#xfe;" horiz-adv-x="509" 
d="M222 712q14 0 21.5 -9t5.5 -23l-51 -282q21 29 60 49.5t89 20.5q84 0 129 -42.5t45 -128.5q0 -61 -13.5 -114.5t-42 -98.5t-78.5 -71t-116 -26q-101 0 -131 74l-41 -230q-2 -14 -12.5 -23t-24.5 -9t-21.5 9t-5.5 23l150 849q2 14 12.5 23t24.5 9zM161 175
q0 -130 112 -130q92 0 137.5 70.5t45.5 173.5q0 121 -118 121q-76 0 -126.5 -63t-50.5 -172z" />
    <glyph glyph-name="ydieresis" unicode="&#xff;" horiz-adv-x="482" 
d="M168 462q14 0 21.5 -9.5t5.5 -22.5l-38 -215q-4 -23 -4 -37q0 -84 104 -84q65 0 100 34.5t44 86.5l38 215q2 14 13 23t25 9q13 0 20.5 -9t5.5 -23l-78 -442q-17 -97 -75 -143t-163 -46q-60 0 -95 26.5t-35 67.5q0 51 42 83t133 57q-75 4 -109.5 38.5t-34.5 89.5
q0 24 5 54l38 215q2 14 12.5 23t24.5 9zM122 -97q0 -48 77 -48q73 0 110 33t50 96l24 119q-22 -35 -69 -62t-88 -41t-72.5 -38.5t-31.5 -58.5zM258 534q-30 0 -30 28q0 47 43 47q31 0 31 -29q0 -46 -44 -46zM415 534q-30 0 -30 28q0 47 43 47q31 0 31 -29q0 -46 -44 -46z
" />
    <glyph glyph-name="Amacron" unicode="&#x100;" horiz-adv-x="613" 
d="M471 261l-65 306l-172 -306h237zM481 199h-279l-106 -183q-13 -24 -34 -24q-14 0 -24 10t-10 24q0 10 6 20l356 612q13 23 35 23q24 0 30 -23l134 -617q2 -10 2 -14q0 -15 -9.5 -25t-26.5 -10q-27 0 -32 23zM558 762q0 -12 -9 -20.5t-21 -8.5h-186q-9 0 -15 6t-6 15
q0 12 9 20.5t21 8.5h186q9 0 15 -6t6 -15z" />
    <glyph glyph-name="amacron" unicode="&#x101;" horiz-adv-x="513" 
d="M401 88q-55 -101 -169 -101q-79 0 -121 46t-42 123q0 137 74.5 224.5t191.5 87.5q75 0 124 -43l1 5q7 32 37 32q15 0 22 -9.5t5 -22.5l-72 -406q-2 -14 -12.5 -23t-24.5 -9t-21 9t-5 23zM133 166q0 -54 26.5 -87.5t82.5 -33.5q77 0 124.5 60t62.5 147l19 113
q-47 47 -118 47q-84 0 -140.5 -69t-56.5 -177zM493 566q0 -12 -9 -20.5t-21 -8.5h-186q-9 0 -15 6t-6 15q0 12 9 20.5t21 8.5h186q9 0 15 -6t6 -15z" />
    <glyph glyph-name="Abreve" unicode="&#x102;" horiz-adv-x="613" 
d="M471 261l-65 306l-172 -306h237zM481 199h-279l-106 -183q-13 -24 -34 -24q-14 0 -24 10t-10 24q0 10 6 20l356 612q13 23 35 23q24 0 30 -23l134 -617q2 -10 2 -14q0 -15 -9.5 -25t-26.5 -10q-27 0 -32 23zM434 730q-43 0 -70 20.5t-27 62.5t29 42q9 0 15.5 -6.5
t6.5 -17.5q0 -3 -1 -9t-1 -9q0 -21 13.5 -29t42.5 -8q65 0 75 55q4 24 27 24q8 0 14.5 -6t6.5 -15q0 -50 -37 -77t-94 -27z" />
    <glyph glyph-name="abreve" unicode="&#x103;" horiz-adv-x="513" 
d="M401 88q-55 -101 -169 -101q-79 0 -121 46t-42 123q0 137 74.5 224.5t191.5 87.5q75 0 124 -43l1 5q7 32 37 32q15 0 22 -9.5t5 -22.5l-72 -406q-2 -14 -12.5 -23t-24.5 -9t-21 9t-5 23zM133 166q0 -54 26.5 -87.5t82.5 -33.5q77 0 124.5 60t62.5 147l19 113
q-47 47 -118 47q-84 0 -140.5 -69t-56.5 -177zM370 529q-43 0 -70 20.5t-27 62.5t29 42q9 0 15.5 -6.5t6.5 -17.5q0 -3 -1 -9t-1 -9q0 -21 13.5 -29t42.5 -8q65 0 75 55q4 24 27 24q8 0 14.5 -6t6.5 -15q0 -50 -37 -77t-94 -27z" />
    <glyph glyph-name="Aogonek" unicode="&#x104;" horiz-adv-x="613" 
d="M603 -125q9 0 15.5 -6.5t6.5 -15.5q0 -13 -13 -20q-28 -16 -76 -16q-42 0 -66 18.5t-24 52.5q0 70 87 112q-8 5 -10 15l-42 184h-279l-106 -183q-13 -24 -34 -24q-14 0 -24 10t-10 24q0 10 6 20l356 612q13 23 35 23q24 0 30 -23l134 -617q2 -10 2 -14q0 -21 -24 -34
q-68 -36 -68 -87q0 -43 47 -43q22 0 44 9q8 3 13 3zM471 261l-65 306l-172 -306h237z" />
    <glyph glyph-name="aogonek" unicode="&#x105;" horiz-adv-x="513" 
d="M461 -125q9 0 15.5 -6.5t6.5 -15.5q0 -13 -13 -20q-28 -16 -76 -16q-42 0 -66 18.5t-24 52.5q0 69 90 113q-8 10 -5 23l12 64q-55 -101 -169 -101q-79 0 -121 46t-42 123q0 137 74.5 224.5t191.5 87.5q75 0 124 -43l1 5q7 32 37 32q15 0 22 -9.5t5 -22.5l-72 -406
q-4 -20 -28 -32q-67 -33 -67 -86q0 -43 47 -43q22 0 44 9q8 3 13 3zM133 166q0 -54 26.5 -87.5t82.5 -33.5q77 0 124.5 60t62.5 147l19 113q-47 47 -118 47q-84 0 -140.5 -69t-56.5 -177z" />
    <glyph glyph-name="Cacute" unicode="&#x106;" horiz-adv-x="631" 
d="M353 -14q-260 0 -260 257q0 211 101.5 327.5t278.5 116.5q72 0 127 -30.5t83 -80.5q4 -7 4 -16q0 -14 -9.5 -23t-22.5 -9q-18 0 -26 13q-54 84 -165 84q-141 0 -220.5 -98.5t-79.5 -274.5q0 -108 50 -156t150 -48q111 0 186 82q12 13 26 13t23 -9.5t9 -22.5t-10 -24
q-40 -47 -107 -74t-138 -27zM427 724q-15 14 2 31l104 108q19 19 39 -3q19 -20 -2 -39l-112 -95q-17 -16 -31 -2z" />
    <glyph glyph-name="cacute" unicode="&#x107;" horiz-adv-x="441" 
d="M69 169q0 135 67 217t188 82q40 0 72.5 -15t46.5 -29t22 -29q4 -7 4 -15q0 -12 -8 -20.5t-20 -8.5q-13 0 -24 12q-12 14 -20.5 21.5t-31.5 16.5t-52 9q-88 0 -133.5 -65.5t-45.5 -167.5q0 -69 28.5 -100.5t85.5 -31.5q60 0 121 42q11 7 20 7q11 0 19.5 -8t8.5 -20
q0 -17 -18 -30q-69 -49 -161 -49q-169 0 -169 182zM277 520q-15 14 2 31l104 108q19 19 39 -3q19 -20 -2 -39l-112 -95q-17 -16 -31 -2z" />
    <glyph glyph-name="Ccircumflex" unicode="&#x108;" horiz-adv-x="631" 
d="M353 -14q-260 0 -260 257q0 211 101.5 327.5t278.5 116.5q72 0 127 -30.5t83 -80.5q4 -7 4 -16q0 -14 -9.5 -23t-22.5 -9q-18 0 -26 13q-54 84 -165 84q-141 0 -220.5 -98.5t-79.5 -274.5q0 -108 50 -156t150 -48q111 0 186 82q12 13 26 13t23 -9.5t9 -22.5t-10 -24
q-40 -47 -107 -74t-138 -27zM569 726l-67 67l-95 -68q-8 -6 -16 -6q-10 0 -17 7t-7 17q0 12 11 20l112 78q8 6 17 6t16 -7l81 -81q6 -6 6 -16t-7 -17t-17 -7t-17 7z" />
    <glyph glyph-name="ccircumflex" unicode="&#x109;" horiz-adv-x="441" 
d="M69 169q0 135 67 217t188 82q40 0 72.5 -15t46.5 -29t22 -29q4 -7 4 -15q0 -12 -8 -20.5t-20 -8.5q-13 0 -24 12q-12 14 -20.5 21.5t-31.5 16.5t-52 9q-88 0 -133.5 -65.5t-45.5 -167.5q0 -69 28.5 -100.5t85.5 -31.5q60 0 121 42q11 7 20 7q11 0 19.5 -8t8.5 -20
q0 -17 -18 -30q-69 -49 -161 -49q-169 0 -169 182zM417 529l-67 67l-95 -68q-8 -6 -16 -6q-10 0 -17 7t-7 17q0 12 11 20l112 78q8 6 17 6t16 -7l81 -81q6 -6 6 -16t-7 -17t-17 -7t-17 7z" />
    <glyph glyph-name="Cdotaccent" unicode="&#x10a;" horiz-adv-x="631" 
d="M353 -14q-260 0 -260 257q0 211 101.5 327.5t278.5 116.5q72 0 127 -30.5t83 -80.5q4 -7 4 -16q0 -14 -9.5 -23t-22.5 -9q-18 0 -26 13q-54 84 -165 84q-141 0 -220.5 -98.5t-79.5 -274.5q0 -108 50 -156t150 -48q111 0 186 82q12 13 26 13t23 -9.5t9 -22.5t-10 -24
q-40 -47 -107 -74t-138 -27zM483 736q-32 0 -32 30q0 49 46 49q32 0 32 -30q0 -49 -46 -49z" />
    <glyph glyph-name="cdotaccent" unicode="&#x10b;" horiz-adv-x="441" 
d="M69 169q0 135 67 217t188 82q40 0 72.5 -15t46.5 -29t22 -29q4 -7 4 -15q0 -12 -8 -20.5t-20 -8.5q-13 0 -24 12q-12 14 -20.5 21.5t-31.5 16.5t-52 9q-88 0 -133.5 -65.5t-45.5 -167.5q0 -69 28.5 -100.5t85.5 -31.5q60 0 121 42q11 7 20 7q11 0 19.5 -8t8.5 -20
q0 -17 -18 -30q-69 -49 -161 -49q-169 0 -169 182zM340 544q-32 0 -32 30q0 49 46 49q32 0 32 -30q0 -49 -46 -49z" />
    <glyph glyph-name="Ccaron" unicode="&#x10c;" horiz-adv-x="631" 
d="M353 -14q-260 0 -260 257q0 211 101.5 327.5t278.5 116.5q72 0 127 -30.5t83 -80.5q4 -7 4 -16q0 -14 -9.5 -23t-22.5 -9q-18 0 -26 13q-54 84 -165 84q-141 0 -220.5 -98.5t-79.5 -274.5q0 -108 50 -156t150 -48q111 0 186 82q12 13 26 13t23 -9.5t9 -22.5t-10 -24
q-40 -47 -107 -74t-138 -27zM483 773l96 68q9 6 16 6q10 0 17 -7t7 -17q0 -13 -12 -21l-111 -77q-8 -6 -17 -6t-15 6l-82 82q-6 6 -6 16t7 17t17 7q11 0 17 -7z" />
    <glyph glyph-name="ccaron" unicode="&#x10d;" horiz-adv-x="441" 
d="M69 169q0 135 67 217t188 82q40 0 72.5 -15t46.5 -29t22 -29q4 -7 4 -15q0 -12 -8 -20.5t-20 -8.5q-13 0 -24 12q-12 14 -20.5 21.5t-31.5 16.5t-52 9q-88 0 -133.5 -65.5t-45.5 -167.5q0 -69 28.5 -100.5t85.5 -31.5q60 0 121 42q11 7 20 7q11 0 19.5 -8t8.5 -20
q0 -17 -18 -30q-69 -49 -161 -49q-169 0 -169 182zM340 553l96 68q9 6 16 6q10 0 17 -7t7 -17q0 -13 -12 -21l-111 -77q-8 -6 -17 -6t-15 6l-82 82q-6 6 -6 16t7 17t17 7q11 0 17 -7z" />
    <glyph glyph-name="Dcaron" unicode="&#x10e;" horiz-adv-x="608" 
d="M256 611l-97 -549h107q141 0 219 88t78 260q0 107 -51 154t-149 47h-107zM233 673h141q260 0 260 -252q0 -203 -100 -312t-279 -109h-141q-14 0 -22 10t-6 24l107 605q2 14 14 24t26 10zM409 773l96 68q9 6 16 6q10 0 17 -7t7 -17q0 -13 -12 -21l-111 -77q-8 -6 -17 -6
t-15 6l-82 82q-6 6 -6 16t7 17t17 7q11 0 17 -7z" />
    <glyph glyph-name="dcaron" unicode="&#x10f;" horiz-adv-x="536" 
d="M404 184l25 138q-1 4 -3 9.5t-11 21t-21 27t-34 21t-48 9.5q-83 0 -131 -66t-48 -177q0 -122 115 -122q58 0 101 35.5t55 103.5zM318 468q45 0 77.5 -19t47.5 -46l49 277q2 14 12.5 23t24.5 9t21.5 -9t5.5 -23l-88 -496q-17 -97 -78 -147t-153 -50q-80 0 -124.5 43
t-44.5 128q0 139 67.5 224.5t182.5 85.5zM689 665q0 -96 -103 -196q-7 -7 -14 -7q-16 0 -16 14q0 6 5 12q30 35 42.5 55.5t12.5 41.5q0 14 -11.5 34t-11.5 35q0 27 15 42t42 15q39 0 39 -46z" />
    <glyph glyph-name="Dcroat" unicode="&#x110;" horiz-adv-x="608" 
d="M233 673h141q260 0 260 -252q0 -203 -100 -312t-279 -109h-141q-14 0 -22 10t-6 24l50 283h-31q-11 0 -18.5 8t-7.5 19q0 14 11.5 24.5t25.5 10.5h31l46 260q2 14 14 24t26 10zM256 611l-41 -232h193q11 0 19 -8t8 -19q0 -14 -11.5 -24.5t-26.5 -10.5h-193l-45 -255h107
q141 0 219 88t78 260q0 107 -51 154t-149 47h-107z" />
    <glyph glyph-name="dcroat" unicode="&#x111;" horiz-adv-x="501" 
d="M318 468q45 0 77.5 -19t47.5 -46l22 128h-94q-10 0 -16.5 6.5t-6.5 16.5q0 13 9.5 22t22.5 9h95l17 95q2 14 12.5 23t24.5 9t21.5 -9t5.5 -23l-17 -95h25q10 0 16.5 -6.5t6.5 -16.5q0 -13 -9.5 -22t-22.5 -9h-26l-61 -347q-17 -97 -78 -147t-153 -50q-80 0 -124.5 43
t-44.5 128q0 139 67.5 224.5t182.5 85.5zM404 184l25 138q-1 4 -3 9.5t-11 21t-21 27t-34 21t-48 9.5q-83 0 -131 -66t-48 -177q0 -122 115 -122q58 0 101 35.5t55 103.5z" />
    <glyph glyph-name="Emacron" unicode="&#x112;" 
d="M446 0h-332q-14 0 -22 10t-6 24l107 605q2 14 14 24t26 10h321q11 0 18.5 -8t7.5 -19q0 -14 -11.5 -24.5t-25.5 -10.5h-287l-42 -241h220q11 0 18.5 -8t7.5 -19q0 -14 -11.5 -24.5t-25.5 -10.5h-220l-44 -246h298q11 0 18.5 -8t7.5 -19q0 -14 -11.5 -24.5t-25.5 -10.5z
M532 762q0 -12 -9 -20.5t-21 -8.5h-186q-9 0 -15 6t-6 15q0 12 9 20.5t21 8.5h186q9 0 15 -6t6 -15z" />
    <glyph glyph-name="emacron" unicode="&#x113;" horiz-adv-x="461" 
d="M69 158q0 139 71 224.5t192 85.5q71 0 109 -31t38 -78q0 -162 -343 -162q-3 -15 -3 -31q0 -66 30 -93t93 -27t122 42q10 7 19 7q12 0 20.5 -8t8.5 -20q0 -13 -15 -26q-65 -54 -167 -54q-84 0 -129.5 43t-45.5 128zM143 249q272 0 272 103q0 24 -23 41t-70 17
q-71 0 -118.5 -46t-60.5 -115zM476 566q0 -12 -9 -20.5t-21 -8.5h-186q-9 0 -15 6t-6 15q0 12 9 20.5t21 8.5h186q9 0 15 -6t6 -15z" />
    <glyph glyph-name="Ebreve" unicode="&#x114;" 
d="M446 0h-332q-14 0 -22 10t-6 24l107 605q2 14 14 24t26 10h321q11 0 18.5 -8t7.5 -19q0 -14 -11.5 -24.5t-25.5 -10.5h-287l-42 -241h220q11 0 18.5 -8t7.5 -19q0 -14 -11.5 -24.5t-25.5 -10.5h-220l-44 -246h298q11 0 18.5 -8t7.5 -19q0 -14 -11.5 -24.5t-25.5 -10.5z
M407 730q-43 0 -70 20.5t-27 62.5t29 42q9 0 15.5 -6.5t6.5 -17.5q0 -3 -1 -9t-1 -9q0 -21 13.5 -29t42.5 -8q65 0 75 55q4 24 27 24q8 0 14.5 -6t6.5 -15q0 -50 -37 -77t-94 -27z" />
    <glyph glyph-name="ebreve" unicode="&#x115;" horiz-adv-x="461" 
d="M69 158q0 139 71 224.5t192 85.5q71 0 109 -31t38 -78q0 -162 -343 -162q-3 -15 -3 -31q0 -66 30 -93t93 -27t122 42q10 7 19 7q12 0 20.5 -8t8.5 -20q0 -13 -15 -26q-65 -54 -167 -54q-84 0 -129.5 43t-45.5 128zM143 249q272 0 272 103q0 24 -23 41t-70 17
q-71 0 -118.5 -46t-60.5 -115zM337 529q-43 0 -70 20.5t-27 62.5t29 42q9 0 15.5 -6.5t6.5 -17.5q0 -3 -1 -9t-1 -9q0 -21 13.5 -29t42.5 -8q65 0 75 55q4 24 27 24q8 0 14.5 -6t6.5 -15q0 -50 -37 -77t-94 -27z" />
    <glyph glyph-name="Edotaccent" unicode="&#x116;" 
d="M446 0h-332q-14 0 -22 10t-6 24l107 605q2 14 14 24t26 10h321q11 0 18.5 -8t7.5 -19q0 -14 -11.5 -24.5t-25.5 -10.5h-287l-42 -241h220q11 0 18.5 -8t7.5 -19q0 -14 -11.5 -24.5t-25.5 -10.5h-220l-44 -246h298q11 0 18.5 -8t7.5 -19q0 -14 -11.5 -24.5t-25.5 -10.5z
M403 736q-32 0 -32 30q0 49 46 49q32 0 32 -30q0 -49 -46 -49z" />
    <glyph glyph-name="edotaccent" unicode="&#x117;" horiz-adv-x="461" 
d="M69 158q0 139 71 224.5t192 85.5q71 0 109 -31t38 -78q0 -162 -343 -162q-3 -15 -3 -31q0 -66 30 -93t93 -27t122 42q10 7 19 7q12 0 20.5 -8t8.5 -20q0 -13 -15 -26q-65 -54 -167 -54q-84 0 -129.5 43t-45.5 128zM143 249q272 0 272 103q0 24 -23 41t-70 17
q-71 0 -118.5 -46t-60.5 -115zM342 544q-32 0 -32 30q0 49 46 49q32 0 32 -30q0 -49 -46 -49z" />
    <glyph glyph-name="Eogonek" unicode="&#x118;" 
d="M468 -125q9 0 15.5 -6.5t6.5 -15.5q0 -13 -13 -20q-28 -16 -76 -16q-42 0 -66 18.5t-24 52.5q0 70 88 112h-285q-14 0 -22 10t-6 24l107 605q2 14 14 24t26 10h321q11 0 18.5 -8t7.5 -19q0 -14 -11.5 -24.5t-25.5 -10.5h-287l-42 -241h220q11 0 18.5 -8t7.5 -19
q0 -14 -11.5 -24.5t-25.5 -10.5h-220l-44 -246h298q11 0 18.5 -8t7.5 -19q0 -23 -31 -36q-88 -38 -88 -93q0 -43 47 -43q21 0 44 9q7 3 13 3z" />
    <glyph glyph-name="eogonek" unicode="&#x119;" horiz-adv-x="461" 
d="M353 -125q9 0 15.5 -6.5t6.5 -15.5q0 -13 -13 -20q-28 -16 -76 -16q-42 0 -66 18.5t-24 52.5q0 58 66 100q-5 -1 -18 -1q-84 0 -129.5 43t-45.5 128q0 139 71 224.5t192 85.5q71 0 109 -31t38 -78q0 -162 -343 -162q-3 -15 -3 -31q0 -66 30 -93t93 -27t122 42q10 7 19 7
q12 0 20.5 -8t8.5 -20q0 -13 -15 -26q-14 -11 -44.5 -26t-54.5 -26t-43.5 -33t-19.5 -50q0 -43 47 -43q22 0 44 9q8 3 13 3zM143 248q136 0 204 27.5t68 76.5q0 24 -23 41t-70 17q-74 0 -120 -46t-59 -116z" />
    <glyph glyph-name="Ecaron" unicode="&#x11a;" 
d="M446 0h-332q-14 0 -22 10t-6 24l107 605q2 14 14 24t26 10h321q11 0 18.5 -8t7.5 -19q0 -14 -11.5 -24.5t-25.5 -10.5h-287l-42 -241h220q11 0 18.5 -8t7.5 -19q0 -14 -11.5 -24.5t-25.5 -10.5h-220l-44 -246h298q11 0 18.5 -8t7.5 -19q0 -14 -11.5 -24.5t-25.5 -10.5z
M414 773l96 68q9 6 16 6q10 0 17 -7t7 -17q0 -13 -12 -21l-111 -77q-8 -6 -17 -6t-15 6l-82 82q-6 6 -6 16t7 17t17 7q11 0 17 -7z" />
    <glyph glyph-name="ecaron" unicode="&#x11b;" horiz-adv-x="461" 
d="M69 158q0 139 71 224.5t192 85.5q71 0 109 -31t38 -78q0 -162 -343 -162q-3 -15 -3 -31q0 -66 30 -93t93 -27t122 42q10 7 19 7q12 0 20.5 -8t8.5 -20q0 -13 -15 -26q-65 -54 -167 -54q-84 0 -129.5 43t-45.5 128zM143 249q272 0 272 103q0 24 -23 41t-70 17
q-71 0 -118.5 -46t-60.5 -115zM343 553l96 68q9 6 16 6q10 0 17 -7t7 -17q0 -13 -12 -21l-111 -77q-8 -6 -17 -6t-15 6l-82 82q-6 6 -6 16t7 17t17 7q11 0 17 -7z" />
    <glyph glyph-name="Gcircumflex" unicode="&#x11c;" horiz-adv-x="663" 
d="M364 48q122 0 200 80l26 145h-167q-12 0 -19 7.5t-7 19.5q0 14 11 24.5t26 10.5h202q12 0 19.5 -9t5.5 -22l-30 -175q-3 -21 -18 -36q-103 -107 -260 -107q-260 0 -260 257q0 211 101.5 327.5t278.5 116.5q72 0 127 -30.5t83 -80.5q4 -7 4 -16q0 -14 -9.5 -23t-22.5 -9
q-18 0 -26 13q-54 84 -165 84q-141 0 -220.5 -98.5t-79.5 -274.5q0 -108 50 -156t150 -48zM569 726l-67 67l-95 -68q-8 -6 -16 -6q-10 0 -17 7t-7 17q0 12 11 20l112 78q8 6 17 6t16 -7l81 -81q6 -6 6 -16t-7 -17t-17 -7t-17 7z" />
    <glyph glyph-name="gcircumflex" unicode="&#x11d;" horiz-adv-x="469" 
d="M395 177l16 94q3 19 3 36q0 51 -30 77t-81 26q-83 0 -128 -53t-45 -135q0 -70 30 -101.5t88 -31.5q29 0 54.5 9t41.5 22t28.5 26t17.5 22zM122 -97q0 -48 77 -48q73 0 110 33t50 96l24 119q-22 -35 -69 -62t-88 -41t-72.5 -38.5t-31.5 -58.5zM475 271l-50 -283
q-17 -97 -75 -143t-163 -46q-60 0 -95 26.5t-35 67.5q0 51 42.5 83.5t131.5 56.5q-78 2 -122 46.5t-44 129.5q0 120 65 189.5t183 69.5q76 0 121 -38.5t45 -111.5q0 -24 -4 -47zM413 529l-67 67l-95 -68q-8 -6 -16 -6q-10 0 -17 7t-7 17q0 12 11 20l112 78q8 6 17 6t16 -7
l81 -81q6 -6 6 -16t-7 -17t-17 -7t-17 7z" />
    <glyph glyph-name="Gbreve" unicode="&#x11e;" horiz-adv-x="663" 
d="M364 48q122 0 200 80l26 145h-167q-12 0 -19 7.5t-7 19.5q0 14 11 24.5t26 10.5h202q12 0 19.5 -9t5.5 -22l-30 -175q-3 -21 -18 -36q-103 -107 -260 -107q-260 0 -260 257q0 211 101.5 327.5t278.5 116.5q72 0 127 -30.5t83 -80.5q4 -7 4 -16q0 -14 -9.5 -23t-22.5 -9
q-18 0 -26 13q-54 84 -165 84q-141 0 -220.5 -98.5t-79.5 -274.5q0 -108 50 -156t150 -48zM476 730q-43 0 -70 20.5t-27 62.5t29 42q9 0 15.5 -6.5t6.5 -17.5q0 -3 -1 -9t-1 -9q0 -21 13.5 -29t42.5 -8q65 0 75 55q4 24 27 24q8 0 14.5 -6t6.5 -15q0 -50 -37 -77t-94 -27z
" />
    <glyph glyph-name="gbreve" unicode="&#x11f;" horiz-adv-x="469" 
d="M395 177l16 94q3 19 3 36q0 51 -30 77t-81 26q-83 0 -128 -53t-45 -135q0 -70 30 -101.5t88 -31.5q29 0 54.5 9t41.5 22t28.5 26t17.5 22zM122 -97q0 -48 77 -48q73 0 110 33t50 96l24 119q-22 -35 -69 -62t-88 -41t-72.5 -38.5t-31.5 -58.5zM475 271l-50 -283
q-17 -97 -75 -143t-163 -46q-60 0 -95 26.5t-35 67.5q0 51 42.5 83.5t131.5 56.5q-78 2 -122 46.5t-44 129.5q0 120 65 189.5t183 69.5q76 0 121 -38.5t45 -111.5q0 -24 -4 -47zM320 529q-43 0 -70 20.5t-27 62.5t29 42q9 0 15.5 -6.5t6.5 -17.5q0 -3 -1 -9t-1 -9
q0 -21 13.5 -29t42.5 -8q65 0 75 55q4 24 27 24q8 0 14.5 -6t6.5 -15q0 -50 -37 -77t-94 -27z" />
    <glyph glyph-name="Gdotaccent" unicode="&#x120;" horiz-adv-x="663" 
d="M364 48q122 0 200 80l26 145h-167q-12 0 -19 7.5t-7 19.5q0 14 11 24.5t26 10.5h202q12 0 19.5 -9t5.5 -22l-30 -175q-3 -21 -18 -36q-103 -107 -260 -107q-260 0 -260 257q0 211 101.5 327.5t278.5 116.5q72 0 127 -30.5t83 -80.5q4 -7 4 -16q0 -14 -9.5 -23t-22.5 -9
q-18 0 -26 13q-54 84 -165 84q-141 0 -220.5 -98.5t-79.5 -274.5q0 -108 50 -156t150 -48zM478 736q-32 0 -32 30q0 49 46 49q32 0 32 -30q0 -49 -46 -49z" />
    <glyph glyph-name="gdotaccent" unicode="&#x121;" horiz-adv-x="469" 
d="M395 177l16 94q3 19 3 36q0 51 -30 77t-81 26q-83 0 -128 -53t-45 -135q0 -70 30 -101.5t88 -31.5q29 0 54.5 9t41.5 22t28.5 26t17.5 22zM122 -97q0 -48 77 -48q73 0 110 33t50 96l24 119q-22 -35 -69 -62t-88 -41t-72.5 -38.5t-31.5 -58.5zM475 271l-50 -283
q-17 -97 -75 -143t-163 -46q-60 0 -95 26.5t-35 67.5q0 51 42.5 83.5t131.5 56.5q-78 2 -122 46.5t-44 129.5q0 120 65 189.5t183 69.5q76 0 121 -38.5t45 -111.5q0 -24 -4 -47zM334 544q-32 0 -32 30q0 49 46 49q32 0 32 -30q0 -49 -46 -49z" />
    <glyph glyph-name="Gcommaaccent" unicode="&#x122;" horiz-adv-x="663" 
d="M364 48q122 0 200 80l26 145h-167q-12 0 -19 7.5t-7 19.5q0 14 11 24.5t26 10.5h202q12 0 19.5 -9t5.5 -22l-30 -175q-3 -21 -18 -36q-103 -107 -260 -107q-260 0 -260 257q0 211 101.5 327.5t278.5 116.5q72 0 127 -30.5t83 -80.5q4 -7 4 -16q0 -14 -9.5 -23t-22.5 -9
q-18 0 -26 13q-54 84 -165 84q-141 0 -220.5 -98.5t-79.5 -274.5q0 -108 50 -156t150 -48zM389 -83q0 -94 -87 -164q-7 -5 -11 -5q-13 0 -13 13q0 6 6 11q42 35 42 70q0 13 -11.5 32.5t-11.5 33.5q0 24 13.5 37t36.5 13q36 0 36 -41z" />
    <glyph glyph-name="gcommaaccent" unicode="&#x123;" horiz-adv-x="469" 
d="M395 177l16 94q3 19 3 36q0 51 -30 77t-81 26q-83 0 -128 -53t-45 -135q0 -70 30 -101.5t88 -31.5q29 0 54.5 9t41.5 22t28.5 26t17.5 22zM122 -97q0 -48 77 -48q73 0 110 33t50 96l24 119q-22 -35 -69 -62t-88 -41t-72.5 -38.5t-31.5 -58.5zM475 271l-50 -283
q-17 -97 -75 -143t-163 -46q-60 0 -95 26.5t-35 67.5q0 51 42.5 83.5t131.5 56.5q-78 2 -122 46.5t-44 129.5q0 120 65 189.5t183 69.5q76 0 121 -38.5t45 -111.5q0 -24 -4 -47zM288 546q0 94 87 164q7 5 11 5q13 0 13 -13q0 -6 -6 -11q-42 -35 -42 -70q0 -13 11.5 -32.5
t11.5 -33.5q0 -24 -13.5 -37t-36.5 -13q-36 0 -36 41z" />
    <glyph glyph-name="Hcircumflex" unicode="&#x124;" horiz-adv-x="644" 
d="M551 314h-348l-51 -288q-2 -14 -13.5 -24t-26.5 -10t-22.5 10t-5.5 24l110 621q2 14 13.5 24t26.5 10t22.5 -10t5.5 -24l-48 -271h348l48 271q2 14 13.5 24t26.5 10t22.5 -10t5.5 -24l-110 -621q-2 -14 -13.5 -24t-26.5 -10t-22.5 10t-5.5 24zM534 726l-67 67l-95 -68
q-8 -6 -16 -6q-10 0 -17 7t-7 17q0 12 11 20l112 78q8 6 17 6t16 -7l81 -81q6 -6 6 -16t-7 -17t-17 -7t-17 7z" />
    <glyph glyph-name="hcircumflex" unicode="&#x125;" horiz-adv-x="501" 
d="M344 468q82 0 120 -34t38 -89q0 -27 -5 -54l-47 -267q-2 -14 -12.5 -23t-24.5 -9t-21.5 9t-5.5 23l45 254q5 28 5 49q0 84 -102 84q-132 0 -157 -140l-44 -247q-2 -14 -12.5 -23t-24.5 -9t-21.5 9t-5.5 23l116 656q2 14 12.5 23t24.5 9t21.5 -9.5t5.5 -22.5l-50 -282
q19 30 57.5 50t87.5 20zM309 726l-67 67l-95 -68q-8 -6 -16 -6q-10 0 -17 7t-7 17q0 12 11 20l112 78q8 6 17 6t16 -7l81 -81q6 -6 6 -16t-7 -17t-17 -7t-17 7z" />
    <glyph glyph-name="Hbar" unicode="&#x126;" horiz-adv-x="644" 
d="M551 314h-348l-51 -288q-2 -14 -14 -24t-26 -10t-22 10t-6 24l77 437h-30q-9 0 -15 6t-6 15q0 12 9 20.5t21 8.5h30l24 134q2 14 14 24t26 10t22 -10t6 -24l-24 -134h348l24 134q2 14 14 24t26 10t22 -10t6 -24l-24 -134h30q9 0 15 -6t6 -15q0 -12 -9 -20.5t-21 -8.5h-30
l-77 -437q-2 -14 -14 -24t-26 -10t-22 10t-6 24zM214 376h348l15 87h-348z" />
    <glyph glyph-name="hbar" unicode="&#x127;" horiz-adv-x="501" 
d="M344 468q82 0 120 -34t38 -89q0 -27 -5 -54l-47 -267q-2 -14 -12.5 -23t-24.5 -9t-21.5 9t-5.5 23l45 254q5 28 5 49q0 84 -102 84q-132 0 -157 -140l-44 -247q-2 -14 -12.5 -23t-24.5 -9t-21.5 9t-5.5 23l95 537h-29q-21 0 -21 21q0 12 9 20.5t21 8.5h29l12 69
q2 14 12.5 23t24.5 9t21.5 -9.5t5.5 -22.5l-12 -69h111q9 0 15 -6t6 -15q0 -12 -9 -20.5t-21 -8.5h-111l-29 -163q19 30 57.5 50t87.5 20z" />
    <glyph glyph-name="Itilde" unicode="&#x128;" horiz-adv-x="228" 
d="M262 647l-110 -621q-2 -14 -13.5 -24t-26.5 -10t-22.5 10t-5.5 24l110 621q2 14 13.5 24t26.5 10t22.5 -10t5.5 -24zM201 819q26 0 58.5 -19.5t51.5 -19.5q27 0 51 30q7 9 19 9q10 0 17 -7t7 -17q0 -7 -5 -15q-34 -49 -97 -49q-26 0 -58 19.5t-52 19.5q-21 0 -51 -30
q-9 -9 -19 -9t-17 7t-7 17q0 9 6 16q38 48 96 48z" />
    <glyph glyph-name="itilde" unicode="&#x129;" horiz-adv-x="197" 
d="M145 617q25 0 58 -19.5t52 -19.5q27 0 51 30q7 9 19 9q10 0 17 -7t7 -17q0 -7 -5 -15q-34 -49 -97 -49q-26 0 -58 19.5t-52 19.5q-21 0 -51 -30q-9 -9 -19 -9t-17 7t-7 17q0 9 6 16q38 48 96 48zM204 430l-72 -406q-2 -14 -13 -23t-24 -9q-14 0 -21.5 9.5t-5.5 22.5
l72 406q2 14 13 23t24 9q14 0 21.5 -9.5t5.5 -22.5z" />
    <glyph glyph-name="Imacron" unicode="&#x12a;" horiz-adv-x="228" 
d="M262 647l-110 -621q-2 -14 -13.5 -24t-26.5 -10t-22.5 10t-5.5 24l110 621q2 14 13.5 24t26.5 10t22.5 -10t5.5 -24zM367 762q0 -12 -9 -20.5t-21 -8.5h-186q-9 0 -15 6t-6 15q0 12 9 20.5t21 8.5h186q9 0 15 -6t6 -15z" />
    <glyph glyph-name="imacron" unicode="&#x12b;" horiz-adv-x="193" 
d="M314 566q0 -12 -9 -20.5t-21 -8.5h-186q-9 0 -15 6t-6 15q0 12 9 20.5t21 8.5h186q9 0 15 -6t6 -15zM204 430l-72 -406q-2 -14 -13 -23t-24 -9q-14 0 -21.5 9.5t-5.5 22.5l72 406q2 14 13 23t24 9q14 0 21.5 -9.5t5.5 -22.5z" />
    <glyph glyph-name="Ibreve" unicode="&#x12c;" horiz-adv-x="228" 
d="M262 647l-110 -621q-2 -14 -13.5 -24t-26.5 -10t-22.5 10t-5.5 24l110 621q2 14 13.5 24t26.5 10t22.5 -10t5.5 -24zM243 730q-43 0 -70 20.5t-27 62.5t29 42q9 0 15.5 -6.5t6.5 -17.5q0 -3 -1 -9t-1 -9q0 -21 13.5 -29t42.5 -8q65 0 75 55q4 24 27 24q8 0 14.5 -6
t6.5 -15q0 -50 -37 -77t-94 -27z" />
    <glyph glyph-name="ibreve" unicode="&#x12d;" horiz-adv-x="193" 
d="M189 529q-43 0 -70 20.5t-27 62.5t29 42q9 0 15.5 -6.5t6.5 -17.5q0 -3 -1 -9t-1 -9q0 -21 13.5 -29t42.5 -8q65 0 75 55q4 24 27 24q8 0 14.5 -6t6.5 -15q0 -50 -37 -77t-94 -27zM204 430l-72 -406q-2 -14 -13 -23t-24 -9q-14 0 -21.5 9.5t-5.5 22.5l72 406q2 14 13 23
t24 9q14 0 21.5 -9.5t5.5 -22.5z" />
    <glyph glyph-name="Iogonek" unicode="&#x12e;" horiz-adv-x="228" 
d="M159 -125q9 0 15.5 -6.5t6.5 -15.5q0 -13 -13 -20q-28 -16 -76 -16q-42 0 -66 18.5t-24 52.5q0 70 89 112q-11 7 -7 26l110 621q2 14 13.5 24t26.5 10t22.5 -10t5.5 -24l-110 -621q-3 -18 -26 -31q-71 -37 -71 -89q0 -43 47 -43q22 0 44 9q8 3 13 3z" />
    <glyph glyph-name="iogonek" unicode="&#x12f;" horiz-adv-x="193" 
d="M141 -125q9 0 15.5 -6.5t6.5 -15.5q0 -13 -13 -20q-28 -16 -76 -16q-42 0 -66 18.5t-24 52.5q0 70 90 112q-9 10 -6 24l72 406q2 14 12.5 23t24.5 9t21.5 -9t5.5 -23l-72 -406q-4 -22 -27 -32q-68 -31 -68 -86q0 -43 47 -43q22 0 44 9q7 3 13 3zM208 634q33 0 33 -28
q0 -23 -12 -36.5t-34 -13.5q-33 0 -33 28q0 23 12 36.5t34 13.5z" />
    <glyph glyph-name="Idotaccent" unicode="&#x130;" horiz-adv-x="228" 
d="M262 647l-110 -621q-2 -14 -13.5 -24t-26.5 -10t-22.5 10t-5.5 24l110 621q2 14 13.5 24t26.5 10t22.5 -10t5.5 -24zM245 736q-32 0 -32 30q0 49 46 49q32 0 32 -30q0 -49 -46 -49z" />
    <glyph glyph-name="dotlessi" unicode="&#x131;" horiz-adv-x="193" 
d="M204 430l-72 -406q-2 -14 -13 -23t-24 -9q-14 0 -21.5 9.5t-5.5 22.5l72 406q2 14 13 23t24 9q14 0 21.5 -9.5t5.5 -22.5z" />
    <glyph glyph-name="IJ" unicode="&#x132;" horiz-adv-x="616" 
d="M262 647l-110 -621q-2 -14 -13.5 -24t-26.5 -10t-22.5 10t-5.5 24l110 621q2 14 13.5 24t26.5 10t22.5 -10t5.5 -24zM241 13q-15 10 -15 27q0 14 10 23.5t23 9.5q8 0 20 -6q31 -16 76 -16q121 0 149 152l79 444q2 14 13.5 24t26.5 10t22 -10t5 -24l-78 -444
q-39 -216 -228 -216q-67 0 -103 26z" />
    <glyph glyph-name="ij" unicode="&#x133;" horiz-adv-x="378" 
d="M204 430l-72 -406q-2 -14 -12.5 -23t-24.5 -9t-21.5 9t-5.5 23l72 406q2 14 12.5 23t24.5 9t21.5 -9t5.5 -23zM208 634q33 0 33 -28q0 -23 -12 -36.5t-34 -13.5q-33 0 -33 28q0 23 12 36.5t34 13.5zM243 -35l82 465q2 14 13 23t24 9q14 0 21.5 -9.5t5.5 -22.5l-82 -465
q-12 -65 -59 -107.5t-113 -42.5q-11 0 -18.5 7t-7.5 18q0 15 10.5 25t25.5 10q36 0 63.5 26t34.5 64zM393 634q33 0 33 -28q0 -23 -12 -36.5t-34 -13.5q-33 0 -33 28q0 23 12 36.5t34 13.5z" />
    <glyph glyph-name="Jcircumflex" unicode="&#x134;" horiz-adv-x="413" 
d="M38 13q-15 10 -15 27q0 14 9.5 23.5t23.5 9.5q8 0 20 -6q31 -16 76 -16q121 0 149 152l79 444q2 14 13.5 24t26.5 10t22 -10t5 -24l-78 -444q-39 -216 -228 -216q-67 0 -103 26zM508 726l-67 67l-95 -68q-8 -6 -16 -6q-10 0 -17 7t-7 17q0 12 11 20l112 78q8 6 17 6
t16 -7l81 -81q6 -6 6 -16t-7 -17t-17 -7t-17 7z" />
    <glyph glyph-name="jcircumflex" unicode="&#x135;" horiz-adv-x="194" 
d="M59 -35l82 465q2 14 13 23t24 9q14 0 21.5 -9.5t5.5 -22.5l-82 -465q-11 -64 -60.5 -107t-112.5 -43q-11 0 -18 7t-7 18q0 15 10.5 25t25.5 10q36 0 63.5 26t34.5 64zM265 529l-67 67l-95 -68q-8 -6 -16 -6q-10 0 -17 7t-7 17q0 12 11 20l112 78q8 6 17 6t16 -7l81 -81
q6 -6 6 -16t-7 -17t-17 -7t-17 7z" />
    <glyph glyph-name="Kcommaaccent" unicode="&#x136;" horiz-adv-x="554" 
d="M207 335l349 335q11 11 25 11t24 -10t10 -24q0 -15 -12 -26l-256 -239l185 -340q4 -8 4 -16q0 -14 -10 -24t-24 -10q-20 0 -29 16l-175 330l-108 -100l-38 -212q-2 -15 -13.5 -24.5t-26.5 -9.5t-22.5 9.5t-5.5 24.5l110 621q2 14 13.5 24t26.5 10t22.5 -10t5.5 -24z
M325 -83q0 -94 -87 -164q-7 -5 -11 -5q-13 0 -13 13q0 6 6 11q42 35 42 70q0 13 -11.5 32.5t-11.5 33.5q0 24 13.5 37t36.5 13q36 0 36 -41z" />
    <glyph glyph-name="kcommaaccent" unicode="&#x137;" horiz-adv-x="453" 
d="M400 -8q-18 0 -27 15l-138 229l-73 -49l-29 -163q-2 -14 -13 -23t-24 -9q-14 0 -21.5 9.5t-5.5 22.5l116 656q2 14 13 23t24 9q14 0 21.5 -9.5t5.5 -22.5l-74 -419l267 193q10 8 23 8q12 0 21 -9t9 -20q0 -19 -18 -32l-193 -134l144 -227q4 -7 4 -16q0 -14 -9 -23t-23 -9
zM288 -83q0 -94 -87 -164q-7 -5 -11 -5q-13 0 -13 13q0 6 6 11q42 35 42 70q0 13 -11.5 32.5t-11.5 33.5q0 24 13.5 37t36.5 13q36 0 36 -41z" />
    <glyph glyph-name="kgreenlandic" unicode="&#x138;" horiz-adv-x="453" 
d="M400 -8q-18 0 -27 15l-138 229l-73 -49l-29 -163q-2 -14 -13 -23t-24 -9q-14 0 -21.5 9.5t-5.5 22.5l72 406q2 14 13 23t24 9q14 0 21.5 -9.5t5.5 -22.5l-30 -169l267 193q10 8 23 8q12 0 21 -9t9 -20q0 -19 -18 -32l-193 -134l144 -227q4 -7 4 -16q0 -14 -9 -23t-23 -9z
" />
    <glyph glyph-name="Lacute" unicode="&#x139;" horiz-adv-x="483" 
d="M159 64h275q12 0 19.5 -8t7.5 -19q0 -15 -12 -26t-27 -11h-308q-14 0 -22 10t-6 24l108 613q2 14 13.5 24t26.5 10t22.5 -10t5.5 -24zM202 724q-14 14 2 31l104 108q19 19 39 -3q19 -20 -2 -39l-112 -95q-17 -16 -31 -2z" />
    <glyph glyph-name="lacute" unicode="&#x13a;" horiz-adv-x="219" 
d="M222 712q14 0 21.5 -9t5.5 -23l-101 -571q-2 -12 -2 -23q0 -34 33 -34q11 0 18 -7.5t7 -18.5q0 -14 -11 -24t-25 -10q-87 0 -87 84q0 15 3 33l101 571q2 14 12.5 23t24.5 9zM182 742q-14 14 2 31l104 108q19 19 39 -3q19 -20 -2 -39l-112 -95q-17 -16 -31 -2z" />
    <glyph glyph-name="Lcommaaccent" unicode="&#x13b;" horiz-adv-x="483" 
d="M159 64h275q12 0 19.5 -8t7.5 -19q0 -15 -12 -26t-27 -11h-308q-14 0 -22 10t-6 24l108 613q2 14 13.5 24t26.5 10t22.5 -10t5.5 -24zM308 -83q0 -94 -87 -164q-7 -5 -11 -5q-13 0 -13 13q0 6 6 11q42 35 42 70q0 13 -11.5 32.5t-11.5 33.5q0 24 13.5 37t36.5 13
q36 0 36 -41z" />
    <glyph glyph-name="lcommaaccent" unicode="&#x13c;" horiz-adv-x="219" 
d="M222 712q14 0 21.5 -9t5.5 -23l-101 -571q-2 -12 -2 -23q0 -34 33 -34q11 0 18 -7.5t7 -18.5q0 -14 -11 -24t-25 -10q-87 0 -87 84q0 15 3 33l101 571q2 14 12.5 23t24.5 9zM158 -83q0 -94 -87 -164q-7 -5 -11 -5q-13 0 -13 13q0 6 6 11q42 35 42 70q0 13 -11.5 32.5
t-11.5 33.5q0 24 13.5 37t36.5 13q36 0 36 -41z" />
    <glyph glyph-name="Lcaron" unicode="&#x13d;" horiz-adv-x="483" 
d="M159 64h275q12 0 19.5 -8t7.5 -19q0 -15 -12 -26t-27 -11h-308q-14 0 -22 10t-6 24l108 613q2 14 13.5 24t26.5 10t22.5 -10t5.5 -24zM505 635q0 -96 -103 -196q-7 -7 -14 -7q-16 0 -16 14q0 6 5 12q30 35 42.5 55.5t12.5 41.5q0 14 -11.5 34t-11.5 35q0 27 15 42t42 15
q39 0 39 -46z" />
    <glyph glyph-name="lcaron" unicode="&#x13e;" horiz-adv-x="234" 
d="M222 712q14 0 21.5 -9t5.5 -23l-101 -571q-2 -12 -2 -23q0 -34 33 -34q11 0 18 -7.5t7 -18.5q0 -14 -11 -24t-25 -10q-87 0 -87 84q0 15 3 33l101 571q2 14 12.5 23t24.5 9zM386 666q0 -96 -103 -196q-7 -7 -14 -7q-16 0 -16 14q0 6 5 12q30 35 42.5 55.5t12.5 41.5
q0 14 -11.5 34t-11.5 35q0 27 15 42t42 15q39 0 39 -46z" />
    <glyph glyph-name="Ldot" unicode="&#x13f;" horiz-adv-x="483" 
d="M159 64h275q12 0 19.5 -8t7.5 -19q0 -15 -12 -26t-27 -11h-308q-14 0 -22 10t-6 24l108 613q2 14 13.5 24t26.5 10t22.5 -10t5.5 -24zM430 297q-40 0 -40 34q0 28 15.5 44.5t41.5 16.5q40 0 40 -34q0 -28 -15.5 -44.5t-41.5 -16.5z" />
    <glyph glyph-name="ldot" unicode="&#x140;" horiz-adv-x="279" 
d="M222 712q14 0 21.5 -9t5.5 -23l-101 -571q-2 -12 -2 -23q0 -34 33 -34q11 0 18 -7.5t7 -18.5q0 -14 -11 -24t-25 -10q-87 0 -87 84q0 15 3 33l101 571q2 14 12.5 23t24.5 9zM275 328q-40 0 -40 34q0 28 15.5 44.5t41.5 16.5q40 0 40 -34q0 -28 -15.5 -44.5t-41.5 -16.5z
" />
    <glyph glyph-name="Lslash" unicode="&#x141;" horiz-adv-x="503" 
d="M178 64h274q12 0 19.5 -8t7.5 -19q0 -15 -11.5 -26t-26.5 -11h-308q-14 0 -22 10t-6 24l39 218l-44 -19q-6 -3 -14 -3q-12 0 -20.5 8.5t-8.5 20.5q0 19 18 27l80 32l58 329q2 14 14 24t26 10t22 -10t6 -24l-53 -298l182 81q6 3 13 3q12 0 20.5 -8.5t8.5 -20.5
q0 -20 -18 -27l-217 -94z" />
    <glyph glyph-name="lslash" unicode="&#x142;" horiz-adv-x="254" 
d="M222 712q14 0 21.5 -9t5.5 -23l-47 -262l82 45q6 3 13 3q11 0 19 -8t8 -19q0 -17 -15 -24l-118 -60l-43 -246q-2 -13 -2 -23q0 -34 33 -34q11 0 18 -7.5t7 -18.5q0 -14 -11 -24t-25 -10q-87 0 -87 83q0 16 3 34l38 211l-24 -15q-8 -4 -15 -4q-11 0 -19 8t-8 19
q0 17 16 25l61 31l52 296q2 14 12.5 23t24.5 9z" />
    <glyph glyph-name="Nacute" unicode="&#x143;" horiz-adv-x="620" 
d="M637 681q13 0 21 -9.5t6 -23.5l-110 -622q-2 -14 -14 -24t-26 -10q-17 0 -25 14l-255 548l-94 -529q-2 -14 -13 -23.5t-26 -9.5q-14 0 -21.5 9.5t-5.5 23.5l110 623q6 33 37 33q19 0 27 -16l259 -546l91 529q2 14 13 23.5t26 9.5zM398 723q-14 15 2 31l104 108
q19 19 39 -3q19 -20 -2 -39l-112 -95q-17 -16 -31 -2z" />
    <glyph glyph-name="nacute" unicode="&#x144;" horiz-adv-x="501" 
d="M344 468q82 0 120 -34t38 -89q0 -27 -5 -54l-47 -267q-2 -14 -12.5 -23t-24.5 -9t-21.5 9t-5.5 23l45 254q5 28 5 49q0 84 -102 84q-132 0 -157 -140l-44 -247q-2 -14 -12.5 -23t-24.5 -9t-21.5 9t-5.5 23l72 406q2 14 12.5 23t24.5 9t21.5 -9.5t5.5 -22.5l-6 -32
q19 30 57.5 50t87.5 20zM288 520q-14 14 2 31l104 108q19 19 39 -3q19 -20 -2 -39l-112 -95q-17 -16 -31 -2z" />
    <glyph glyph-name="Ncommaaccent" unicode="&#x145;" horiz-adv-x="620" 
d="M637 681q13 0 21 -9.5t6 -23.5l-110 -622q-2 -14 -14 -24t-26 -10q-17 0 -25 14l-255 548l-94 -529q-2 -14 -13 -23.5t-26 -9.5q-14 0 -21.5 9.5t-5.5 23.5l110 623q6 33 37 33q19 0 27 -16l259 -546l91 529q2 14 13 23.5t26 9.5zM332 -83q0 -94 -87 -164q-7 -5 -11 -5
q-13 0 -13 13q0 6 6 11q42 35 42 70q0 13 -11.5 32.5t-11.5 33.5q0 24 13.5 37t36.5 13q36 0 36 -41z" />
    <glyph glyph-name="ncommaaccent" unicode="&#x146;" horiz-adv-x="501" 
d="M344 468q82 0 120 -34t38 -89q0 -27 -5 -54l-47 -267q-2 -14 -12.5 -23t-24.5 -9t-21.5 9t-5.5 23l45 254q5 28 5 49q0 84 -102 84q-132 0 -157 -140l-44 -247q-2 -14 -12.5 -23t-24.5 -9t-21.5 9t-5.5 23l72 406q2 14 12.5 23t24.5 9t21.5 -9.5t5.5 -22.5l-6 -32
q19 30 57.5 50t87.5 20zM288 -83q0 -94 -87 -164q-7 -5 -11 -5q-13 0 -13 13q0 6 6 11q42 35 42 70q0 13 -11.5 32.5t-11.5 33.5q0 24 13.5 37t36.5 13q36 0 36 -41z" />
    <glyph glyph-name="Ncaron" unicode="&#x147;" horiz-adv-x="620" 
d="M637 681q13 0 21 -9.5t6 -23.5l-110 -622q-2 -14 -14 -24t-26 -10q-17 0 -25 14l-255 548l-94 -529q-2 -14 -13 -23.5t-26 -9.5q-14 0 -21.5 9.5t-5.5 23.5l110 623q6 33 37 33q19 0 27 -16l259 -546l91 529q2 14 13 23.5t26 9.5zM443 773l96 68q9 6 16 6q10 0 17 -7
t7 -17q0 -13 -12 -21l-111 -77q-8 -6 -17 -6t-15 6l-82 82q-6 6 -6 16t7 17t17 7q11 0 17 -7z" />
    <glyph glyph-name="ncaron" unicode="&#x148;" horiz-adv-x="501" 
d="M344 468q82 0 120 -34t38 -89q0 -27 -5 -54l-47 -267q-2 -14 -12.5 -23t-24.5 -9t-21.5 9t-5.5 23l45 254q5 28 5 49q0 84 -102 84q-132 0 -157 -140l-44 -247q-2 -14 -12.5 -23t-24.5 -9t-21.5 9t-5.5 23l72 406q2 14 12.5 23t24.5 9t21.5 -9.5t5.5 -22.5l-6 -32
q19 30 57.5 50t87.5 20zM357 553l96 68q9 6 16 6q10 0 17 -7t7 -17q0 -13 -12 -21l-111 -77q-8 -6 -17 -6t-15 6l-82 82q-6 6 -6 16t7 17t17 7q11 0 17 -7z" />
    <glyph glyph-name="napostrophe" unicode="&#x149;" horiz-adv-x="501" 
d="M344 468q82 0 120 -34t38 -89q0 -27 -5 -54l-47 -267q-2 -14 -12.5 -23t-24.5 -9t-21.5 9t-5.5 23l45 254q5 28 5 49q0 84 -102 84q-132 0 -157 -140l-44 -247q-2 -14 -12.5 -23t-24.5 -9t-21.5 9t-5.5 23l72 406q2 14 12.5 23t24.5 9t21.5 -9.5t5.5 -22.5l-6 -32
q19 30 57.5 50t87.5 20zM203 634q0 -94 -87 -164q-7 -5 -11 -5q-13 0 -13 13q0 6 6 11q42 35 42 70q0 13 -11.5 32.5t-11.5 33.5q0 24 13.5 37t36.5 13q36 0 36 -41z" />
    <glyph glyph-name="Eng" unicode="&#x14a;" horiz-adv-x="620" 
d="M637 681q13 0 21 -9.5t6 -23.5l-113 -637q-17 -96 -73 -154t-154 -58q-12 0 -19.5 8t-7.5 19q0 15 12 26t27 11q62 0 99.5 40.5t50.5 108.5l-252 542l-94 -529q-2 -14 -13 -23.5t-26 -9.5q-14 0 -21.5 9.5t-5.5 23.5l110 623q6 33 37 33q19 0 27 -16l259 -546l91 529
q2 14 13 23.5t26 9.5z" />
    <glyph glyph-name="eng" unicode="&#x14b;" horiz-adv-x="500" 
d="M344 468q82 0 120 -34t38 -89q0 -27 -5 -54l-60 -342q-11 -64 -60 -107t-112 -43q-11 0 -18.5 7t-7.5 18q0 15 10.5 25t25.5 10q36 0 63.5 26t34.5 64l58 329q5 28 5 49q0 84 -102 84q-132 0 -157 -140l-44 -247q-2 -14 -12.5 -23t-24.5 -9t-21.5 9t-5.5 23l72 406
q2 14 12.5 23t24.5 9t21.5 -9.5t5.5 -22.5l-6 -32q19 30 57.5 50t87.5 20z" />
    <glyph glyph-name="Omacron" unicode="&#x14c;" horiz-adv-x="712" 
d="M354 -14q-260 0 -260 257q0 207 103 325.5t280 118.5q260 0 260 -257q0 -207 -103 -325.5t-280 -118.5zM466 625q-141 0 -221 -99.5t-80 -273.5q0 -204 200 -204q141 0 221 99.5t80 273.5q0 204 -200 204zM611 762q0 -12 -9 -20.5t-21 -8.5h-186q-9 0 -15 6t-6 15
q0 12 9 20.5t21 8.5h186q9 0 15 -6t6 -15z" />
    <glyph glyph-name="omacron" unicode="&#x14d;" horiz-adv-x="490" 
d="M252 45q92 0 137.5 70.5t45.5 173.5q0 121 -118 121q-92 0 -137.5 -70.5t-45.5 -173.5q0 -121 118 -121zM242 -13q-83 0 -128 43t-45 128q0 61 15 115t44.5 98.5t81 70.5t117.5 26q83 0 128 -43t45 -128q0 -61 -15 -115t-44.5 -98.5t-81 -70.5t-117.5 -26zM463 566
q0 -12 -9 -20.5t-21 -8.5h-186q-9 0 -15 6t-6 15q0 12 9 20.5t21 8.5h186q9 0 15 -6t6 -15z" />
    <glyph glyph-name="Obreve" unicode="&#x14e;" horiz-adv-x="712" 
d="M354 -14q-260 0 -260 257q0 207 103 325.5t280 118.5q260 0 260 -257q0 -207 -103 -325.5t-280 -118.5zM466 625q-141 0 -221 -99.5t-80 -273.5q0 -204 200 -204q141 0 221 99.5t80 273.5q0 204 -200 204zM486 730q-43 0 -70 20.5t-27 62.5t29 42q9 0 15.5 -6.5
t6.5 -17.5q0 -3 -1 -9t-1 -9q0 -21 13.5 -29t42.5 -8q65 0 75 55q4 24 27 24q8 0 14.5 -6t6.5 -15q0 -50 -37 -77t-94 -27z" />
    <glyph glyph-name="obreve" unicode="&#x14f;" horiz-adv-x="490" 
d="M252 45q92 0 137.5 70.5t45.5 173.5q0 121 -118 121q-92 0 -137.5 -70.5t-45.5 -173.5q0 -121 118 -121zM242 -13q-83 0 -128 43t-45 128q0 61 15 115t44.5 98.5t81 70.5t117.5 26q83 0 128 -43t45 -128q0 -61 -15 -115t-44.5 -98.5t-81 -70.5t-117.5 -26zM337 529
q-43 0 -70 20.5t-27 62.5t29 42q9 0 15.5 -6.5t6.5 -17.5q0 -3 -1 -9t-1 -9q0 -21 13.5 -29t42.5 -8q65 0 75 55q4 24 27 24q8 0 14.5 -6t6.5 -15q0 -50 -37 -77t-94 -27z" />
    <glyph glyph-name="Ohungarumlaut" unicode="&#x150;" horiz-adv-x="712" 
d="M354 -14q-260 0 -260 257q0 207 103 325.5t280 118.5q260 0 260 -257q0 -207 -103 -325.5t-280 -118.5zM466 625q-141 0 -221 -99.5t-80 -273.5q0 -204 200 -204q141 0 221 99.5t80 273.5q0 204 -200 204zM411 723q-15 15 2 31l104 108q19 19 39 -3q19 -20 -2 -39
l-112 -95q-17 -16 -31 -2zM529 723q-15 15 2 31l104 108q19 19 39 -3q19 -20 -2 -39l-112 -95q-17 -16 -31 -2z" />
    <glyph glyph-name="ohungarumlaut" unicode="&#x151;" horiz-adv-x="490" 
d="M252 45q92 0 137.5 70.5t45.5 173.5q0 121 -118 121q-92 0 -137.5 -70.5t-45.5 -173.5q0 -121 118 -121zM242 -13q-83 0 -128 43t-45 128q0 61 15 115t44.5 98.5t81 70.5t117.5 26q83 0 128 -43t45 -128q0 -61 -15 -115t-44.5 -98.5t-81 -70.5t-117.5 -26zM243 520
q-15 14 2 31l104 108q19 19 39 -3q19 -20 -2 -39l-112 -95q-17 -16 -31 -2zM361 520q-15 14 2 31l104 108q19 19 39 -3q19 -20 -2 -39l-112 -95q-17 -16 -31 -2z" />
    <glyph glyph-name="OE" unicode="&#x152;" horiz-adv-x="924" 
d="M852 0h-332q-20 0 -23 12q-67 -26 -143 -26q-260 0 -260 257q0 207 103 325.5t280 118.5q81 0 135 -25q9 11 27 11h321q11 0 18.5 -8t7.5 -19q0 -14 -11.5 -24.5t-25.5 -10.5h-287l-42 -241h220q11 0 18.5 -8t7.5 -19q0 -14 -11.5 -24.5t-25.5 -10.5h-220l-44 -246h298
q11 0 18.5 -8t7.5 -19q0 -14 -11.5 -24.5t-25.5 -10.5zM365 48q77 0 135 30l91 517q-48 30 -125 30q-141 0 -221 -99.5t-80 -273.5q0 -204 200 -204z" />
    <glyph glyph-name="oe" unicode="&#x153;" horiz-adv-x="816" 
d="M242 -13q-83 0 -128 43t-45 128q0 61 15 115t44.5 98.5t81 70.5t117.5 26q127 0 161 -96q71 96 199 96q71 0 109 -31t38 -78q0 -162 -343 -162q-3 -15 -3 -31q0 -66 30 -93t93 -27t122 42q10 7 19 7q12 0 20.5 -8t8.5 -20q0 -13 -15 -26q-65 -54 -162 -54
q-63 0 -107 25.5t-59 74.5q-27 -43 -76 -71.5t-120 -28.5zM252 45q92 0 137.5 70.5t45.5 173.5q0 121 -118 121q-92 0 -137.5 -70.5t-45.5 -173.5q0 -121 118 -121zM499 251q271 0 271 101q0 24 -23 41t-70 17q-71 0 -118 -45t-60 -114z" />
    <glyph glyph-name="Racute" unicode="&#x154;" horiz-adv-x="546" 
d="M256 611l-46 -258h167q65 0 105 44t40 107q0 47 -27.5 77t-74.5 30h-164zM199 291l-47 -265q-2 -14 -13.5 -24t-26.5 -10q-14 0 -22 10t-6 24l108 613q2 14 14 24t26 10h199q73 0 117 -45.5t44 -115.5q0 -90 -61 -155.5t-155 -65.5l139 -247q5 -8 5 -18q0 -14 -10 -24
t-24 -10q-20 0 -29 16l-151 283h-107zM354 724q-14 14 2 31l104 108q19 19 39 -3q19 -20 -2 -39l-112 -95q-17 -16 -31 -2z" />
    <glyph glyph-name="racute" unicode="&#x155;" horiz-adv-x="309" 
d="M205 430l-8 -44q22 36 62.5 58t90.5 22q11 0 18.5 -8t7.5 -19q0 -14 -11.5 -24.5t-25.5 -10.5q-67 0 -110.5 -42.5t-55.5 -113.5l-40 -224q-2 -14 -13 -23t-24 -9q-14 0 -21.5 9.5t-5.5 22.5l72 406q2 14 12.5 23t24.5 9t21.5 -9.5t5.5 -22.5zM229 520q-15 14 2 31
l104 108q19 19 39 -3q19 -20 -2 -39l-112 -95q-17 -16 -31 -2z" />
    <glyph glyph-name="Rcommaaccent" unicode="&#x156;" horiz-adv-x="546" 
d="M256 611l-46 -258h167q65 0 105 44t40 107q0 47 -27.5 77t-74.5 30h-164zM199 291l-47 -265q-2 -14 -13.5 -24t-26.5 -10q-14 0 -22 10t-6 24l108 613q2 14 14 24t26 10h199q73 0 117 -45.5t44 -115.5q0 -90 -61 -155.5t-155 -65.5l139 -247q5 -8 5 -18q0 -14 -10 -24
t-24 -10q-20 0 -29 16l-151 283h-107zM316 -83q0 -94 -87 -164q-7 -5 -11 -5q-13 0 -13 13q0 6 6 11q42 35 42 70q0 13 -11.5 32.5t-11.5 33.5q0 24 13.5 37t36.5 13q36 0 36 -41z" />
    <glyph glyph-name="rcommaaccent" unicode="&#x157;" horiz-adv-x="309" 
d="M205 430l-8 -44q22 36 62.5 58t90.5 22q11 0 18.5 -8t7.5 -19q0 -14 -11.5 -24.5t-25.5 -10.5q-67 0 -110.5 -42.5t-55.5 -113.5l-40 -224q-2 -14 -13 -23t-24 -9q-14 0 -21.5 9.5t-5.5 22.5l72 406q2 14 12.5 23t24.5 9t21.5 -9.5t5.5 -22.5zM125 -83q0 -94 -87 -164
q-7 -5 -11 -5q-13 0 -13 13q0 6 6 11q42 35 42 70q0 13 -11.5 32.5t-11.5 33.5q0 24 13.5 37t36.5 13q36 0 36 -41z" />
    <glyph glyph-name="Rcaron" unicode="&#x158;" horiz-adv-x="546" 
d="M256 611l-46 -258h167q65 0 105 44t40 107q0 47 -27.5 77t-74.5 30h-164zM199 291l-47 -265q-2 -14 -13.5 -24t-26.5 -10q-14 0 -22 10t-6 24l108 613q2 14 14 24t26 10h199q73 0 117 -45.5t44 -115.5q0 -90 -61 -155.5t-155 -65.5l139 -247q5 -8 5 -18q0 -14 -10 -24
t-24 -10q-20 0 -29 16l-151 283h-107zM404 773l96 68q9 6 16 6q10 0 17 -7t7 -17q0 -13 -12 -21l-111 -77q-8 -6 -17 -6t-15 6l-82 82q-6 6 -6 16t7 17t17 7q11 0 17 -7z" />
    <glyph glyph-name="rcaron" unicode="&#x159;" horiz-adv-x="309" 
d="M205 430l-8 -44q22 36 62.5 58t90.5 22q11 0 18.5 -8t7.5 -19q0 -14 -11.5 -24.5t-25.5 -10.5q-67 0 -110.5 -42.5t-55.5 -113.5l-40 -224q-2 -14 -13 -23t-24 -9q-14 0 -21.5 9.5t-5.5 22.5l72 406q2 14 12.5 23t24.5 9t21.5 -9.5t5.5 -22.5zM259 553l96 68q9 6 16 6
q10 0 17 -7t7 -17q0 -13 -12 -21l-111 -77q-8 -6 -17 -6t-15 6l-82 82q-6 6 -6 16t7 17t17 7q11 0 17 -7z" />
    <glyph glyph-name="Sacute" unicode="&#x15a;" horiz-adv-x="558" 
d="M543 548q-48 77 -152 77q-82 0 -123.5 -36.5t-41.5 -86.5q0 -38 33.5 -64.5t80.5 -43.5t94.5 -36.5t81 -57t33.5 -91.5q0 -105 -71 -164t-206 -59q-83 0 -138.5 37.5t-73.5 91.5q-2 6 -2 12q0 13 9 22.5t23 9.5q22 0 29 -18q19 -42 60 -67.5t104 -25.5q93 0 145 40.5
t52 108.5q0 43 -33.5 71.5t-81 45.5t-95 36t-81 55t-33.5 90q0 82 64 137t182 55q70 0 123 -29.5t73 -78.5q3 -7 3 -14q0 -13 -9.5 -22.5t-22.5 -9.5q-16 0 -26 15zM380 724q-14 14 2 31l104 108q19 19 39 -3q19 -20 -2 -39l-112 -95q-17 -16 -31 -2z" />
    <glyph glyph-name="sacute" unicode="&#x15b;" horiz-adv-x="424" 
d="M278 406q-42 0 -71 -16t-29 -52q0 -26 23.5 -44t56.5 -29.5t66 -25t56.5 -39t23.5 -62.5q0 -74 -51.5 -112t-139.5 -38q-54 0 -98 22.5t-65 53.5q-4 7 -4 15q0 12 8.5 20.5t20.5 8.5q13 0 22 -10q41 -49 122 -49q52 0 86 19.5t34 59.5q0 24 -23.5 41t-56.5 28.5t-66.5 25
t-57 40t-23.5 64.5q0 69 48 104.5t126 35.5q47 0 86.5 -20t56.5 -47q5 -8 5 -16q0 -12 -8.5 -20.5t-20.5 -8.5t-21 9q-42 42 -106 42zM260 520q-14 14 2 31l104 108q19 19 39 -3q19 -20 -2 -39l-112 -95q-17 -16 -31 -2z" />
    <glyph glyph-name="Scircumflex" unicode="&#x15c;" horiz-adv-x="558" 
d="M543 548q-48 77 -152 77q-82 0 -123.5 -36.5t-41.5 -86.5q0 -38 33.5 -64.5t80.5 -43.5t94.5 -36.5t81 -57t33.5 -91.5q0 -105 -71 -164t-206 -59q-83 0 -138.5 37.5t-73.5 91.5q-2 6 -2 12q0 13 9 22.5t23 9.5q22 0 29 -18q19 -42 60 -67.5t104 -25.5q93 0 145 40.5
t52 108.5q0 43 -33.5 71.5t-81 45.5t-95 36t-81 55t-33.5 90q0 82 64 137t182 55q70 0 123 -29.5t73 -78.5q3 -7 3 -14q0 -13 -9.5 -22.5t-22.5 -9.5q-16 0 -26 15zM495 726l-67 67l-95 -68q-8 -6 -16 -6q-10 0 -17 7t-7 17q0 12 11 20l112 78q8 6 17 6t16 -7l81 -81
q6 -6 6 -16t-7 -17t-17 -7t-17 7z" />
    <glyph glyph-name="scircumflex" unicode="&#x15d;" horiz-adv-x="424" 
d="M278 406q-42 0 -71 -16t-29 -52q0 -26 23.5 -44t56.5 -29.5t66 -25t56.5 -39t23.5 -62.5q0 -74 -51.5 -112t-139.5 -38q-54 0 -98 22.5t-65 53.5q-4 7 -4 15q0 12 8.5 20.5t20.5 8.5q13 0 22 -10q41 -49 122 -49q52 0 86 19.5t34 59.5q0 24 -23.5 41t-56.5 28.5t-66.5 25
t-57 40t-23.5 64.5q0 69 48 104.5t126 35.5q47 0 86.5 -20t56.5 -47q5 -8 5 -16q0 -12 -8.5 -20.5t-20.5 -8.5t-21 9q-42 42 -106 42zM393 529l-67 67l-95 -68q-8 -6 -16 -6q-10 0 -17 7t-7 17q0 12 11 20l112 78q8 6 17 6t16 -7l81 -81q6 -6 6 -16t-7 -17t-17 -7t-17 7z
" />
    <glyph glyph-name="Scedilla" unicode="&#x15e;" horiz-adv-x="558" 
d="M361 -121q0 -103 -110 -103q-41 0 -63 17q-8 6 -8 16q0 7 6 13t13 6q5 0 11 -3q18 -10 43 -10q34 0 48.5 12.5t14.5 45.5q0 34 -37 34q-9 0 -23 -2t-19 -2q-15 0 -15 15q0 2 2 12l12 58q-69 9 -115 44.5t-61 82.5q-2 6 -2 12q0 13 9 22.5t23 9.5q22 0 29 -18
q19 -42 60 -67.5t104 -25.5q93 0 145 40.5t52 108.5q0 43 -33.5 71.5t-81 45.5t-95 36t-81 55t-33.5 90q0 82 64 137t182 55q70 0 123 -29.5t73 -78.5q3 -7 3 -14q0 -13 -9.5 -22.5t-22.5 -9.5q-16 0 -26 15q-48 77 -152 77q-82 0 -123.5 -36.5t-41.5 -86.5
q0 -38 33.5 -64.5t80.5 -43.5t94.5 -36.5t81 -57t33.5 -91.5q0 -105 -71 -164t-208 -59l-11 -45q18 2 27 2q75 0 75 -64z" />
    <glyph glyph-name="scedilla" unicode="&#x15f;" horiz-adv-x="424" 
d="M289 -121q0 -103 -110 -103q-41 0 -63 17q-8 6 -8 16q0 7 6 13t13 6q5 0 11 -3q18 -10 43 -10q34 0 48.5 12.5t14.5 45.5q0 34 -37 34q-9 0 -23 -2t-19 -2q-15 0 -15 15q0 2 2 12l13 63q-78 16 -115 71q-4 7 -4 15q0 12 8.5 20.5t20.5 8.5q13 0 22 -10q41 -49 122 -49
q52 0 86 19.5t34 59.5q0 24 -23.5 41t-56.5 28.5t-66.5 25t-57 40t-23.5 64.5q0 69 48 104.5t126 35.5q47 0 86.5 -20t56.5 -47q5 -8 5 -16q0 -12 -8.5 -20.5t-20.5 -8.5t-21 9q-42 42 -106 42q-42 0 -71 -16t-29 -52q0 -26 23.5 -44t56.5 -29.5t66 -25t56.5 -39t23.5 -62.5
q0 -74 -51.5 -112t-139.5 -38l-14 1l-12 -48q18 2 27 2q75 0 75 -64z" />
    <glyph glyph-name="Scaron" unicode="&#x160;" horiz-adv-x="558" 
d="M543 548q-48 77 -152 77q-82 0 -123.5 -36.5t-41.5 -86.5q0 -38 33.5 -64.5t80.5 -43.5t94.5 -36.5t81 -57t33.5 -91.5q0 -105 -71 -164t-206 -59q-83 0 -138.5 37.5t-73.5 91.5q-2 6 -2 12q0 13 9 22.5t23 9.5q22 0 29 -18q19 -42 60 -67.5t104 -25.5q93 0 145 40.5
t52 108.5q0 43 -33.5 71.5t-81 45.5t-95 36t-81 55t-33.5 90q0 82 64 137t182 55q70 0 123 -29.5t73 -78.5q3 -7 3 -14q0 -13 -9.5 -22.5t-22.5 -9.5q-16 0 -26 15zM417 773l96 68q9 6 16 6q10 0 17 -7t7 -17q0 -13 -12 -21l-111 -77q-8 -6 -17 -6t-15 6l-82 82q-6 6 -6 16
t7 17t17 7q11 0 17 -7z" />
    <glyph glyph-name="scaron" unicode="&#x161;" horiz-adv-x="424" 
d="M278 406q-42 0 -71 -16t-29 -52q0 -26 23.5 -44t56.5 -29.5t66 -25t56.5 -39t23.5 -62.5q0 -74 -51.5 -112t-139.5 -38q-54 0 -98 22.5t-65 53.5q-4 7 -4 15q0 12 8.5 20.5t20.5 8.5q13 0 22 -10q41 -49 122 -49q52 0 86 19.5t34 59.5q0 24 -23.5 41t-56.5 28.5t-66.5 25
t-57 40t-23.5 64.5q0 69 48 104.5t126 35.5q47 0 86.5 -20t56.5 -47q5 -8 5 -16q0 -12 -8.5 -20.5t-20.5 -8.5t-21 9q-42 42 -106 42zM304 553l96 68q9 6 16 6q10 0 17 -7t7 -17q0 -13 -12 -21l-111 -77q-8 -6 -17 -6t-15 6l-82 82q-6 6 -6 16t7 17t17 7q11 0 17 -7z" />
    <glyph glyph-name="Tcommaaccent" unicode="&#x162;" horiz-adv-x="538" 
d="M343 609h-179q-12 0 -19.5 8t-7.5 19q0 15 11.5 26t26.5 11h425q12 0 19.5 -8t7.5 -19q0 -15 -11.5 -26t-26.5 -11h-178l-103 -583q-2 -14 -14 -24t-26 -10t-22 10t-6 24zM297 -83q0 -94 -87 -164q-7 -5 -11 -5q-13 0 -13 13q0 6 6 11q42 35 42 70q0 13 -11.5 32.5
t-11.5 33.5q0 24 13.5 37t36.5 13q36 0 36 -41z" />
    <glyph glyph-name="tcommaaccent" unicode="&#x163;" horiz-adv-x="279" 
d="M169 454l19 105q2 13 13.5 22.5t24.5 9.5q14 0 21 -9.5t5 -22.5l-19 -105h66q11 0 18 -7t7 -18q0 -15 -10.5 -25t-25.5 -10h-64l-49 -276q-2 -10 -2 -18q0 -48 48 -48q11 0 18.5 -7.5t7.5 -18.5q0 -14 -11 -24t-26 -10q-50 0 -76 26t-26 70q0 15 3 30l49 276h-40
q-11 0 -18 7t-7 18q0 15 10.5 25t25.5 10h38zM188 -83q0 -94 -87 -164q-7 -5 -11 -5q-13 0 -13 13q0 6 6 11q42 35 42 70q0 13 -11.5 32.5t-11.5 33.5q0 24 13.5 37t36.5 13q36 0 36 -41z" />
    <glyph glyph-name="Tcaron" unicode="&#x164;" horiz-adv-x="538" 
d="M343 609h-179q-12 0 -19.5 8t-7.5 19q0 15 11.5 26t26.5 11h425q12 0 19.5 -8t7.5 -19q0 -15 -11.5 -26t-26.5 -11h-178l-103 -583q-2 -14 -14 -24t-26 -10t-22 10t-6 24zM401 773l96 68q9 6 16 6q10 0 17 -7t7 -17q0 -13 -12 -21l-111 -77q-8 -6 -17 -6t-15 6l-82 82
q-6 6 -6 16t7 17t17 7q11 0 17 -7z" />
    <glyph glyph-name="tcaron" unicode="&#x165;" horiz-adv-x="279" 
d="M169 454l19 105q2 13 13.5 22.5t24.5 9.5q14 0 21 -9.5t5 -22.5l-19 -105h66q11 0 18 -7t7 -18q0 -15 -10.5 -25t-25.5 -10h-64l-49 -276q-2 -10 -2 -18q0 -48 48 -48q11 0 18.5 -7.5t7.5 -18.5q0 -14 -11 -24t-26 -10q-50 0 -76 26t-26 70q0 15 3 30l49 276h-40
q-11 0 -18 7t-7 18q0 15 10.5 25t25.5 10h38zM436 690q0 -96 -103 -196q-7 -7 -14 -7q-16 0 -16 14q0 6 5 12q30 35 42.5 55.5t12.5 41.5q0 14 -11.5 34t-11.5 35q0 27 15 42t42 15q39 0 39 -46z" />
    <glyph glyph-name="Tbar" unicode="&#x166;" horiz-adv-x="538" 
d="M343 609h-179q-12 0 -19.5 8t-7.5 19q0 15 11.5 26t26.5 11h425q12 0 19.5 -8t7.5 -19q0 -15 -11.5 -26t-26.5 -11h-178l-43 -243h81q9 0 15 -6t6 -15q0 -12 -9 -20.5t-21 -8.5h-81l-51 -290q-2 -14 -14 -24t-26 -10t-22 10t-6 24l51 290h-87q-9 0 -15 6t-6 15
q0 12 9 20.5t21 8.5h87z" />
    <glyph glyph-name="tbar" unicode="&#x167;" horiz-adv-x="279" 
d="M169 454l19 105q2 13 13.5 22.5t24.5 9.5q14 0 21 -9.5t5 -22.5l-19 -105h66q11 0 18 -7t7 -18q0 -15 -10.5 -25t-25.5 -10h-64l-12 -69h69q9 0 15 -6t6 -15q0 -12 -9 -20.5t-21 -8.5h-69l-28 -157q-2 -10 -2 -18q0 -48 48 -48q11 0 18.5 -7.5t7.5 -18.5q0 -14 -11 -24
t-26 -10q-50 0 -76 26t-26 70q0 15 3 30l28 157h-45q-9 0 -15 6t-6 15q0 12 9 20.5t21 8.5h45l12 69h-40q-11 0 -18 7t-7 18q0 15 10.5 25t25.5 10h38z" />
    <glyph glyph-name="Utilde" unicode="&#x168;" horiz-adv-x="624" 
d="M313 -14q-103 0 -152.5 45.5t-49.5 117.5q0 24 5 56l78 442q2 14 13.5 24t26.5 10t22.5 -10t5.5 -24l-78 -442q-4 -23 -4 -42q0 -113 144 -113q166 0 193 155l78 442q2 14 13.5 24t26.5 10t22.5 -10t5.5 -24l-78 -442q-8 -46 -23.5 -81.5t-45 -68.5t-81 -51t-122.5 -18z
M404 819q26 0 58 -19.5t52 -19.5q27 0 51 30q7 9 19 9q10 0 17 -7t7 -17q0 -7 -5 -15q-34 -49 -97 -49q-26 0 -58 19.5t-52 19.5q-21 0 -51 -30q-9 -9 -19 -9t-17 7t-7 17q0 9 6 16q38 48 96 48z" />
    <glyph glyph-name="utilde" unicode="&#x169;" horiz-adv-x="482" 
d="M168 462q14 0 21.5 -9.5t5.5 -22.5l-46 -261q-4 -23 -4 -37q0 -84 104 -84q71 0 102.5 32t41.5 89l46 261q2 14 13 23t25 9q13 0 20.5 -9t5.5 -23l-46 -261q-15 -84 -62 -133t-153 -49q-84 0 -123 35t-39 93q0 24 5 54l46 261q2 14 12.5 23t24.5 9zM298 617
q26 0 58 -19.5t52 -19.5q27 0 51 30q7 9 19 9q10 0 17 -7t7 -17q0 -7 -5 -15q-34 -49 -97 -49q-26 0 -58 19.5t-52 19.5q-21 0 -51 -30q-9 -9 -19 -9t-17 7t-7 17q0 9 6 16q38 48 96 48z" />
    <glyph glyph-name="Umacron" unicode="&#x16a;" horiz-adv-x="624" 
d="M313 -14q-103 0 -152.5 45.5t-49.5 117.5q0 24 5 56l78 442q2 14 13.5 24t26.5 10t22.5 -10t5.5 -24l-78 -442q-4 -23 -4 -42q0 -113 144 -113q166 0 193 155l78 442q2 14 13.5 24t26.5 10t22.5 -10t5.5 -24l-78 -442q-8 -46 -23.5 -81.5t-45 -68.5t-81 -51t-122.5 -18z
M572 762q0 -12 -9 -20.5t-21 -8.5h-186q-9 0 -15 6t-6 15q0 12 9 20.5t21 8.5h186q9 0 15 -6t6 -15z" />
    <glyph glyph-name="umacron" unicode="&#x16b;" horiz-adv-x="482" 
d="M168 462q14 0 21.5 -9.5t5.5 -22.5l-46 -261q-4 -23 -4 -37q0 -84 104 -84q71 0 102.5 32t41.5 89l46 261q2 14 13 23t25 9q13 0 20.5 -9t5.5 -23l-46 -261q-15 -84 -62 -133t-153 -49q-84 0 -123 35t-39 93q0 24 5 54l46 261q2 14 12.5 23t24.5 9zM467 566
q0 -12 -9 -20.5t-21 -8.5h-186q-9 0 -15 6t-6 15q0 12 9 20.5t21 8.5h186q9 0 15 -6t6 -15z" />
    <glyph glyph-name="Ubreve" unicode="&#x16c;" horiz-adv-x="624" 
d="M313 -14q-103 0 -152.5 45.5t-49.5 117.5q0 24 5 56l78 442q2 14 13.5 24t26.5 10t22.5 -10t5.5 -24l-78 -442q-4 -23 -4 -42q0 -113 144 -113q166 0 193 155l78 442q2 14 13.5 24t26.5 10t22.5 -10t5.5 -24l-78 -442q-8 -46 -23.5 -81.5t-45 -68.5t-81 -51t-122.5 -18z
M438 730q-43 0 -70 20.5t-27 62.5t29 42q9 0 15.5 -6.5t6.5 -17.5q0 -3 -1 -9t-1 -9q0 -21 13.5 -29t42.5 -8q65 0 75 55q4 24 27 24q8 0 14.5 -6t6.5 -15q0 -50 -37 -77t-94 -27z" />
    <glyph glyph-name="ubreve" unicode="&#x16d;" horiz-adv-x="482" 
d="M168 462q14 0 21.5 -9.5t5.5 -22.5l-46 -261q-4 -23 -4 -37q0 -84 104 -84q71 0 102.5 32t41.5 89l46 261q2 14 13 23t25 9q13 0 20.5 -9t5.5 -23l-46 -261q-15 -84 -62 -133t-153 -49q-84 0 -123 35t-39 93q0 24 5 54l46 261q2 14 12.5 23t24.5 9zM334 529
q-43 0 -70 20.5t-27 62.5t29 42q9 0 15.5 -6.5t6.5 -17.5q0 -3 -1 -9t-1 -9q0 -21 13.5 -29t42.5 -8q65 0 75 55q4 24 27 24q8 0 14.5 -6t6.5 -15q0 -50 -37 -77t-94 -27z" />
    <glyph glyph-name="Uring" unicode="&#x16e;" horiz-adv-x="624" 
d="M313 -14q-103 0 -152.5 45.5t-49.5 117.5q0 24 5 56l78 442q2 14 13.5 24t26.5 10t22.5 -10t5.5 -24l-78 -442q-4 -23 -4 -42q0 -113 144 -113q166 0 193 155l78 442q2 14 13.5 24t26.5 10t22.5 -10t5.5 -24l-78 -442q-8 -46 -23.5 -81.5t-45 -68.5t-81 -51t-122.5 -18z
M443 703q-43 0 -66 20.5t-23 57.5q0 54 31.5 86t92.5 32q43 0 66 -20.5t23 -57.5q0 -54 -31.5 -86t-92.5 -32zM471 861q-74 0 -74 -75q0 -45 53 -45q74 0 74 75q0 45 -53 45z" />
    <glyph glyph-name="uring" unicode="&#x16f;" horiz-adv-x="482" 
d="M168 462q14 0 21.5 -9.5t5.5 -22.5l-46 -261q-4 -23 -4 -37q0 -84 104 -84q71 0 102.5 32t41.5 89l46 261q2 14 13 23t25 9q13 0 20.5 -9t5.5 -23l-46 -261q-15 -84 -62 -133t-153 -49q-84 0 -123 35t-39 93q0 24 5 54l46 261q2 14 12.5 23t24.5 9zM333 502
q-43 0 -66 20.5t-23 57.5q0 54 31.5 86t92.5 32q43 0 66 -20.5t23 -57.5q0 -54 -31.5 -86t-92.5 -32zM361 660q-74 0 -74 -75q0 -45 53 -45q74 0 74 75q0 45 -53 45z" />
    <glyph glyph-name="Uhungarumlaut" unicode="&#x170;" horiz-adv-x="619" 
d="M308 -14q-103 0 -152.5 45.5t-49.5 117.5q0 24 5 56l78 442q2 14 13.5 24t26.5 10t22.5 -10t5.5 -24l-78 -442q-4 -23 -4 -42q0 -113 144 -113q166 0 193 155l78 442q2 14 13.5 24t26.5 10t22.5 -10t5.5 -24l-78 -442q-8 -46 -23.5 -81.5t-45 -68.5t-81 -51t-122.5 -18z
M345 724q-15 14 2 31l104 108q19 19 39 -3q19 -20 -2 -39l-112 -95q-17 -16 -31 -2zM463 724q-15 14 2 31l104 108q19 19 39 -3q19 -20 -2 -39l-112 -95q-17 -16 -31 -2z" />
    <glyph glyph-name="uhungarumlaut" unicode="&#x171;" horiz-adv-x="482" 
d="M168 462q14 0 21.5 -9.5t5.5 -22.5l-46 -261q-4 -23 -4 -37q0 -84 104 -84q71 0 102.5 32t41.5 89l46 261q2 14 13 23t25 9q13 0 20.5 -9t5.5 -23l-46 -261q-15 -84 -62 -133t-153 -49q-84 0 -123 35t-39 93q0 24 5 54l46 261q2 14 12.5 23t24.5 9zM243 520q-15 14 2 31
l104 108q19 19 39 -3q19 -20 -2 -39l-112 -95q-17 -16 -31 -2zM361 520q-15 14 2 31l104 108q19 19 39 -3q19 -20 -2 -39l-112 -95q-17 -16 -31 -2z" />
    <glyph glyph-name="Uogonek" unicode="&#x172;" horiz-adv-x="624" 
d="M441 -125q9 0 15.5 -6.5t6.5 -15.5q0 -13 -13 -20q-28 -16 -76 -16q-42 0 -66 18.5t-24 52.5q0 59 67 100q-16 -2 -38 -2q-103 0 -152.5 45.5t-49.5 117.5q0 24 5 56l78 442q2 14 13.5 24t26.5 10t22.5 -10t5.5 -24l-78 -442q-4 -23 -4 -42q0 -113 144 -113
q166 0 193 155l78 442q2 14 13.5 24t26.5 10t22.5 -10t5.5 -24l-78 -442q-28 -167 -167 -206q-32 -12 -56.5 -37t-24.5 -56q0 -43 47 -43q22 0 44 9q8 3 13 3z" />
    <glyph glyph-name="uogonek" unicode="&#x173;" horiz-adv-x="482" 
d="M353 -125q9 0 15.5 -6.5t6.5 -15.5q0 -13 -13 -20q-28 -16 -76 -16q-42 0 -66 18.5t-24 52.5q0 59 64 100q-6 -1 -18 -1q-84 0 -123 35t-39 93q0 24 5 54l46 261q2 14 12.5 23t24.5 9t21.5 -9.5t5.5 -22.5l-46 -261q-4 -23 -4 -37q0 -84 104 -84q71 0 102.5 32t41.5 89
l46 261q2 14 13 23t25 9q13 0 20.5 -9t5.5 -23l-46 -261q-24 -136 -125 -169q-32 -12 -57.5 -37.5t-25.5 -56.5q0 -43 47 -43q22 0 44 9q8 3 13 3z" />
    <glyph glyph-name="Wcircumflex" unicode="&#x174;" horiz-adv-x="818" 
d="M503 527l-234 -509q-11 -26 -38 -26q-11 0 -19.5 7t-9.5 18l-67 617q-1 8 -1 13q0 14 10 24t24 10q30 0 34 -30l56 -512l234 517q11 25 36 25q27 0 30 -26l52 -516l237 520q10 22 32 22q14 0 24 -10t10 -24q0 -7 -4 -17l-287 -613q-12 -25 -34 -25q-28 0 -31 26zM621 726
l-67 67l-95 -68q-8 -6 -16 -6q-10 0 -17 7t-7 17q0 12 11 20l112 78q8 6 17 6t16 -7l81 -81q6 -6 6 -16t-7 -17t-17 -7t-17 7z" />
    <glyph glyph-name="wcircumflex" unicode="&#x175;" horiz-adv-x="640" 
d="M378 332l-148 -317q-10 -23 -35 -23q-23 0 -26 21l-75 404q-2 10 -2 13q0 14 9 23t23 9q11 0 20 -7t11 -17l59 -328l151 328q12 24 34 24q26 0 28 -22l37 -330l174 334q10 18 29 18q13 0 22.5 -9t9.5 -23q0 -9 -5 -18l-219 -399q-11 -21 -34 -21q-24 0 -27 23zM497 529
l-67 67l-95 -68q-8 -6 -16 -6q-10 0 -17 7t-7 17q0 12 11 20l112 78q8 6 17 6t16 -7l81 -81q6 -6 6 -16t-7 -17t-17 -7t-17 7z" />
    <glyph glyph-name="Ycircumflex" unicode="&#x176;" 
d="M258 -8q-15 0 -22.5 10t-5.5 24l51 287l-145 320q-3 6 -3 14q0 14 10 24t24 10q21 0 30 -19l129 -281l226 286q11 14 28 14q14 0 24 -10t10 -24q0 -12 -8 -22l-257 -312l-51 -287q-2 -14 -13.5 -24t-26.5 -10zM471 726l-67 67l-95 -68q-8 -6 -16 -6q-10 0 -17 7t-7 17
q0 12 11 20l112 78q8 6 17 6t16 -7l81 -81q6 -6 6 -16t-7 -17t-17 -7t-17 7z" />
    <glyph glyph-name="ycircumflex" unicode="&#x177;" horiz-adv-x="482" 
d="M168 462q14 0 21.5 -9.5t5.5 -22.5l-38 -215q-4 -23 -4 -37q0 -84 104 -84q65 0 100 34.5t44 86.5l38 215q2 14 13 23t25 9q13 0 20.5 -9t5.5 -23l-78 -442q-17 -97 -75 -143t-163 -46q-60 0 -95 26.5t-35 67.5q0 51 42 83t133 57q-75 4 -109.5 38.5t-34.5 89.5
q0 24 5 54l38 215q2 14 12.5 23t24.5 9zM122 -97q0 -48 77 -48q73 0 110 33t50 96l24 119q-22 -35 -69 -62t-88 -41t-72.5 -38.5t-31.5 -58.5zM412 529l-67 67l-95 -68q-8 -6 -16 -6q-10 0 -17 7t-7 17q0 12 11 20l112 78q8 6 17 6t16 -7l81 -81q6 -6 6 -16t-7 -17t-17 -7
t-17 7z" />
    <glyph glyph-name="Ydieresis" unicode="&#x178;" 
d="M258 -8q-15 0 -22.5 10t-5.5 24l51 287l-145 320q-3 6 -3 14q0 14 10 24t24 10q21 0 30 -19l129 -281l226 286q11 14 28 14q14 0 24 -10t10 -24q0 -12 -8 -22l-257 -312l-51 -287q-2 -14 -13.5 -24t-26.5 -10zM310 741q-30 0 -30 28q0 47 43 47q31 0 31 -29
q0 -46 -44 -46zM467 741q-30 0 -30 28q0 47 43 47q31 0 31 -29q0 -46 -44 -46z" />
    <glyph glyph-name="Zacute" unicode="&#x179;" horiz-adv-x="513" 
d="M469 0h-420q-12 0 -19.5 8t-7.5 19q0 13 10 24l469 558h-324q-12 0 -19.5 7.5t-7.5 19.5q0 15 11.5 26t27.5 11h384q12 0 19 -7.5t7 -19.5q0 -14 -9 -24l-466 -558h356q12 0 19.5 -7.5t7.5 -19.5q0 -15 -11 -26t-27 -11zM349 724q-15 14 2 31l104 108q19 19 39 -3
q19 -20 -2 -39l-112 -95q-17 -16 -31 -2z" />
    <glyph glyph-name="zacute" unicode="&#x17a;" horiz-adv-x="405" 
d="M112 419q0 15 10.5 25t25.5 10h274q11 0 18 -7t7 -18q0 -12 -11 -25l-306 -342h228q12 0 19 -7.5t7 -19.5q0 -14 -11 -24.5t-26 -10.5h-293q-11 0 -18 7t-7 18q0 12 11 25l310 344h-212q-12 0 -19 7t-7 18zM243 520q-15 14 2 31l104 108q19 19 39 -3q19 -20 -2 -39
l-112 -95q-17 -16 -31 -2z" />
    <glyph glyph-name="Zdotaccent" unicode="&#x17b;" horiz-adv-x="513" 
d="M469 0h-420q-12 0 -19.5 8t-7.5 19q0 13 10 24l469 558h-324q-12 0 -19.5 7.5t-7.5 19.5q0 15 11.5 26t27.5 11h384q12 0 19 -7.5t7 -19.5q0 -14 -9 -24l-466 -558h356q12 0 19.5 -7.5t7.5 -19.5q0 -15 -11 -26t-27 -11zM390 736q-32 0 -32 30q0 49 46 49q32 0 32 -30
q0 -49 -46 -49z" />
    <glyph glyph-name="zdotaccent" unicode="&#x17c;" horiz-adv-x="405" 
d="M112 419q0 15 10.5 25t25.5 10h274q11 0 18 -7t7 -18q0 -12 -11 -25l-306 -342h228q12 0 19 -7.5t7 -19.5q0 -14 -11 -24.5t-26 -10.5h-293q-11 0 -18 7t-7 18q0 12 11 25l310 344h-212q-12 0 -19 7t-7 18zM305 544q-32 0 -32 30q0 49 46 49q32 0 32 -30q0 -49 -46 -49z
" />
    <glyph glyph-name="Zcaron" unicode="&#x17d;" horiz-adv-x="513" 
d="M469 0h-420q-12 0 -19.5 8t-7.5 19q0 13 10 24l469 558h-324q-12 0 -19.5 7.5t-7.5 19.5q0 15 11.5 26t27.5 11h384q12 0 19 -7.5t7 -19.5q0 -14 -9 -24l-466 -558h356q12 0 19.5 -7.5t7.5 -19.5q0 -15 -11 -26t-27 -11zM401 773l96 68q9 6 16 6q10 0 17 -7t7 -17
q0 -13 -12 -21l-111 -77q-8 -6 -17 -6t-15 6l-82 82q-6 6 -6 16t7 17t17 7q11 0 17 -7z" />
    <glyph glyph-name="zcaron" unicode="&#x17e;" horiz-adv-x="405" 
d="M112 419q0 15 10.5 25t25.5 10h274q11 0 18 -7t7 -18q0 -12 -11 -25l-306 -342h228q12 0 19 -7.5t7 -19.5q0 -14 -11 -24.5t-26 -10.5h-293q-11 0 -18 7t-7 18q0 12 11 25l310 344h-212q-12 0 -19 7t-7 18zM304 553l96 68q9 6 16 6q10 0 17 -7t7 -17q0 -13 -12 -21
l-111 -77q-8 -6 -17 -6t-15 6l-82 82q-6 6 -6 16t7 17t17 7q11 0 17 -7z" />
    <glyph glyph-name="longs" unicode="&#x17f;" horiz-adv-x="224" 
d="M165 454l10 59q13 75 64.5 123.5t139.5 48.5q11 0 18 -7t7 -18q0 -15 -10.5 -25t-25.5 -10q-56 0 -88 -30.5t-41 -81.5l-94 -539q-14 -80 -68 -127.5t-144 -47.5q-11 0 -18 7t-7 18q0 15 10 24.5t25 9.5q58 0 93 32t45 88l73 416h-34q-11 0 -18 7t-7 18q0 15 10.5 25
t25.5 10h34z" />
    <glyph glyph-name="florin" unicode="&#x192;" horiz-adv-x="410" 
d="M424 640q0 -10 -7 -17.5t-18 -7.5q-5 0 -17 5q-31 13 -59 13q-44 0 -67.5 -28t-33.5 -84l-22 -123h97q11 0 19 -8t8 -19t-8 -19t-19 -8h-106l-62 -344q-17 -95 -69 -148t-139 -53q-37 0 -65 11q-22 8 -22 27q0 11 8 19t19 8q5 0 11 -2q31 -9 54 -9q57 0 92 37t47 101
l63 353h-65q-11 0 -19 8t-8 19t8 19t19 8h74l21 115q31 174 165 174q52 0 86 -22q15 -10 15 -25z" />
    <glyph glyph-name="AEmacron" unicode="&#x1e2;" horiz-adv-x="841" 
d="M769 0h-332q-14 0 -22 10t-6 24l29 165h-212l-149 -191q-12 -16 -32 -16q-13 0 -22.5 9.5t-9.5 22.5q0 14 11 26l494 607q13 16 31 16h327q12 0 19 -7.5t7 -19.5q0 -14 -11.5 -24.5t-25.5 -10.5h-287l-42 -241h220q11 0 18.5 -8t7.5 -19q0 -14 -11.5 -24.5t-25.5 -10.5
h-220l-43 -246h298q11 0 18.5 -8t7.5 -19q0 -14 -11.5 -24.5t-25.5 -10.5zM274 261h175l49 280zM789 770q0 -12 -9 -20.5t-21 -8.5h-186q-9 0 -15 6t-6 15q0 12 9 20.5t21 8.5h186q9 0 15 -6t6 -15z" />
    <glyph glyph-name="aemacron" unicode="&#x1e3;" horiz-adv-x="809" 
d="M592 -13q-146 0 -170 121q-23 -53 -72.5 -87t-117.5 -34q-79 0 -121 46t-42 123q0 137 74.5 224.5t191.5 87.5q101 0 168 -69q69 69 177 69q71 0 109 -31t38 -78q0 -162 -343 -162q-3 -15 -3 -31q0 -66 30 -93t93 -27t122 42q10 7 19 7q12 0 20.5 -8t8.5 -20
q0 -13 -15 -26q-65 -54 -167 -54zM133 166q0 -54 26.5 -87.5t82.5 -33.5q68 0 112.5 47t65.5 120q9 81 47 142q-22 25 -59 41.5t-78 16.5q-84 0 -140.5 -69t-56.5 -177zM491 248q136 0 204 27.5t68 76.5q0 24 -23 41t-70 17q-76 0 -121 -45.5t-58 -116.5zM657 584
q0 -12 -9 -20.5t-21 -8.5h-186q-9 0 -15 6t-6 15q0 12 9 20.5t21 8.5h186q9 0 15 -6t6 -15z" />
    <glyph glyph-name="Aringacute" unicode="&#x1fa;" horiz-adv-x="616" 
d="M481 199h-279l-106 -183q-13 -24 -34 -24q-14 0 -24 10t-10 24q0 10 6 20l350 601q-53 15 -53 74q0 54 31.5 86t92.5 32q43 0 66 -20.5t23 -57.5q0 -96 -87 -115l132 -605q2 -10 2 -14q0 -15 -9.5 -25t-26.5 -10q-27 0 -32 23zM471 261l-65 306l-172 -306h237zM448 801
q-74 0 -74 -75q0 -45 53 -45q74 0 74 75q0 45 -53 45zM397 868q-15 14 2 31l104 108q19 19 39 -3q19 -20 -2 -39l-112 -95q-17 -16 -31 -2z" />
    <glyph glyph-name="aringacute" unicode="&#x1fb;" horiz-adv-x="513" 
d="M401 88q-55 -101 -169 -101q-79 0 -121 46t-42 123q0 137 74.5 224.5t191.5 87.5q75 0 124 -43l1 5q7 32 37 32q15 0 22 -9.5t5 -22.5l-72 -406q-2 -14 -12.5 -23t-24.5 -9t-21 9t-5 23zM133 166q0 -54 26.5 -87.5t82.5 -33.5q77 0 124.5 60t62.5 147l19 113
q-47 47 -118 47q-84 0 -140.5 -69t-56.5 -177zM339 489q-43 0 -66 20.5t-23 57.5q0 54 31.5 86t92.5 32q43 0 66 -20.5t23 -57.5q0 -54 -31.5 -86t-92.5 -32zM367 647q-74 0 -74 -75q0 -45 53 -45q74 0 74 75q0 45 -53 45zM312 709q-14 15 2 31l104 108q19 19 39 -3
q19 -20 -2 -39l-112 -95q-17 -16 -31 -2z" />
    <glyph glyph-name="AEacute" unicode="&#x1fc;" horiz-adv-x="841" 
d="M769 0h-332q-14 0 -22 10t-6 24l29 165h-212l-149 -191q-12 -16 -32 -16q-13 0 -22.5 9.5t-9.5 22.5q0 14 11 26l494 607q13 16 31 16h327q12 0 19 -7.5t7 -19.5q0 -14 -11.5 -24.5t-25.5 -10.5h-287l-42 -241h220q11 0 18.5 -8t7.5 -19q0 -14 -11.5 -24.5t-25.5 -10.5
h-220l-43 -246h298q11 0 18.5 -8t7.5 -19q0 -14 -11.5 -24.5t-25.5 -10.5zM274 261h175l49 280zM647 724q-15 14 2 31l104 108q19 19 39 -3q19 -20 -2 -39l-112 -95q-17 -16 -31 -2z" />
    <glyph glyph-name="aeacute" unicode="&#x1fd;" horiz-adv-x="809" 
d="M592 -13q-146 0 -170 121q-23 -53 -72.5 -87t-117.5 -34q-79 0 -121 46t-42 123q0 137 74.5 224.5t191.5 87.5q101 0 168 -69q69 69 177 69q71 0 109 -31t38 -78q0 -162 -343 -162q-3 -15 -3 -31q0 -66 30 -93t93 -27t122 42q10 7 19 7q12 0 20.5 -8t8.5 -20
q0 -13 -15 -26q-65 -54 -167 -54zM133 166q0 -54 26.5 -87.5t82.5 -33.5q68 0 112.5 47t65.5 120q9 81 47 142q-22 25 -59 41.5t-78 16.5q-84 0 -140.5 -69t-56.5 -177zM491 248q136 0 204 27.5t68 76.5q0 24 -23 41t-70 17q-71 0 -118.5 -46.5t-60.5 -115.5zM474 538
q-14 14 2 31l104 108q19 19 39 -3q19 -20 -2 -39l-112 -95q-17 -16 -31 -2z" />
    <glyph glyph-name="Oslashacute" unicode="&#x1fe;" horiz-adv-x="712" 
d="M354 -14q-122 0 -186 55l-55 -57q-10 -10 -21 -10q-10 0 -18 8t-8 18q0 11 8 19l60 62q-40 62 -40 162q0 207 103 325.5t280 118.5q123 0 187 -57l54 56q10 10 21 10t18.5 -8t7.5 -18t-8 -19l-59 -61q39 -62 39 -160q0 -207 -103 -325.5t-280 -118.5zM466 625
q-141 0 -221 -99.5t-80 -273.5q0 -69 23 -115l425 440q-49 48 -147 48zM666 421q0 66 -22 113l-425 -440q49 -46 146 -46q141 0 221 99.5t80 273.5zM427 724q-15 14 2 31l104 108q19 19 39 -3q19 -20 -2 -39l-112 -95q-17 -16 -31 -2z" />
    <glyph glyph-name="oslashacute" unicode="&#x1ff;" horiz-adv-x="490" 
d="M242 -13q-91 0 -134 49l-40 -36q-10 -8 -19 -8q-11 0 -18.5 8t-7.5 18q0 11 10 20l48 43q-12 33 -12 77q0 61 15 115t44.5 98.5t81 70.5t117.5 26q88 0 132 -47l44 39q10 8 19 8q10 0 18 -8t8 -18q0 -11 -10 -20l-51 -46q13 -36 13 -79q0 -61 -15 -115t-44.5 -98.5
t-81 -70.5t-117.5 -26zM252 45q92 0 137.5 70.5t45.5 173.5q0 15 -4 37l-273 -245q29 -36 94 -36zM134 166q0 -18 3 -35l272 245q-30 34 -92 34q-92 0 -137.5 -70.5t-45.5 -173.5zM292 520q-14 14 2 31l104 108q19 19 39 -3q19 -20 -2 -39l-112 -95q-17 -16 -31 -2z" />
    <glyph glyph-name="Scommaaccent" unicode="&#x218;" horiz-adv-x="558" 
d="M543 548q-48 77 -152 77q-82 0 -123.5 -36.5t-41.5 -86.5q0 -38 33.5 -64.5t80.5 -43.5t94.5 -36.5t81 -57t33.5 -91.5q0 -105 -71 -164t-206 -59q-83 0 -138.5 37.5t-73.5 91.5q-2 6 -2 12q0 13 9 22.5t23 9.5q22 0 29 -18q19 -42 60 -67.5t104 -25.5q93 0 145 40.5
t52 108.5q0 43 -33.5 71.5t-81 45.5t-95 36t-81 55t-33.5 90q0 82 64 137t182 55q70 0 123 -29.5t73 -78.5q3 -7 3 -14q0 -13 -9.5 -22.5t-22.5 -9.5q-16 0 -26 15zM316 -83q0 -94 -87 -164q-7 -5 -11 -5q-13 0 -13 13q0 6 6 11q42 35 42 70q0 13 -11.5 32.5t-11.5 33.5
q0 24 13.5 37t36.5 13q36 0 36 -41z" />
    <glyph glyph-name="scommaaccent" unicode="&#x219;" horiz-adv-x="424" 
d="M278 406q-42 0 -71 -16t-29 -52q0 -26 23.5 -44t56.5 -29.5t66 -25t56.5 -39t23.5 -62.5q0 -74 -51.5 -112t-139.5 -38q-54 0 -98 22.5t-65 53.5q-4 7 -4 15q0 12 8.5 20.5t20.5 8.5q13 0 22 -10q41 -49 122 -49q52 0 86 19.5t34 59.5q0 24 -23.5 41t-56.5 28.5t-66.5 25
t-57 40t-23.5 64.5q0 69 48 104.5t126 35.5q47 0 86.5 -20t56.5 -47q5 -8 5 -16q0 -12 -8.5 -20.5t-20.5 -8.5t-21 9q-42 42 -106 42zM238 -83q0 -94 -87 -164q-7 -5 -11 -5q-13 0 -13 13q0 6 6 11q42 35 42 70q0 13 -11.5 32.5t-11.5 33.5q0 24 13.5 37t36.5 13
q36 0 36 -41z" />
    <glyph glyph-name="dotlessj" unicode="&#x237;" horiz-adv-x="194" 
d="M59 -35l82 465q2 14 13 23t24 9q14 0 21.5 -9.5t5.5 -22.5l-82 -465q-11 -64 -60.5 -107t-112.5 -43q-11 0 -18 7t-7 18q0 15 10.5 25t25.5 10q36 0 63.5 26t34.5 64z" />
    <glyph glyph-name="circumflex" unicode="&#x2c6;" horiz-adv-x="334" 
d="M344 529l-67 67l-95 -68q-8 -6 -16 -6q-10 0 -17 7t-7 17q0 12 11 20l112 78q8 6 17 6t16 -7l81 -81q6 -6 6 -16t-7 -17t-17 -7t-17 7z" />
    <glyph glyph-name="caron" unicode="&#x2c7;" horiz-adv-x="330" 
d="M259 553l96 68q9 6 16 6q10 0 17 -7t7 -17q0 -13 -12 -21l-111 -77q-8 -6 -17 -6t-15 6l-82 82q-6 6 -6 16t7 17t17 7q11 0 17 -7z" />
    <glyph glyph-name="breve" unicode="&#x2d8;" horiz-adv-x="315" 
d="M250 529q-43 0 -70 20.5t-27 62.5t29 42q9 0 15.5 -6.5t6.5 -17.5q0 -3 -1 -9t-1 -9q0 -21 13.5 -29t42.5 -8q65 0 75 55q4 24 27 24q8 0 14.5 -6t6.5 -15q0 -50 -37 -77t-94 -27z" />
    <glyph glyph-name="dotaccent" unicode="&#x2d9;" horiz-adv-x="277" 
d="M234 544q-32 0 -32 30q0 49 46 49q32 0 32 -30q0 -49 -46 -49z" />
    <glyph glyph-name="ring" unicode="&#x2da;" horiz-adv-x="267" 
d="M221 502q-43 0 -66 20.5t-23 57.5q0 54 31.5 86t92.5 32q43 0 66 -20.5t23 -57.5q0 -54 -31.5 -86t-92.5 -32zM249 660q-74 0 -74 -75q0 -45 53 -45q74 0 74 75q0 45 -53 45z" />
    <glyph glyph-name="ogonek" unicode="&#x2db;" horiz-adv-x="308" 
d="M207 -125q9 0 15.5 -6.5t6.5 -15.5q0 -13 -13 -20q-28 -16 -76 -16q-42 0 -66 18.5t-24 52.5q0 70 88 112h49q-33 -12 -58.5 -37.5t-25.5 -56.5q0 -43 47 -43q22 0 44 9q8 3 13 3z" />
    <glyph glyph-name="tilde" unicode="&#x2dc;" horiz-adv-x="378" 
d="M239 617q25 0 58 -19.5t52 -19.5q27 0 51 30q7 9 19 9q10 0 17 -7t7 -17q0 -7 -5 -15q-34 -49 -97 -49q-26 0 -58 19.5t-52 19.5q-21 0 -51 -30q-9 -9 -19 -9t-17 7t-7 17q0 9 6 16q38 48 96 48z" />
    <glyph glyph-name="hungarumlaut" unicode="&#x2dd;" horiz-adv-x="489" 
d="M213 520q-15 14 2 31l104 108q19 19 39 -3q19 -20 -2 -39l-112 -95q-17 -16 -31 -2zM331 520q-15 14 2 31l104 108q19 19 39 -3q19 -20 -2 -39l-112 -95q-17 -16 -31 -2z" />
    <glyph glyph-name="Wgrave" unicode="&#x1e80;" horiz-adv-x="818" 
d="M503 527l-234 -509q-11 -26 -38 -26q-11 0 -19.5 7t-9.5 18l-67 617q-1 8 -1 13q0 14 10 24t24 10q30 0 34 -30l56 -512l234 517q11 25 36 25q27 0 30 -26l52 -516l237 520q10 22 32 22q14 0 24 -10t10 -24q0 -7 -4 -17l-287 -613q-12 -25 -34 -25q-28 0 -31 26zM612 724
q-14 -14 -31 2l-112 95q-21 19 -2 39q20 22 39 3l104 -108q16 -17 2 -31z" />
    <glyph glyph-name="wgrave" unicode="&#x1e81;" horiz-adv-x="640" 
d="M378 332l-148 -317q-10 -23 -35 -23q-23 0 -26 21l-75 404q-2 10 -2 13q0 14 9 23t23 9q11 0 20 -7t11 -17l59 -328l151 328q12 24 34 24q26 0 28 -22l37 -330l174 334q10 18 29 18q13 0 22.5 -9t9.5 -23q0 -9 -5 -18l-219 -399q-11 -21 -34 -21q-24 0 -27 23zM492 520
q-14 -14 -31 2l-112 95q-21 19 -2 39q20 22 39 3l104 -108q16 -17 2 -31z" />
    <glyph glyph-name="Wacute" unicode="&#x1e82;" horiz-adv-x="818" 
d="M503 527l-234 -509q-11 -26 -38 -26q-11 0 -19.5 7t-9.5 18l-67 617q-1 8 -1 13q0 14 10 24t24 10q30 0 34 -30l56 -512l234 517q11 25 36 25q27 0 30 -26l52 -516l237 520q10 22 32 22q14 0 24 -10t10 -24q0 -7 -4 -17l-287 -613q-12 -25 -34 -25q-28 0 -31 26zM478 724
q-14 14 2 31l104 108q19 19 39 -3q19 -20 -2 -39l-112 -95q-17 -16 -31 -2z" />
    <glyph glyph-name="wacute" unicode="&#x1e83;" horiz-adv-x="640" 
d="M378 332l-148 -317q-10 -23 -35 -23q-23 0 -26 21l-75 404q-2 10 -2 13q0 14 9 23t23 9q11 0 20 -7t11 -17l59 -328l151 328q12 24 34 24q26 0 28 -22l37 -330l174 334q10 18 29 18q13 0 22.5 -9t9.5 -23q0 -9 -5 -18l-219 -399q-11 -21 -34 -21q-24 0 -27 23zM361 520
q-15 14 2 31l104 108q19 19 39 -3q19 -20 -2 -39l-112 -95q-17 -16 -31 -2z" />
    <glyph glyph-name="Wdieresis" unicode="&#x1e84;" horiz-adv-x="818" 
d="M503 527l-234 -509q-11 -26 -38 -26q-11 0 -19.5 7t-9.5 18l-67 617q-1 8 -1 13q0 14 10 24t24 10q30 0 34 -30l56 -512l234 517q11 25 36 25q27 0 30 -26l52 -516l237 520q10 22 32 22q14 0 24 -10t10 -24q0 -7 -4 -17l-287 -613q-12 -25 -34 -25q-28 0 -31 26zM461 741
q-30 0 -30 28q0 47 43 47q31 0 31 -29q0 -46 -44 -46zM618 741q-30 0 -30 28q0 47 43 47q31 0 31 -29q0 -46 -44 -46z" />
    <glyph glyph-name="wdieresis" unicode="&#x1e85;" horiz-adv-x="640" 
d="M378 332l-148 -317q-10 -23 -35 -23q-23 0 -26 21l-75 404q-2 10 -2 13q0 14 9 23t23 9q11 0 20 -7t11 -17l59 -328l151 328q12 24 34 24q26 0 28 -22l37 -330l174 334q10 18 29 18q13 0 22.5 -9t9.5 -23q0 -9 -5 -18l-219 -399q-11 -21 -34 -21q-24 0 -27 23zM336 534
q-30 0 -30 28q0 47 43 47q31 0 31 -29q0 -46 -44 -46zM493 534q-30 0 -30 28q0 47 43 47q31 0 31 -29q0 -46 -44 -46z" />
    <glyph glyph-name="Ygrave" unicode="&#x1ef2;" 
d="M258 -8q-15 0 -22.5 10t-5.5 24l51 287l-145 320q-3 6 -3 14q0 14 10 24t24 10q21 0 30 -19l129 -281l226 286q11 14 28 14q14 0 24 -10t10 -24q0 -12 -8 -22l-257 -312l-51 -287q-2 -14 -13.5 -24t-26.5 -10zM442 724q-14 -14 -31 2l-112 95q-21 19 -2 39q20 22 39 3
l104 -108q16 -17 2 -31z" />
    <glyph glyph-name="ygrave" unicode="&#x1ef3;" horiz-adv-x="482" 
d="M168 462q14 0 21.5 -9.5t5.5 -22.5l-38 -215q-4 -23 -4 -37q0 -84 104 -84q65 0 100 34.5t44 86.5l38 215q2 14 13 23t25 9q13 0 20.5 -9t5.5 -23l-78 -442q-17 -97 -75 -143t-163 -46q-60 0 -95 26.5t-35 67.5q0 51 42 83t133 57q-75 4 -109.5 38.5t-34.5 89.5
q0 24 5 54l38 215q2 14 12.5 23t24.5 9zM122 -97q0 -48 77 -48q73 0 110 33t50 96l24 119q-22 -35 -69 -62t-88 -41t-72.5 -38.5t-31.5 -58.5zM380 520q-14 -14 -31 2l-112 95q-21 19 -2 39q20 22 39 3l104 -108q16 -17 2 -31z" />
    <glyph glyph-name="thinspace" unicode="&#x2009;" horiz-adv-x="14" 
 />
    <glyph glyph-name="endash" unicode="&#x2013;" horiz-adv-x="584" 
d="M531 286q0 -13 -9.5 -22t-22.5 -9h-324q-10 0 -16.5 6.5t-6.5 16.5q0 12 10 21.5t22 9.5h324q10 0 16.5 -6.5t6.5 -16.5z" />
    <glyph glyph-name="emdash" unicode="&#x2014;" horiz-adv-x="918" 
d="M865 286q0 -13 -9.5 -22t-22.5 -9h-658q-10 0 -16.5 6.5t-6.5 16.5q0 12 10 21.5t22 9.5h658q10 0 16.5 -6.5t6.5 -16.5z" />
    <glyph glyph-name="quoteleft" unicode="&#x2018;" horiz-adv-x="154" 
d="M114 478q0 96 103 196q7 7 14 7q16 0 16 -14q0 -6 -5 -12q-30 -35 -42.5 -55.5t-12.5 -41.5q0 -14 11.5 -34t11.5 -35q0 -27 -15 -42t-42 -15q-39 0 -39 46z" />
    <glyph glyph-name="quoteright" unicode="&#x2019;" horiz-adv-x="154" 
d="M235 635q0 -96 -103 -196q-7 -7 -14 -7q-16 0 -16 14q0 6 5 12q30 35 42.5 55.5t12.5 41.5q0 14 -11.5 34t-11.5 35q0 27 15 42t42 15q39 0 39 -46z" />
    <glyph glyph-name="quotesinglbase" unicode="&#x201a;" horiz-adv-x="179" 
d="M135 41q0 -96 -103 -196q-7 -7 -14 -7q-16 0 -16 14q0 6 5 12q30 35 42.5 55.5t12.5 41.5q0 14 -11.5 34t-11.5 35q0 27 15 42t42 15q39 0 39 -46z" />
    <glyph glyph-name="quotedblleft" unicode="&#x201c;" horiz-adv-x="292" 
d="M114 478q0 96 103 196q7 7 14 7q16 0 16 -14q0 -6 -5 -12q-30 -35 -42.5 -55.5t-12.5 -41.5q0 -14 11.5 -34t11.5 -35q0 -27 -15 -42t-42 -15q-39 0 -39 46zM253 478q0 96 103 196q7 7 14 7q16 0 16 -14q0 -6 -5 -12q-30 -35 -42.5 -55.5t-12.5 -41.5q0 -14 11.5 -34
t11.5 -35q0 -27 -15 -42t-42 -15q-39 0 -39 46z" />
    <glyph glyph-name="quotedblright" unicode="&#x201d;" horiz-adv-x="292" 
d="M374 635q0 -96 -103 -196q-7 -7 -14 -7q-16 0 -16 14q0 6 5 12q30 35 42.5 55.5t12.5 41.5q0 14 -11.5 34t-11.5 35q0 27 15 42t42 15q39 0 39 -46zM235 635q0 -96 -103 -196q-7 -7 -14 -7q-16 0 -16 14q0 6 5 12q30 35 42.5 55.5t12.5 41.5q0 14 -11.5 34t-11.5 35
q0 27 15 42t42 15q39 0 39 -46z" />
    <glyph glyph-name="quotedblbase" unicode="&#x201e;" horiz-adv-x="313" 
d="M269 41q0 -96 -103 -196q-7 -7 -14 -7q-16 0 -16 14q0 6 5 12q30 35 42.5 55.5t12.5 41.5q0 14 -11.5 34t-11.5 35q0 27 15 42t42 15q39 0 39 -46zM130 41q0 -96 -103 -196q-7 -7 -14 -7q-16 0 -16 14q0 6 5 12q30 35 42.5 55.5t12.5 41.5q0 14 -11.5 34t-11.5 35
q0 27 15 42t42 15q39 0 39 -46z" />
    <glyph glyph-name="dagger" unicode="&#x2020;" horiz-adv-x="438" 
d="M193 -150q-20 0 -17 17l100 600h-113q-16 0 -16 18q0 13 6.5 22t18.5 9h113l28 171q5 25 32 25t22 -25l-32 -171h113q16 0 16 -19q0 -30 -25 -30h-112l-111 -600q-3 -17 -23 -17z" />
    <glyph glyph-name="daggerdbl" unicode="&#x2021;" horiz-adv-x="438" 
d="M276 467h-113q-16 0 -16 18q0 13 6.5 22t18.5 9h113l28 171q5 25 32 25t22 -25l-32 -171h113q16 0 16 -19q0 -30 -25 -30h-113l-40 -211l-34 -211h113q16 0 16 -18q0 -13 -6.5 -22t-18.5 -9h-113l-28 -171q-5 -25 -31 -25q-28 0 -23 25l32 171h-113q-16 0 -16 19
q0 30 25 30h113l40 211z" />
    <glyph glyph-name="bullet" unicode="&#x2022;" horiz-adv-x="418" 
d="M262 149q-130 0 -130 130q0 136 130 136t130 -136q0 -130 -130 -130z" />
    <glyph glyph-name="perthousand" unicode="&#x2030;" horiz-adv-x="1076" 
d="M652 681q10 0 17 -6.5t7 -17.5q0 -9 -5 -16l-436 -636q-8 -13 -22 -13q-11 0 -18 7t-7 18q0 8 6 16l436 636q8 12 22 12zM260 407q38 0 64.5 18t37 46.5t14.5 49.5t4 40q0 80 -79 80q-38 0 -64.5 -18t-37 -46.5t-14.5 -49.5t-4 -40q0 -80 79 -80zM309 687
q59 0 90.5 -32.5t31.5 -86.5q0 -53 -16.5 -97.5t-58.5 -77t-104 -32.5q-59 0 -90.5 32.5t-31.5 86.5q0 53 16.5 97.5t58.5 77t104 32.5zM565 33q38 0 64.5 18t37 46.5t14.5 49.5t4 40q0 80 -79 80q-38 0 -64.5 -18t-37 -46.5t-14.5 -49.5t-4 -40q0 -80 79 -80zM614 313
q59 0 90.5 -32.5t31.5 -86.5q0 -53 -16.5 -97.5t-58.5 -77t-104 -32.5q-59 0 -90.5 32.5t-31.5 86.5q0 53 16.5 97.5t58.5 77t104 32.5zM895 33q38 0 64.5 18t37 46.5t14.5 49.5t4 40q0 80 -79 80q-38 0 -64.5 -18t-37 -46.5t-14.5 -49.5t-4 -40q0 -80 79 -80zM944 313
q59 0 90.5 -32.5t31.5 -86.5q0 -53 -16.5 -97.5t-58.5 -77t-104 -32.5q-59 0 -90.5 32.5t-31.5 86.5q0 53 16.5 97.5t58.5 77t104 32.5z" />
    <glyph glyph-name="guilsinglleft" unicode="&#x2039;" horiz-adv-x="367" 
d="M115 208q0 11 11 22l194 192q9 9 19 9q9 0 16 -7t7 -17q0 -9 -10 -19l-186 -180l121 -178q4 -7 4 -14q0 -9 -7 -16t-17 -7q-12 0 -18 9l-129 191q-5 8 -5 15z" />
    <glyph glyph-name="guilsinglright" unicode="&#x203a;" horiz-adv-x="367" 
d="M328 216q0 -11 -11 -22l-194 -192q-9 -9 -19 -9q-9 0 -16 7t-7 17q0 9 10 19l186 180l-121 178q-4 7 -4 14q0 9 7 16t17 7q12 0 18 -9l129 -191q5 -8 5 -15z" />
    <glyph glyph-name="fraction" unicode="&#x2044;" horiz-adv-x="313" 
d="M14 33l356 632q9 16 25 16q11 0 19 -8t8 -19q0 -6 -4 -14l-356 -632q-10 -16 -25 -16q-11 0 -19 8t-8 19q0 7 4 14z" />
    <glyph glyph-name="zerosuperior" unicode="&#x2070;" horiz-adv-x="298" 
d="M230 466q50 0 72.5 46t22.5 105q0 66 -56 66q-50 0 -72.5 -46t-22.5 -105q0 -66 56 -66zM223 419q-103 0 -103 104q0 83 38 145t118 62q103 0 103 -104q0 -83 -38 -145t-118 -62z" />
    <glyph glyph-name="foursuperior" unicode="&#x2074;" horiz-adv-x="260" 
d="M299 537h16q8 0 14 -6t6 -15q0 -10 -9 -18.5t-20 -8.5h-16l-7 -41q-4 -26 -31 -26q-10 0 -16.5 7.5t-4.5 18.5l7 41h-111q-9 0 -15 6t-6 15q0 8 9 19l166 186q12 12 24 12q11 0 18 -7.5t5 -18.5zM180 537h67l17 96z" />
    <glyph glyph-name="fivesuperior" unicode="&#x2075;" horiz-adv-x="261" 
d="M234 621q42 0 69 -21.5t27 -60.5q0 -58 -35.5 -89.5t-95.5 -31.5q-66 0 -97 59q-3 6 -3 12q0 10 7 17t17 7q14 0 21 -12q11 -19 24.5 -27t38.5 -8q33 0 51.5 18t18.5 46q0 20 -13 32.5t-38 12.5q-29 0 -57 -14q-12 -6 -21 -6q-20 0 -20 20q0 6 4 16l37 109q7 22 29 22
h133q21 0 21 -21q0 -12 -9 -20.5t-21 -8.5h-114l-21 -59q20 8 47 8z" />
    <glyph glyph-name="sixsuperior" unicode="&#x2076;" horiz-adv-x="275" 
d="M255 619q40 0 64.5 -20.5t24.5 -58.5q0 -59 -37 -90t-93 -31q-94 0 -94 108q0 99 43 151t112 52q47 0 70 -23q7 -7 7 -17t-6.5 -16.5t-16.5 -6.5q-6 0 -16 5q-21 11 -46 11q-32 0 -58 -23.5t-32 -71.5q31 31 78 31zM222 466q33 0 52 18t19 47q0 20 -14.5 31.5t-37.5 11.5
q-45 0 -68 -42q-2 -10 -2 -16q0 -50 51 -50z" />
    <glyph glyph-name="sevensuperior" unicode="&#x2077;" horiz-adv-x="234" 
d="M128 443q2 36 17.5 68t37.5 54t44 40.5t38.5 35.5t18.5 31h-131q-9 0 -15 6t-6 15q0 12 9 20.5t21 8.5h161q21 0 21 -21q0 -32 -15 -57t-37.5 -43.5t-45.5 -37t-41.5 -48.5t-23.5 -68q-1 -11 -10 -19t-20 -8t-17.5 6.5t-5.5 16.5z" />
    <glyph glyph-name="eightsuperior" unicode="&#x2078;" horiz-adv-x="271" 
d="M209 419q-46 0 -72 20.5t-26 57.5q0 67 63 90q-28 14 -28 49q0 44 32 69t84 25q42 0 66.5 -18t24.5 -52q0 -27 -14.5 -46t-34.5 -27q37 -17 37 -59q0 -109 -132 -109zM256 683q-59 0 -59 -44q0 -31 46 -31q58 0 58 45q0 30 -45 30zM235 563q-34 0 -52 -16t-18 -42
q0 -39 53 -39q34 0 51.5 15t17.5 41q0 41 -52 41z" />
    <glyph glyph-name="ninesuperior" unicode="&#x2079;" horiz-adv-x="275" 
d="M222 530q-40 0 -64.5 20.5t-24.5 58.5q0 59 37 90t93 31q94 0 94 -108q0 -99 -43 -151t-112 -52q-47 0 -70 23q-7 7 -7 17t6.5 16.5t16.5 6.5q6 0 16 -5q21 -11 46 -11q32 0 58 23.5t32 71.5q-31 -31 -78 -31zM255 683q-33 0 -52 -18t-19 -47q0 -20 14.5 -31.5
t37.5 -11.5q19 0 38 11t30 31q2 10 2 16q0 50 -51 50z" />
    <glyph glyph-name="zeroinferior" unicode="&#x2080;" horiz-adv-x="298" 
d="M146 -10q50 0 72.5 46t22.5 105q0 66 -56 66q-50 0 -72.5 -46t-22.5 -105q0 -66 56 -66zM139 -57q-103 0 -103 104q0 83 38 145t118 62q103 0 103 -104q0 -83 -38 -145t-118 -62z" />
    <glyph glyph-name="oneinferior" unicode="&#x2081;" horiz-adv-x="196" 
d="M131 180l-31 -19q-11 -7 -19 -7q-11 0 -18 7t-7 18q0 15 14 23l83 46q8 5 16 5q10 0 17 -7.5t5 -18.5l-45 -253q-1 -10 -10 -18t-20 -8q-10 0 -17 7.5t-5 18.5z" />
    <glyph glyph-name="twoinferior" unicode="&#x2082;" horiz-adv-x="266" 
d="M70 204q29 50 106 50q42 0 68 -20t26 -55q0 -39 -30.5 -69.5t-66.5 -45t-66.5 -32.5t-30.5 -35h137q8 0 14 -6t6 -15q0 -11 -8.5 -19t-20.5 -8h-167q-8 0 -14 6t-6 15q0 35 20.5 61t50 41.5t59 28.5t50 30.5t20.5 39.5q0 36 -49 36q-35 0 -59 -29q-8 -10 -20 -10
q-10 0 -16.5 6.5t-6.5 16.5q0 6 4 13z" />
    <glyph glyph-name="threeinferior" unicode="&#x2083;" horiz-adv-x="257" 
d="M248 205l-80 -70q35 0 55 -22t20 -53q0 -52 -32.5 -84.5t-98.5 -32.5q-39 0 -63 18.5t-32 42.5q-2 6 -2 11q0 10 6.5 16.5t16.5 6.5q14 0 21 -13q18 -34 57 -34q73 0 73 61q0 39 -52 39h-22q-20 0 -20 21q0 11 9 19l73 67h-92q-21 0 -21 21q0 12 8 20.5t21 8.5h144
q21 0 21 -21q0 -15 -10 -22z" />
    <glyph glyph-name="fourinferior" unicode="&#x2084;" horiz-adv-x="260" 
d="M216 63h16q8 0 14 -6t6 -15q0 -10 -9 -18.5t-20 -8.5h-16l-7 -41q-4 -26 -31 -26q-10 0 -16.5 7.5t-4.5 18.5l7 41h-111q-9 0 -15 6t-6 15q0 8 9 19l166 186q12 12 24 12q11 0 18 -7.5t5 -18.5zM97 63h67l17 96z" />
    <glyph glyph-name="fiveinferior" unicode="&#x2085;" horiz-adv-x="262" 
d="M150 145q42 0 69 -21.5t27 -60.5q0 -58 -35.5 -89.5t-95.5 -31.5q-66 0 -97 59q-3 6 -3 12q0 10 7 17t17 7q14 0 21 -12q11 -19 24.5 -27t38.5 -8q33 0 51.5 18t18.5 46q0 20 -13 32.5t-38 12.5q-29 0 -57 -14q-12 -6 -21 -6q-20 0 -20 20q0 6 4 16l37 109q7 22 29 22
h133q21 0 21 -21q0 -12 -9 -20.5t-21 -8.5h-114l-21 -59q20 8 47 8z" />
    <glyph glyph-name="sixinferior" unicode="&#x2086;" horiz-adv-x="275" 
d="M171 143q40 0 64.5 -20.5t24.5 -58.5q0 -59 -37 -90t-93 -31q-94 0 -94 108q0 99 43 151t112 52q47 0 70 -23q7 -7 7 -17t-6.5 -16.5t-16.5 -6.5q-6 0 -16 5q-21 11 -46 11q-32 0 -58 -23.5t-32 -71.5q31 31 78 31zM138 -10q33 0 52 18t19 47q0 20 -14.5 31.5t-37.5 11.5
q-45 0 -68 -42q-2 -10 -2 -16q0 -50 51 -50z" />
    <glyph glyph-name="seveninferior" unicode="&#x2087;" horiz-adv-x="234" 
d="M45 -31q2 36 17.5 68t37.5 54t44 40.5t38.5 35.5t18.5 31h-131q-9 0 -15 6t-6 15q0 12 9 20.5t21 8.5h161q21 0 21 -21q0 -32 -15 -57t-37.5 -43.5t-45.5 -37t-41.5 -48.5t-23.5 -68q-1 -11 -10 -19t-20 -8q-10 0 -17 6.5t-6 16.5z" />
    <glyph glyph-name="eightinferior" unicode="&#x2088;" horiz-adv-x="271" 
d="M125 -57q-46 0 -72 20.5t-26 57.5q0 67 63 90q-28 14 -28 49q0 44 32 69t84 25q42 0 66.5 -18t24.5 -52q0 -27 -14.5 -46t-34.5 -27q37 -17 37 -59q0 -109 -132 -109zM172 207q-59 0 -59 -44q0 -31 46 -31q58 0 58 45q0 30 -45 30zM151 87q-34 0 -52 -16t-18 -42
q0 -39 53 -39q34 0 51.5 15t17.5 41q0 41 -52 41z" />
    <glyph glyph-name="nineinferior" unicode="&#x2089;" horiz-adv-x="275" 
d="M139 54q-40 0 -64.5 20.5t-24.5 58.5q0 59 37 90t93 31q94 0 94 -108q0 -99 -43 -151t-112 -52q-47 0 -70 23q-7 7 -7 17t6.5 16.5t16.5 6.5q6 0 16 -5q21 -11 46 -11q32 0 58 23.5t32 71.5q-31 -31 -78 -31zM172 207q-33 0 -52 -18t-19 -47q0 -20 14.5 -31.5t37.5 -11.5
q45 0 68 42q2 10 2 16q0 50 -51 50z" />
    <glyph glyph-name="Euro" unicode="&#x20ac;" horiz-adv-x="631" 
d="M353 -14q-125 0 -192 62.5t-68 190.5h-34q-10 0 -16.5 6.5t-6.5 16.5q0 12 10 21.5t22 9.5h26q3 45 10 80h-22q-10 0 -16 6.5t-6 16.5q0 13 9.5 22t22.5 9h26q38 126 130 193t225 67q72 0 127 -30.5t83 -80.5q4 -7 4 -16q0 -14 -9.5 -23t-22.5 -9q-18 0 -26 13
q-54 84 -165 84q-101 0 -171.5 -51t-102.5 -147h168q10 0 16 -6.5t6 -16.5q0 -13 -9.5 -22t-22.5 -9h-173q-7 -33 -10 -80h169q10 0 16.5 -6.5t6.5 -16.5q0 -12 -10 -21.5t-22 -9.5h-161q3 -101 53.5 -146t146.5 -45q111 0 186 82q12 13 26 13t23 -9.5t9 -22.5t-10 -24
q-40 -47 -107 -74t-138 -27z" />
    <glyph glyph-name="numero" unicode="&#x2116;" horiz-adv-x="1066" 
d="M743 681q13 0 21 -9.5t6 -23.5l-110 -623q-6 -33 -36 -33q-20 0 -31 17l-353 560l-93 -544q-2 -13 -13.5 -23t-25.5 -10q-12 0 -19.5 8t-7.5 20v5l110 623q2 14 13 23.5t24 9.5q17 0 27 -15l354 -563l95 545q6 33 39 33zM932 311q57 0 85.5 47t28.5 110q0 79 -73 79
q-56 0 -85 -46.5t-29 -108.5q0 -81 73 -81zM896 110q-32 0 -32 28q0 20 12.5 34.5t33.5 14.5q32 0 32 -28q0 -21 -12 -35t-34 -14zM922 257q-60 0 -92.5 31t-32.5 92q0 87 48.5 154t137.5 67q124 0 124 -121q0 -89 -47.5 -156t-137.5 -67z" />
    <glyph glyph-name="trademark" unicode="&#x2122;" horiz-adv-x="404" 
d="M155 652h123q7 0 12 -5t5 -12t-5 -12t-12 -5h-42v-132q0 -8 -6 -13.5t-13 -5.5q-8 0 -13.5 5.5t-5.5 13.5v132h-43q-7 0 -12 5t-5 12t5 12t12 5zM406 507q-10 0 -15 8l-32 55v-85q0 -7 -5.5 -12.5t-12.5 -5.5t-12.5 5.5t-5.5 12.5v152q0 7 5.5 12.5t12.5 5.5q11 0 17 -11
l48 -86l48 86q6 11 17 11q7 0 12.5 -5.5t5.5 -12.5v-152q0 -7 -5.5 -12.5t-12.5 -5.5t-12.5 5.5t-5.5 12.5v85l-32 -55q-5 -8 -15 -8z" />
    <glyph glyph-name="minus" unicode="&#x2212;" horiz-adv-x="454" 
d="M493 222q0 -12 -10 -21.5t-22 -9.5h-400q-10 0 -16.5 6.5t-6.5 16.5q0 13 9.5 22t22.5 9h400q10 0 16.5 -6.5t6.5 -16.5z" />
    <glyph glyph-name="radical" unicode="&#x221a;" horiz-adv-x="539" 
d="M610 671l-365 -822q-9 -20 -29 -20q-21 0 -26 20l-99 381l-3 15q0 11 8.5 19.5t19.5 8.5q21 0 27 -21l82 -326l334 768q8 18 26 18q11 0 19.5 -8.5t8.5 -19.5q0 -6 -3 -13z" />
    <glyph glyph-name="notequal" unicode="&#x2260;" horiz-adv-x="454" 
d="M479 145q0 -13 -9.5 -22t-22.5 -9h-252l-38 -45q-6 -6 -13 -6q-16 0 -16 16q0 7 5 12l20 23h-106q-10 0 -16.5 6.5t-6.5 16.5q0 13 10 22t22 9h144l86 99h-212q-10 0 -16.5 6.5t-6.5 16.5q0 12 10 21.5t22 9.5h249l39 44q7 8 15 8q16 0 16 -16q0 -5 -4 -11l-23 -25h108
q10 0 16.5 -6.5t6.5 -16.5q0 -13 -9.5 -22t-22.5 -9h-147l-86 -99h215q10 0 16.5 -6.5t6.5 -16.5z" />
    <glyph glyph-name="lessequal" unicode="&#x2264;" horiz-adv-x="337" 
d="M342 31q0 -13 -10 -22t-22 -9h-283q-10 0 -16.5 6.5t-6.5 16.5q0 13 10 22t22 9h283q10 0 16.5 -6.5t6.5 -16.5zM122 284l224 -145q12 -8 12 -23q0 -11 -8 -19t-19 -8q-9 0 -21 8l-251 167q-9 7 -9 19q0 16 18 27l310 170q10 5 17 5q11 0 19 -8t8 -19q0 -16 -16 -25z" />
    <glyph glyph-name="greaterequal" unicode="&#x2265;" horiz-adv-x="337" 
d="M4 23q0 13 10 22t23 9h283q10 0 16 -6.5t6 -16.5q0 -13 -9.5 -22t-22.5 -9h-283q-10 0 -16.5 6.5t-6.5 16.5zM38 142l280 148l-228 147q-10 7 -10 21q0 11 8 19t19 8q8 0 16 -5l256 -170q9 -7 9 -19q0 -16 -18 -27l-306 -170q-10 -5 -17 -5q-11 0 -19 8t-8 19q0 16 18 26
z" />
    <glyph glyph-name="commaaccent" unicode="&#xf6c3;" horiz-adv-x="141" 
d="M98 -83q0 -94 -87 -164q-7 -5 -11 -5q-13 0 -13 13q0 6 6 11q42 35 42 70q0 13 -11.5 32.5t-11.5 33.5q0 24 13.5 37t36.5 13q36 0 36 -41z" />
    <glyph glyph-name="s_t" unicode="&#xfb06;" horiz-adv-x="683" 
d="M278 406q-42 0 -71 -16t-29 -52q0 -26 23.5 -44t56.5 -29.5t66 -25t56.5 -39t23.5 -62.5q0 -74 -51.5 -112t-139.5 -38q-54 0 -98 22.5t-65 53.5q-4 7 -4 15q0 12 8.5 20.5t20.5 8.5q13 0 22 -10q41 -49 122 -49q52 0 86 19.5t34 59.5q0 24 -23.5 41t-56.5 28.5t-66.5 25
t-57 40t-23.5 64.5q0 69 48 104.5t126 35.5q48 0 88 -21q-36 41 -36 100q0 61 48 101t116 40q76 0 112.5 -37t36.5 -102q0 -22 -5 -50l-8 -44h65q11 0 18 -7t7 -18q0 -15 -10.5 -25t-25.5 -10h-64l-49 -276q-2 -10 -2 -18q0 -48 48 -48q11 0 18.5 -7.5t7.5 -18.5
q0 -14 -11 -24t-26 -10q-50 0 -76 26t-26 70q0 15 3 30l49 276h-40q-11 0 -18 7t-7 18q0 15 10.5 25t25.5 10h39l7 42q4 28 4 47q0 90 -95 90q-53 0 -83.5 -28t-30.5 -73q0 -67 50 -128q8 -10 8 -20q0 -12 -8.5 -20.5t-20.5 -8.5t-21 9q-42 42 -106 42z" />
    <glyph glyph-name="zero.tab" horiz-adv-x="592" 
d="M304 46q61 0 109 34.5t77 93.5t44 132t15 155q0 86 -35 126t-107 40q-61 0 -109 -34.5t-77 -93.5t-44 -132t-15 -155q0 -86 35 -126t107 -40zM294 -14q-100 0 -149 53.5t-49 164.5q0 62 8.5 123.5t31.5 128t58 116.5t92.5 82.5t130.5 32.5q100 0 149 -53.5t49 -164.5
q0 -62 -8.5 -123.5t-31.5 -128t-58 -116.5t-92.5 -82.5t-130.5 -32.5z" />
    <glyph glyph-name="one.tab" horiz-adv-x="592" 
d="M410 585l-180 -121q-9 -5 -18 -5q-13 0 -22 9t-9 22q0 18 16 28l240 156q11 7 22 7q14 0 22 -10t6 -23l-110 -623q-2 -14 -13.5 -23.5t-25.5 -9.5t-21.5 9.5t-5.5 23.5z" />
    <glyph glyph-name="two.tab" horiz-adv-x="592" 
d="M195 561q64 126 223 126q86 0 134.5 -48.5t48.5 -123.5q0 -53 -25 -100t-65 -81.5t-88 -65t-96 -56t-88 -49t-65 -49.5t-25 -52h351q11 0 18.5 -8t7.5 -19q0 -14 -11.5 -24.5t-25.5 -10.5h-386q-11 0 -18.5 8t-7.5 19q0 48 25 88t65.5 69.5t89 56.5t97 54.5t89 57.5
t65.5 71.5t25 90.5q0 51 -32.5 81.5t-92.5 30.5q-57 0 -93.5 -24.5t-65.5 -71.5q-10 -16 -27 -16q-13 0 -22 9t-9 22q0 7 4 15z" />
    <glyph glyph-name="three.tab" horiz-adv-x="592" 
d="M371 408h10q95 0 137 -47t42 -123q0 -119 -70.5 -185.5t-201.5 -66.5q-137 0 -195 116q-3 6 -3 14q0 13 8.5 21.5t21.5 8.5q19 0 27 -16q42 -84 151 -84q97 0 146 47.5t49 135.5q0 119 -128 119h-70q-11 0 -18 7t-7 18q0 14 12 26l222 214h-258q-11 0 -18 7t-7 18
q0 15 10.5 25t25.5 10h326q11 0 18 -7t7 -18q0 -14 -12 -26z" />
    <glyph glyph-name="four.tab" horiz-adv-x="592" 
d="M484 217h57q12 0 19.5 -7.5t7.5 -18.5q0 -14 -11.5 -25t-26.5 -11h-57l-23 -130q-2 -14 -13.5 -23.5t-25.5 -9.5t-21.5 9.5t-5.5 23.5l23 130h-292q-11 0 -18.5 8t-7.5 19q0 12 11 24l402 460q12 14 30 14q14 0 22 -9.5t6 -23.5zM185 217h233l59 335z" />
    <glyph glyph-name="five.tab" horiz-adv-x="592" 
d="M376 446q91 0 144 -48t53 -134q0 -137 -72.5 -207.5t-200.5 -70.5q-80 0 -134.5 36.5t-76.5 99.5q-3 9 -3 15q0 13 8.5 21.5t21.5 8.5q20 0 28 -19q22 -53 60.5 -76.5t101.5 -23.5q93 0 146.5 51t53.5 153q0 67 -37.5 100t-103.5 33q-90 0 -167 -60q-18 -14 -32 -14
q-11 0 -19 8t-8 19q0 6 5 19l109 292q9 24 34 24h305q11 0 18.5 -8t7.5 -19q0 -14 -11.5 -24.5t-25.5 -10.5h-282l-76 -205q63 40 153 40z" />
    <glyph glyph-name="six.tab" horiz-adv-x="592" 
d="M381 433q87 0 139.5 -47t52.5 -131q0 -135 -74 -202t-203 -67q-96 0 -142.5 65t-46.5 178q0 218 84.5 338t241.5 120q51 0 93.5 -19t58.5 -41q6 -8 6 -18q0 -13 -9 -22t-22 -9q-10 0 -21 8q-54 40 -122 40q-99 0 -160.5 -78t-73.5 -204q28 34 78 61.5t120 27.5zM306 46
q92 0 146 48t54 150q0 65 -37 97t-99 32q-64 0 -108.5 -28.5t-82.5 -80.5q-5 -28 -5 -63q0 -71 34.5 -113t97.5 -42z" />
    <glyph glyph-name="seven.tab" horiz-adv-x="592" 
d="M168 19q7 89 49 169.5t96.5 137.5t108.5 105.5t92 94.5t40 85h-337q-11 0 -18.5 8t-7.5 19q0 14 11.5 24.5t25.5 10.5h373q11 0 18.5 -8t7.5 -19q0 -47 -20 -90t-52.5 -78.5t-72 -70.5t-80.5 -74.5t-76 -82.5t-61 -101.5t-33 -124.5q-1 -14 -12 -23t-25 -9q-12 0 -20 8
t-7 19z" />
    <glyph glyph-name="eight.tab" horiz-adv-x="592" 
d="M293 -14q-94 0 -148 43t-54 125q0 161 153 214q-65 38 -65 118q0 98 65 149.5t173 51.5q83 0 130 -35.5t47 -106.5q0 -120 -118 -177q43 -17 67 -55.5t24 -89.5q0 -112 -76 -174.5t-198 -62.5zM406 627q-75 0 -117.5 -34.5t-42.5 -100.5q0 -48 31 -72.5t88 -24.5
q74 0 117.5 36t43.5 103q0 93 -120 93zM355 335q-91 0 -144 -44t-53 -128q0 -58 39 -87.5t107 -29.5q89 0 142.5 43.5t53.5 128.5q0 117 -145 117z" />
    <glyph glyph-name="nine.tab" horiz-adv-x="592" 
d="M330 240q-87 0 -139.5 47t-52.5 131q0 135 74 202t203 67q96 0 142.5 -65t46.5 -178q0 -218 -84.5 -338t-241.5 -120q-51 0 -93.5 19t-58.5 41q-6 8 -6 18q0 13 9 22t22 9q10 0 21 -8q54 -40 122 -40q99 0 160.5 78t73.5 204q-28 -34 -78 -61.5t-120 -27.5zM405 627
q-92 0 -146 -48t-54 -150q0 -65 37 -97t99 -32q64 0 108.5 28.5t82.5 80.5q5 28 5 63q0 71 -34.5 113t-97.5 42z" />
    <glyph glyph-name="ornament.A" horiz-adv-x="732" 
d="M681 687q51 0 86 -33t35 -83q0 -59 -43.5 -92t-110.5 -33q-37 0 -68 6q-21 -32 -56 -47q59 0 98 -31.5t39 -83.5q0 -44 -21 -71.5t-52 -36.5t-68 -15.5t-68 -10.5t-52 -20.5t-21 -45.5q0 -21 13.5 -33.5t35.5 -12.5q18 0 28 10.5t12 22.5t12 22.5t28 10.5q44 0 44 -45
q0 -21 -11.5 -36t-30.5 -22.5t-38 -11t-39 -3.5q-64 0 -114.5 30t-79.5 76.5t-44 97t-15 97.5q0 79 43 137t123 58q64 0 104 -44q-54 -35 -85 -64t-51 -73.5t-20 -102.5q0 -27 2 -40q2 -16 12 -16q9 0 9 17q0 5 -0.5 18.5t-0.5 20.5q0 70 35 117.5t103 89.5q46 28 67 55
q-59 15 -152 81q-12 9 -41 34.5t-52 39.5t-44 14q-18 0 -29 -11.5t-11 -29.5t11.5 -28.5t28.5 -10.5q13 0 33 20q7 6 17 6t18 -7.5t8 -18.5q0 -22 -26.5 -37t-53.5 -15q-38 0 -65 27t-27 64q0 38 27 65.5t65 27.5q54 0 122 -58q41 58 113 58q58 0 100 -42t42 -100
q0 -22 -7 -43q22 -4 50 -4q39 0 68.5 17.5t29.5 55.5q0 26 -18.5 45t-46.5 19q-12 0 -24.5 -6t-19.5 -6q-11 0 -18.5 7.5t-7.5 18.5q0 14 11 22q21 16 59 16zM543 510q6 16 6 35q0 34 -23.5 62t-62.5 28q-49 0 -71 -42q72 -57 151 -83z" />
    <glyph glyph-name="zero.onum" horiz-adv-x="610" 
d="M310 47q114 0 173.5 86.5t59.5 210.5q0 148 -153 148q-113 0 -172.5 -87.5t-59.5 -210.5q0 -147 152 -147zM400 552q99 0 154 -49t55 -148q0 -70 -18.5 -134t-54.5 -117t-97 -85t-139 -32q-99 0 -153.5 49t-54.5 148q0 69 18.5 133t54.5 117.5t97 85.5t138 32z" />
    <glyph glyph-name="one.onum" horiz-adv-x="364" 
d="M282 458l-124 -79q-8 -5 -18 -5q-13 0 -21.5 8.5t-8.5 21.5q0 17 15 26l178 108q14 8 24 8q14 0 22 -9.5t6 -22.5l-87 -490q-2 -14 -13 -23t-24 -9q-14 0 -21.5 9.5t-5.5 22.5z" />
    <glyph glyph-name="two.onum" horiz-adv-x="508" 
d="M144 434q65 118 216 118q85 0 130 -38t45 -100q0 -47 -22.5 -86t-58.5 -64.5t-79.5 -46.5t-87 -38t-79.5 -33.5t-59 -38t-24 -47.5h331q11 0 18 -7t7 -18q0 -15 -10.5 -25t-25.5 -10h-368q-11 0 -18 7t-7 18q0 62 43 107t104.5 72t123 52.5t104.5 62.5t43 86
q0 40 -31 63.5t-90 23.5q-55 0 -90 -22t-63 -67q-10 -16 -27 -16q-13 0 -21.5 8.5t-8.5 21.5q0 9 5 17z" />
    <glyph glyph-name="three.onum" horiz-adv-x="532" 
d="M309 273h10q95 0 137 -47t42 -123q0 -120 -68.5 -186t-203.5 -66q-72 0 -122.5 32.5t-72.5 84.5q-3 6 -3 13q0 13 8.5 21.5t21.5 8.5q20 0 28 -18q38 -82 150 -82q97 0 146 47.5t49 135.5q0 119 -128 119h-70q-11 0 -18 7t-7 18q0 14 12 26l222 214h-258q-11 0 -18 7
t-7 18q0 15 10.5 25t25.5 10h326q11 0 18 -7t7 -18q0 -14 -12 -26z" />
    <glyph glyph-name="four.onum" horiz-adv-x="532" 
d="M428 87h57q11 0 18 -7t7 -18q0 -15 -10.5 -25t-25.5 -10h-57l-24 -137q-2 -14 -13.5 -23.5t-24.5 -9.5t-21 9.5t-6 23.5l24 137h-293q-11 0 -18 7t-7 18q0 13 11 25l402 455q12 14 28 14q14 0 22 -9.5t6 -23.5zM126 87h237l59 335z" />
    <glyph glyph-name="five.onum" horiz-adv-x="558" 
d="M337 311q92 0 144.5 -46t52.5 -136q0 -136 -76.5 -207t-201.5 -71q-81 0 -134 36.5t-73 101.5q-2 8 -2 12q0 13 9 22t22 9q20 0 28 -19q22 -55 58.5 -77.5t102.5 -22.5q90 0 145 51.5t55 152.5q0 67 -37.5 100t-103.5 33q-102 0 -170 -61q-15 -13 -30 -13q-11 0 -18.5 8
t-7.5 19q0 6 5 19l110 292q9 24 34 24h304q11 0 18.5 -8t7.5 -19q0 -14 -11.5 -24.5t-25.5 -10.5h-282l-76 -205q54 40 153 40z" />
    <glyph glyph-name="six.onum" horiz-adv-x="566" 
d="M367 429q88 0 140 -45t52 -129q0 -135 -74 -202t-203 -67q-96 0 -142.5 65t-46.5 178q0 217 84.5 334.5t241.5 117.5q51 0 93.5 -19t58.5 -41q6 -8 6 -18q0 -13 -9 -22t-22 -9q-10 0 -21 8q-54 40 -122 40q-99 0 -160.5 -76t-73.5 -202q27 33 77.5 60t120.5 27zM292 46
q92 0 146 48t54 150q0 125 -136 125q-64 0 -108.5 -28t-82.5 -79q-5 -27 -5 -61q0 -71 34.5 -113t97.5 -42z" />
    <glyph glyph-name="seven.onum" horiz-adv-x="483" 
d="M91 -116q7 89 49 169.5t96.5 137.5t108.5 105.5t92 94.5t40 85h-337q-11 0 -18.5 8t-7.5 19q0 14 11.5 24.5t25.5 10.5h373q11 0 18.5 -8t7.5 -19q0 -47 -20 -90t-52.5 -78.5t-72 -70.5t-80.5 -74.5t-76 -82.5t-61 -101.5t-33 -124.5q-1 -14 -12 -23t-25 -9q-12 0 -20 8
t-7 19z" />
    <glyph glyph-name="eight.onum" horiz-adv-x="550" 
d="M272 -14q-94 0 -148 43.5t-54 122.5t39 134t114 79q-65 38 -65 117q0 96 65 147t172 51q83 0 130 -35.5t47 -105.5q0 -125 -117 -174q43 -17 67 -55t24 -89q0 -114 -73 -174.5t-201 -60.5zM384 620q-75 0 -117.5 -33.5t-42.5 -99.5q0 -47 31.5 -71t88.5 -24
q74 0 117.5 35t43.5 102q0 91 -121 91zM333 332q-92 0 -144 -44.5t-52 -125.5q0 -59 38.5 -87.5t107.5 -28.5q89 0 142.5 42.5t53.5 127.5q0 116 -146 116z" />
    <glyph glyph-name="nine.onum" horiz-adv-x="566" 
d="M293 109q-88 0 -140 45t-52 129q0 135 74 202t203 67q96 0 142.5 -65t46.5 -178q0 -217 -84.5 -334.5t-241.5 -117.5q-51 0 -93.5 19t-58.5 41q-6 8 -6 18q0 13 9 22t22 9q10 0 21 -8q54 -40 122 -40q99 0 160.5 76t73.5 202q-27 -33 -77.5 -60t-120.5 -27zM368 492
q-92 0 -146 -48t-54 -150q0 -125 136 -125q64 0 108.5 28t82.5 79q5 28 5 61q0 71 -34.5 113t-97.5 42z" />
    <glyph glyph-name="hyphen.case" horiz-adv-x="364" 
d="M369 341q0 -13 -10 -22t-22 -9h-200q-10 0 -16.5 6.5t-6.5 16.5q0 13 10 22t22 9h200q10 0 16.5 -6.5t6.5 -16.5z" />
    <glyph glyph-name="parenleft.case" horiz-adv-x="294" 
d="M119 337q27 152 58 236.5t72.5 129t113.5 73.5q8 3 13 3q11 0 19.5 -8.5t8.5 -19.5q0 -18 -23 -28q-33 -15 -58.5 -34t-44.5 -46.5t-32.5 -54.5t-25 -71t-19 -81t-18.5 -99q-28 -156 -28 -220q0 -63 19 -103t66 -65q17 -8 17 -26q0 -11 -8.5 -19.5t-19.5 -8.5q-5 0 -13 3
q-62 30 -91.5 81t-29.5 139q0 85 24 219z" />
    <glyph glyph-name="parenright.case" horiz-adv-x="294" 
d="M293 337q-40 -218 -90 -307.5t-154 -131.5q-8 -3 -13 -3q-11 0 -19.5 8.5t-8.5 19.5q0 18 23 28q33 15 58.5 34t44.5 46.5t32.5 54.5t25 71t19 81t18.5 99q28 156 28 220q0 63 -19 103t-66 65q-17 9 -17 26q0 11 8.5 19.5t19.5 8.5q5 0 13 -3q62 -30 91.5 -81t29.5 -139
q0 -86 -24 -219z" />
    <glyph glyph-name="bracketleft.case" horiz-adv-x="259" 
d="M225 -75q0 -12 -9.5 -21t-20.5 -9h-101q-14 0 -21.5 9.5t-5.5 22.5l145 820q2 14 13 23t24 9h101q10 0 16 -6.5t6 -15.5q0 -12 -9.5 -21t-21.5 -9h-69l-137 -780h69q9 0 15 -6.5t6 -15.5z" />
    <glyph glyph-name="bracketright.case" horiz-adv-x="259" 
d="M6 -83q0 12 9.5 21t21.5 9h69l137 780h-69q-9 0 -15 6.5t-6 15.5q0 12 9.5 21t21.5 9h101q13 0 20.5 -9t5.5 -23l-145 -820q-2 -14 -13 -23t-24 -9h-101q-10 0 -16 6.5t-6 15.5z" />
    <glyph glyph-name="braceleft.case" horiz-adv-x="338" 
d="M299 -73q0 -13 -10.5 -22.5t-23.5 -9.5q-62 0 -92 29t-30 71q0 33 27 126t27 124q0 40 -23 54.5t-64 14.5h-7q-19 0 -19 20q0 10 8 18t19 8h7q48 0 77.5 19t39.5 74q5 25 8.5 68.5t6 74.5t12.5 68t27 60t50.5 39t81.5 16q10 0 17 -7t7 -17q0 -12 -11 -22t-23 -10
q-39 0 -58.5 -19t-27.5 -54q-7 -31 -14.5 -98.5t-11.5 -90.5q-9 -55 -47 -89.5t-96 -34.5q51 0 76.5 -24.5t25.5 -69.5q0 -33 -23 -123.5t-23 -112.5q0 -56 63 -56q10 0 17 -7t7 -17z" />
    <glyph glyph-name="braceright.case" horiz-adv-x="338" 
d="M158 747q0 13 10.5 22.5t23.5 9.5q62 0 92 -29t30 -71q0 -33 -27 -126t-27 -124q0 -40 23 -54.5t64 -14.5h7q19 0 19 -20q0 -10 -8 -18t-19 -8h-7q-48 0 -77.5 -19t-39.5 -74q-5 -25 -8.5 -68.5t-6 -74.5t-12.5 -68t-27 -60t-50.5 -39t-81.5 -16q-10 0 -17 7t-7 17
q0 12 11 22t23 10q39 0 58.5 19t27.5 54q7 31 14.5 98.5t11.5 90.5q9 55 47 89.5t96 34.5q-51 0 -76.5 24.5t-25.5 69.5q0 33 23 123.5t23 112.5q0 56 -63 56q-10 0 -17 7t-7 17z" />
    <glyph glyph-name="guillemotleft.case" horiz-adv-x="522" 
d="M137 333q0 11 11 22l194 192q9 9 19 9q9 0 16 -7t7 -17q0 -9 -10 -19l-186 -180l121 -178q4 -7 4 -14q0 -9 -7 -16t-17 -7q-12 0 -18 9l-129 191q-5 8 -5 15zM291 333q0 11 11 22l194 192q9 9 19 9q9 0 16 -7t7 -17q0 -9 -10 -19l-186 -180l121 -178q4 -7 4 -14
q0 -9 -7 -16t-17 -7q-12 0 -18 9l-129 191q-5 8 -5 15z" />
    <glyph glyph-name="guillemotright.case" horiz-adv-x="522" 
d="M504 341q0 -11 -11 -22l-194 -192q-9 -9 -19 -9q-9 0 -16 7t-7 17q0 9 10 19l186 180l-121 178q-4 7 -4 14q0 9 7 16t17 7q12 0 18 -9l129 -191q5 -8 5 -15zM350 341q0 -11 -11 -22l-194 -192q-9 -9 -19 -9q-9 0 -16 7t-7 17q0 9 10 19l186 180l-121 178q-4 7 -4 14
q0 9 7 16t17 7q12 0 18 -9l129 -191q5 -8 5 -15z" />
    <glyph glyph-name="guilsinglleft.case" horiz-adv-x="367" 
d="M136 333q0 11 11 22l194 192q9 9 19 9q9 0 16 -7t7 -17q0 -9 -10 -19l-186 -180l121 -178q4 -7 4 -14q0 -9 -7 -16t-17 -7q-12 0 -18 9l-129 191q-5 8 -5 15z" />
    <glyph glyph-name="guilsinglright.case" horiz-adv-x="367" 
d="M350 341q0 -11 -11 -22l-194 -192q-9 -9 -19 -9q-9 0 -16 7t-7 17q0 9 10 19l186 180l-121 178q-4 7 -4 14q0 9 7 16t17 7q12 0 18 -9l129 -191q5 -8 5 -15z" />
    <glyph glyph-name="endash.case" horiz-adv-x="584" 
d="M541 341q0 -13 -10 -22t-22 -9h-324q-10 0 -16.5 6.5t-6.5 16.5q0 13 9.5 22t22.5 9h324q10 0 16.5 -6.5t6.5 -16.5z" />
    <glyph glyph-name="emdash.case" horiz-adv-x="918" 
d="M875 341q0 -13 -10 -22t-22 -9h-658q-10 0 -16.5 6.5t-6.5 16.5q0 13 9.5 22t22.5 9h658q10 0 16.5 -6.5t6.5 -16.5z" />
    <glyph glyph-name="periodcentered.case" horiz-adv-x="164" 
d="M131 280q-40 0 -40 34q0 28 15.5 44.5t41.5 16.5q40 0 40 -34q0 -28 -15.5 -44.5t-41.5 -16.5z" />
    <glyph glyph-name="questiondown.case" horiz-adv-x="461" 
d="M364 513q22 -27 22 -63q0 -44 -27 -76.5t-65.5 -53.5t-77 -42.5t-65.5 -57.5t-27 -85q0 -44 30.5 -67t86.5 -23q130 0 150 120q2 14 12 23.5t26 9.5q13 0 21 -8.5t7 -20.5q-4 -80 -61.5 -131.5t-164.5 -51.5q-82 0 -127 36.5t-45 102.5q0 52 19 93t48 65t62.5 45.5
t62.5 35.5t48 33.5t19 42.5q0 16 -8 34q-4 9 -4 18q0 14 10 23.5t23 9.5q15 0 25 -12zM376 681q40 0 40 -34q0 -28 -15.5 -44.5t-41.5 -16.5q-40 0 -40 34q0 28 15.5 44.5t41.5 16.5z" />
    <glyph glyph-name="exclamdown.case" horiz-adv-x="208" 
d="M103 -8q-36 0 -29 35l98 471q4 18 23 18t17 -18l-68 -471q-4 -35 -41 -35zM225 681q40 0 40 -34q0 -28 -15.5 -44.5t-41.5 -16.5q-40 0 -40 34q0 28 15.5 44.5t41.5 16.5z" />
    <glyph glyph-name="bullet.case" horiz-adv-x="418" 
d="M272 207q-130 0 -130 130q0 136 130 136t130 -136q0 -130 -130 -130z" />
    <glyph glyph-name="dollar.onum" horiz-adv-x="473" 
d="M445 463q-22 30 -47 46t-72 16q-66 0 -100 -28t-34 -68q0 -32 27.5 -54t67 -36.5t79.5 -31.5t67.5 -50t27.5 -80q0 -79 -55.5 -131.5t-147.5 -56.5l-14 -77q-2 -11 -10.5 -18.5t-20.5 -7.5q-11 0 -17 8t-4 18l13 76q-109 11 -156 104q-4 8 -4 16q0 13 9 22t22 9
q18 0 27 -16q44 -75 133 -75q78 0 119 30t41 88q0 35 -28 58.5t-68 38.5t-79.5 31.5t-67.5 47.5t-28 76q0 77 56 118t129 48l11 61q2 11 10.5 18.5t20.5 7.5q10 0 16.5 -7.5t4.5 -18.5l-11 -61q40 -4 79 -27t58 -64q3 -6 3 -13q0 -13 -9 -22t-22 -9q-16 0 -26 14z" />
    <glyph glyph-name="cent.onum" horiz-adv-x="502" 
d="M75 202q0 157 71 242.5t193 98.5l12 69q6 26 30 26q10 0 17 -7.5t5 -18.5l-12 -68q101 -9 142 -80q4 -7 4 -15q0 -13 -8.5 -21.5t-21.5 -8.5q-15 0 -24 12q-40 53 -125 53q-105 0 -161.5 -71.5t-56.5 -203.5q0 -161 141 -161q85 0 135 50q13 13 26 13t21.5 -8.5
t8.5 -21.5t-11 -25q-9 -11 -26.5 -23.5t-57 -27t-85.5 -17.5l-13 -76q-2 -11 -11 -18.5t-19 -7.5t-17 7.5t-5 18.5l14 77q-77 4 -121.5 58.5t-44.5 154.5z" />
    <glyph glyph-name="sterling.onum" horiz-adv-x="501" 
d="M325 252h-104q2 -17 2 -40q0 -42 -19 -80t-49 -63q27 12 57 12q25 0 72 -17.5t70 -17.5q25 0 39.5 8t37.5 31q12 12 25 12t21.5 -8.5t8.5 -21.5q0 -10 -7 -20q-44 -62 -131 -62q-29 0 -82 19t-83 19q-26 0 -43 -6t-47 -22q-12 -6 -19 -6q-12 0 -20.5 8.5t-8.5 20.5
q0 18 20 29q42 24 68 64.5t26 90.5q0 27 -5 50h-44q-11 0 -18 7t-7 18q0 15 10.5 25t24.5 10h16q-18 50 -18 85q0 76 60.5 132.5t167.5 56.5q71 0 116 -33.5t55 -81.5q2 -12 2 -16q0 -13 -8.5 -21.5t-21.5 -8.5q-22 0 -29 21q-26 80 -125 80q-68 0 -110 -34.5t-42 -90.5
q0 -37 21 -89h131q11 0 18.5 -7t7.5 -18q0 -15 -10.5 -25t-25.5 -10z" />
    <glyph glyph-name="yen.onum" horiz-adv-x="485" 
d="M305 178l-27 -154q-2 -13 -13 -22.5t-25 -9.5q-13 0 -20.5 9.5t-5.5 22.5l27 154h-111q-11 0 -18 7t-7 18q0 15 10.5 25t25.5 10h111l6 36h-111q-11 0 -18 7t-7 18q0 15 10.5 25t25.5 10h90l-123 195q-5 9 -5 17q0 14 9 23t23 9q19 0 28 -16l125 -208l194 211
q11 13 26 13q13 0 22.5 -9t9.5 -23q0 -12 -10 -23l-184 -189h82q11 0 18 -7t7 -18q0 -15 -10.5 -25t-25.5 -10h-112l-6 -36h112q11 0 18 -7t7 -18q0 -15 -10.5 -25t-25.5 -10h-112z" />
    <glyph glyph-name="florin.onum" horiz-adv-x="410" 
d="M423 633q0 -11 -7.5 -18t-17.5 -7q-5 0 -17 5q-31 13 -59 13q-44 0 -67.5 -28t-33.5 -84l-21 -116h97q11 0 19 -8t8 -19t-8 -19t-19 -8h-106l-62 -344q-17 -95 -69 -148t-139 -53q-37 0 -65 11q-22 8 -22 27q0 11 8 19t19 8q5 0 11 -2q31 -9 54 -9q57 0 92 37t47 101
l63 353h-65q-11 0 -19 8t-8 19t8 19t19 8h74l20 108q31 174 165 174q52 0 86 -22q15 -10 15 -25z" />
    <glyph glyph-name="Euro.onum" horiz-adv-x="550" 
d="M310 312h-143q-7 -23 -9 -53h142q10 0 16.5 -6.5t6.5 -16.5q0 -13 -9.5 -22t-22.5 -9h-136q2 -79 46 -118t117 -39q80 0 139 61q14 14 27 14t22 -9t9 -22q0 -12 -11 -24q-78 -81 -197 -81q-104 0 -158 60.5t-56 157.5h-27q-10 0 -16.5 6.5t-6.5 16.5q0 12 10 21.5t22 9.5
h21q2 31 8 53h-19q-10 0 -16.5 6.5t-6.5 16.5q0 13 9.5 22t22.5 9h24q76 219 291 219q61 0 107 -26t60 -56q4 -9 4 -16q0 -13 -9 -21.5t-22 -8.5q-15 0 -25 13q-43 55 -122 55q-160 0 -219 -159h136q10 0 16.5 -6.5t6.5 -16.5q0 -13 -10 -22t-22 -9z" />
    <glyph glyph-name="ampersand.salt1" horiz-adv-x="616" 
d="M260 485q0 -59 14 -96q63 38 104 85.5t41 93.5q0 29 -16.5 45t-42.5 16q-46 0 -73 -39t-27 -105zM407 95q-63 57 -102.5 104.5t-64.5 104.5q-104 -61 -104 -148q0 -50 37 -81t92 -31q79 0 142 51zM455 55q-88 -69 -200 -69q-81 0 -132.5 43.5t-51.5 118.5q0 67 34.5 114
t111.5 96q-21 55 -21 123q0 93 47 149.5t128 56.5q51 0 82 -29t31 -81q0 -68 -47 -123t-141 -116q47 -108 161 -197q36 42 59 100q9 22 30 22q13 0 22 -9t9 -22q0 -11 -6 -23q-28 -60 -67 -106q42 -30 85 -52q18 -8 18 -28q0 -13 -9 -22t-22 -9q-42 0 -121 63z" />
    <glyph glyph-name="ornament.B" horiz-adv-x="732" 
d="M696 681q39 0 66 -27t27 -65q0 -61 -58 -92t-127 -31l-19 1q2 -19 2 -45q0 -108 -68 -198t-146 -123q-6 -3 -6 -11q0 -10 11 -10q3 0 9 2q76 32 134 97t85 151q43 0 72.5 -30t29.5 -85q0 -93 -80.5 -158t-213.5 -65q-112 0 -186.5 55.5t-74.5 155.5q0 71 59 71
q43 0 43 -45q0 -19 -18 -36.5t-18 -30.5q0 -18 15 -32.5t34 -14.5q21 0 36.5 16t15.5 38q0 18 -18 73.5t-18 89.5q0 50 32 80t79 30q85 0 129 -78q8 22 8 68l-2 41q-68 13 -136.5 56t-92.5 102q-31 -2 -51.5 -20t-20.5 -45q0 -23 14.5 -35.5t38.5 -12.5q12 0 20 -8t8 -20
q0 -11 -8 -19.5t-20 -8.5q-44 0 -76.5 28t-32.5 76q0 57 45 89t108 32q77 0 148 -46.5t101 -120.5q14 -2 29 -2q57 0 93 21.5t36 49.5q0 15 -10.5 25.5t-26.5 10.5q-15 0 -25.5 -10.5t-10.5 -25.5q0 -11 -8 -19t-19 -8t-19 8t-8 19q0 38 25.5 65t64.5 27zM357 634
q29 -42 63.5 -63.5t89.5 -39.5q-23 38 -64 67.5t-89 35.5z" />
    <glyph glyph-name="slash.case" horiz-adv-x="407" 
d="M492 711l-403 -781q-10 -18 -29 -18q-14 0 -23 9t-9 23q0 8 5 18l403 781q10 18 29 18q13 0 22.5 -9.5t9.5 -22.5q0 -8 -5 -18z" />
    <glyph glyph-name="backslash.case" horiz-adv-x="407" 
d="M297 -60l-128 773q-2 12 -2 16q0 13 9.5 22.5t22.5 9.5q27 0 32 -28l128 -773q2 -12 2 -16q0 -14 -9.5 -23t-22.5 -9q-27 0 -32 28z" />
    <glyph glyph-name="bar.case" horiz-adv-x="218" 
d="M280 788l-159 -902q-2 -13 -13.5 -23t-25.5 -10q-13 0 -21 9.5t-6 23.5l159 902q2 14 13 23.5t26 9.5q13 0 21 -9.5t6 -23.5z" />
    <glyph glyph-name="zero.numerator" horiz-adv-x="298" 
d="M223 423q50 0 72.5 46t22.5 105q0 66 -56 66q-50 0 -72.5 -46t-22.5 -105q0 -66 56 -66zM216 376q-103 0 -103 104q0 83 38 145t118 62q103 0 103 -104q0 -83 -38 -145t-118 -62z" />
    <glyph glyph-name="one.numerator" horiz-adv-x="196" 
d="M207 611l-31 -19q-11 -7 -19 -7q-11 0 -18 7.5t-7 17.5q0 15 14 23l83 46q8 5 16 5q10 0 17 -7.5t5 -18.5l-45 -253q-1 -10 -10 -18t-20 -8q-10 0 -17 7.5t-5 18.5z" />
    <glyph glyph-name="two.numerator" horiz-adv-x="266" 
d="M147 637q29 50 106 50q42 0 68 -20t26 -55q0 -39 -30.5 -69.5t-66.5 -45t-66.5 -32.5t-30.5 -35h137q8 0 14 -6t6 -15q0 -11 -8.5 -19t-20.5 -8h-167q-8 0 -14 6t-6 15q0 35 20.5 61t50 41.5t59 28.5t50 30.5t20.5 39.5q0 36 -49 36q-35 0 -59 -29q-8 -10 -20 -10
q-10 0 -16.5 6.5t-6.5 16.5q0 6 4 13z" />
    <glyph glyph-name="three.numerator" horiz-adv-x="259" 
d="M325 638l-80 -70q35 0 55 -22t20 -53q0 -52 -32.5 -84.5t-98.5 -32.5q-39 0 -63 18.5t-32 42.5q-2 6 -2 11q0 10 6.5 16.5t16.5 6.5q15 0 21 -13q18 -34 57 -34q73 0 73 61q0 39 -52 39h-22q-20 0 -20 21q0 11 9 19l73 67h-92q-21 0 -21 21q0 12 8 20.5t21 8.5h144
q21 0 21 -21q0 -14 -10 -22z" />
    <glyph glyph-name="four.numerator" horiz-adv-x="260" 
d="M292 494h16q8 0 14 -6t6 -15q0 -10 -9 -18.5t-20 -8.5h-16l-7 -41q-4 -26 -31 -26q-10 0 -16.5 7.5t-4.5 18.5l7 41h-111q-9 0 -15 6t-6 15t9 19l166 186q12 12 24 12q11 0 18 -7.5t5 -18.5zM173 494h67l17 96z" />
    <glyph glyph-name="five.numerator" horiz-adv-x="262" 
d="M227 579q42 0 69 -21.5t27 -60.5q0 -58 -35.5 -89.5t-95.5 -31.5q-66 0 -97 59q-3 6 -3 12q0 10 7 17t17 7q14 0 21 -12q11 -19 24.5 -27t38.5 -8q33 0 51.5 18t18.5 46q0 20 -13 32.5t-38 12.5q-29 0 -57 -14q-12 -6 -21 -6q-20 0 -20 20q0 6 4 16l37 109q7 22 29 22
h133q21 0 21 -21q0 -12 -9 -20.5t-21 -8.5h-114l-21 -59q20 8 47 8z" />
    <glyph glyph-name="six.numerator" horiz-adv-x="275" 
d="M248 576q40 0 64.5 -20.5t24.5 -58.5q0 -59 -37 -90t-93 -31q-94 0 -94 108q0 99 43 151t112 52q47 0 70 -23q7 -7 7 -17t-6.5 -16.5t-16.5 -6.5q-6 0 -16 5q-21 11 -46 11q-32 0 -58 -23.5t-32 -71.5q31 31 78 31zM215 423q33 0 52 18t19 47q0 20 -14.5 31.5t-37.5 11.5
q-19 0 -38 -11t-30 -31q-2 -10 -2 -16q0 -50 51 -50z" />
    <glyph glyph-name="seven.numerator" horiz-adv-x="234" 
d="M121 402q2 36 17.5 68t37.5 54t44 40.5t38.5 35.5t18.5 31h-131q-9 0 -15 6t-6 15q0 12 9 20.5t21 8.5h161q21 0 21 -21q0 -32 -15 -57t-37.5 -43.5t-45.5 -37t-41.5 -48.5t-23.5 -68q-1 -11 -10 -19t-20 -8q-10 0 -17 6.5t-6 16.5z" />
    <glyph glyph-name="eight.numerator" horiz-adv-x="271" 
d="M201 376q-46 0 -72 20.5t-26 57.5q0 67 63 90q-28 14 -28 49q0 44 32 69t84 25q42 0 66.5 -18t24.5 -52q0 -27 -14.5 -46t-34.5 -27q37 -17 37 -59q0 -109 -132 -109zM248 640q-59 0 -59 -44q0 -31 46 -31q58 0 58 45q0 30 -45 30zM227 520q-34 0 -52 -16t-18 -42
q0 -39 53 -39q34 0 51.5 15t17.5 41q0 41 -52 41z" />
    <glyph glyph-name="nine.numerator" horiz-adv-x="275" 
d="M215 487q-40 0 -64.5 20.5t-24.5 58.5q0 59 37 90t93 31q94 0 94 -108q0 -99 -43 -151t-112 -52q-47 0 -70 23q-7 7 -7 17t6.5 16.5t16.5 6.5q6 0 16 -5q21 -11 46 -11q32 0 58 23.5t32 71.5q-31 -31 -78 -31zM248 640q-33 0 -52 -18t-19 -47q0 -20 14.5 -31.5
t37.5 -11.5q45 0 68 42q2 10 2 16q0 50 -51 50z" />
    <glyph glyph-name="zero.denominator" horiz-adv-x="298" 
d="M154 34q50 0 72.5 46t22.5 105q0 66 -56 66q-50 0 -72.5 -46t-22.5 -105q0 -66 56 -66zM147 -13q-103 0 -103 104q0 83 38 145t118 62q103 0 103 -104q0 -83 -38 -145t-118 -62z" />
    <glyph glyph-name="one.denominator" horiz-adv-x="196" 
d="M139 224l-31 -19q-10 -7 -19 -7q-11 0 -18 7t-7 18q0 15 14 23l83 46q8 5 16 5q10 0 17 -7.5t5 -18.5l-45 -253q-1 -10 -10 -18t-20 -8q-10 0 -17 7.5t-5 18.5z" />
    <glyph glyph-name="two.denominator" horiz-adv-x="266" 
d="M80 255q29 50 106 50q42 0 68 -20t26 -55q0 -39 -30.5 -69.5t-66.5 -45t-66.5 -32.5t-30.5 -35h137q8 0 14 -6t6 -15q0 -11 -8.5 -19t-20.5 -8h-167q-8 0 -14 6t-6 15q0 35 20.5 61t50 41.5t59 28.5t50 30.5t20.5 39.5q0 36 -49 36q-35 0 -59 -29q-8 -10 -20 -10
q-10 0 -16.5 6.5t-6.5 16.5q0 6 4 13z" />
    <glyph glyph-name="three.denominator" horiz-adv-x="259" 
d="M256 249l-80 -70q35 0 55 -22t20 -53q0 -52 -32.5 -84.5t-98.5 -32.5q-39 0 -63 18.5t-32 42.5q-2 6 -2 11q0 10 6.5 16.5t16.5 6.5q14 0 21 -13q18 -34 57 -34q73 0 73 61q0 39 -52 39h-22q-20 0 -20 21q0 11 9 19l73 67h-92q-21 0 -21 21q0 12 8 20.5t21 8.5h144
q21 0 21 -21q0 -15 -10 -22z" />
    <glyph glyph-name="four.denominator" horiz-adv-x="260" 
d="M223 107h16q8 0 14 -6t6 -15q0 -10 -9 -18.5t-20 -8.5h-16l-7 -41q-4 -26 -31 -26q-10 0 -16.5 7.5t-4.5 18.5l7 41h-111q-9 0 -15 6t-6 15q0 8 9 19l166 186q12 12 24 12q11 0 18 -7.5t5 -18.5zM104 107h67l17 96z" />
    <glyph glyph-name="five.denominator" horiz-adv-x="262" 
d="M158 189q42 0 69 -21.5t27 -60.5q0 -58 -35.5 -89.5t-95.5 -31.5q-66 0 -97 59q-3 6 -3 12q0 10 7 17t17 7q14 0 21 -12q11 -19 24.5 -27t38.5 -8q33 0 51.5 18t18.5 46q0 20 -13 32.5t-38 12.5q-29 0 -57 -14q-12 -6 -21 -6q-20 0 -20 20q0 6 4 16l37 109q7 22 29 22
h133q21 0 21 -21q0 -12 -9 -20.5t-21 -8.5h-114l-21 -59q20 8 47 8z" />
    <glyph glyph-name="six.denominator" horiz-adv-x="275" 
d="M179 186q40 0 64.5 -20.5t24.5 -58.5q0 -59 -37 -90t-93 -31q-94 0 -94 108q0 99 43 151t112 52q47 0 70 -23q7 -7 7 -17t-6.5 -16.5t-16.5 -6.5q-6 0 -16 5q-21 11 -46 11q-32 0 -58 -23.5t-32 -71.5q31 31 78 31zM146 33q33 0 52 18t19 47q0 20 -14.5 31.5t-37.5 11.5
q-45 0 -68 -42q-2 -10 -2 -16q0 -50 51 -50z" />
    <glyph glyph-name="seven.denominator" horiz-adv-x="234" 
d="M52 13q2 36 17.5 68t37.5 54t44 40.5t38.5 35.5t18.5 31h-131q-9 0 -15 6t-6 15q0 12 9 20.5t21 8.5h161q21 0 21 -21q0 -32 -15 -57t-37.5 -43.5t-45.5 -37t-41.5 -48.5t-23.5 -68q-1 -11 -10 -19t-20 -8t-17.5 6.5t-5.5 16.5z" />
    <glyph glyph-name="eight.denominator" horiz-adv-x="271" 
d="M132 -14q-46 0 -72 20.5t-26 57.5q0 67 63 90q-28 14 -28 49q0 44 32 69t84 25q42 0 66.5 -18t24.5 -52q0 -27 -14.5 -46t-34.5 -27q37 -17 37 -59q0 -109 -132 -109zM179 250q-59 0 -59 -44q0 -31 46 -31q58 0 58 45q0 30 -45 30zM158 130q-34 0 -52 -16t-18 -42
q0 -39 53 -39q34 0 51.5 15t17.5 41q0 41 -52 41z" />
    <glyph glyph-name="nine.denominator" horiz-adv-x="275" 
d="M146 97q-40 0 -64.5 20.5t-24.5 58.5q0 59 37 90t93 31q94 0 94 -108q0 -99 -43 -151t-112 -52q-47 0 -70 23q-7 7 -7 17t6.5 16.5t16.5 6.5q6 0 16 -5q21 -11 46 -11q32 0 58 23.5t32 71.5q-31 -31 -78 -31zM179 250q-33 0 -52 -18t-19 -47q0 -20 14.5 -31.5t37.5 -11.5
q19 0 38 11t30 31q2 10 2 16q0 50 -51 50z" />
    <glyph glyph-name="a.salt" horiz-adv-x="500" 
d="M453 399l4 31q1 13 12.5 22.5t25.5 9.5t21.5 -10t4.5 -25l-71 -403q-2 -13 -13 -22.5t-25 -9.5q-12 0 -19.5 7t-7.5 18q0 4 2 14l7 29q-60 -73 -156 -73q-169 0 -169 168q0 46 8 89.5t27.5 84.5t48 71.5t72.5 49t98 18.5q47 0 81 -18.5t49 -50.5zM248 45q87 0 134.5 74
t47.5 170q0 121 -117 121q-47 0 -83 -22t-56 -58.5t-29.5 -78t-9.5 -86.5q0 -120 113 -120z" />
    <glyph glyph-name="aacute.salt" horiz-adv-x="500" 
d="M453 399l4 31q1 13 12.5 22.5t25.5 9.5t21.5 -10t4.5 -25l-71 -403q-2 -13 -13 -22.5t-25 -9.5q-12 0 -19.5 7t-7.5 18q0 4 2 14l7 29q-60 -73 -156 -73q-169 0 -169 168q0 46 8 89.5t27.5 84.5t48 71.5t72.5 49t98 18.5q47 0 81 -18.5t49 -50.5zM248 45q87 0 134.5 74
t47.5 170q0 121 -117 121q-47 0 -83 -22t-56 -58.5t-29.5 -78t-9.5 -86.5q0 -120 113 -120zM291 520q-15 14 2 31l104 108q19 19 39 -3q19 -20 -2 -39l-112 -95q-17 -16 -31 -2z" />
    <glyph glyph-name="abreve.salt" horiz-adv-x="500" 
d="M453 399l4 31q1 13 12.5 22.5t25.5 9.5t21.5 -10t4.5 -25l-71 -403q-2 -13 -13 -22.5t-25 -9.5q-12 0 -19.5 7t-7.5 18q0 4 2 14l7 29q-60 -73 -156 -73q-169 0 -169 168q0 46 8 89.5t27.5 84.5t48 71.5t72.5 49t98 18.5q47 0 81 -18.5t49 -50.5zM248 45q87 0 134.5 74
t47.5 170q0 121 -117 121q-47 0 -83 -22t-56 -58.5t-29.5 -78t-9.5 -86.5q0 -120 113 -120zM344 529q-43 0 -70 20.5t-27 62.5t29 42q9 0 15.5 -6.5t6.5 -17.5q0 -3 -1 -9t-1 -9q0 -21 13.5 -29t42.5 -8q65 0 75 55q4 24 27 24q8 0 14.5 -6t6.5 -15q0 -50 -37 -77t-94 -27z
" />
    <glyph glyph-name="acircumflex.salt" horiz-adv-x="500" 
d="M453 399l4 31q1 13 12.5 22.5t25.5 9.5t21.5 -10t4.5 -25l-71 -403q-2 -13 -13 -22.5t-25 -9.5q-12 0 -19.5 7t-7.5 18q0 4 2 14l7 29q-60 -73 -156 -73q-169 0 -169 168q0 46 8 89.5t27.5 84.5t48 71.5t72.5 49t98 18.5q47 0 81 -18.5t49 -50.5zM248 45q87 0 134.5 74
t47.5 170q0 121 -117 121q-47 0 -83 -22t-56 -58.5t-29.5 -78t-9.5 -86.5q0 -120 113 -120zM426 529l-67 67l-95 -68q-8 -6 -16 -6q-10 0 -17 7t-7 17q0 12 11 20l112 78q8 6 17 6t16 -7l81 -81q6 -6 6 -16t-7 -17t-17 -7t-17 7z" />
    <glyph glyph-name="adieresis.salt" horiz-adv-x="500" 
d="M453 399l4 31q1 13 12.5 22.5t25.5 9.5t21.5 -10t4.5 -25l-71 -403q-2 -13 -13 -22.5t-25 -9.5q-12 0 -19.5 7t-7.5 18q0 4 2 14l7 29q-60 -73 -156 -73q-169 0 -169 168q0 46 8 89.5t27.5 84.5t48 71.5t72.5 49t98 18.5q47 0 81 -18.5t49 -50.5zM248 45q87 0 134.5 74
t47.5 170q0 121 -117 121q-47 0 -83 -22t-56 -58.5t-29.5 -78t-9.5 -86.5q0 -120 113 -120zM261 534q-30 0 -30 28q0 47 43 47q31 0 31 -29q0 -46 -44 -46zM418 534q-30 0 -30 28q0 47 43 47q31 0 31 -29q0 -46 -44 -46z" />
    <glyph glyph-name="agrave.salt" horiz-adv-x="500" 
d="M453 399l4 31q1 13 12.5 22.5t25.5 9.5t21.5 -10t4.5 -25l-71 -403q-2 -13 -13 -22.5t-25 -9.5q-12 0 -19.5 7t-7.5 18q0 4 2 14l7 29q-60 -73 -156 -73q-169 0 -169 168q0 46 8 89.5t27.5 84.5t48 71.5t72.5 49t98 18.5q47 0 81 -18.5t49 -50.5zM248 45q87 0 134.5 74
t47.5 170q0 121 -117 121q-47 0 -83 -22t-56 -58.5t-29.5 -78t-9.5 -86.5q0 -120 113 -120zM395 520q-14 -14 -31 2l-112 95q-21 19 -2 39q20 22 39 3l104 -108q17 -17 2 -31z" />
    <glyph glyph-name="amacron.salt" horiz-adv-x="500" 
d="M453 399l4 31q1 13 12.5 22.5t25.5 9.5t21.5 -10t4.5 -25l-71 -403q-2 -13 -13 -22.5t-25 -9.5q-12 0 -19.5 7t-7.5 18q0 4 2 14l7 29q-60 -73 -156 -73q-169 0 -169 168q0 46 8 89.5t27.5 84.5t48 71.5t72.5 49t98 18.5q47 0 81 -18.5t49 -50.5zM248 45q87 0 134.5 74
t47.5 170q0 121 -117 121q-47 0 -83 -22t-56 -58.5t-29.5 -78t-9.5 -86.5q0 -120 113 -120zM462 566q0 -12 -9 -20.5t-21 -8.5h-186q-9 0 -15 6t-6 15q0 12 9 20.5t21 8.5h186q9 0 15 -6t6 -15z" />
    <glyph glyph-name="aogonek.salt" horiz-adv-x="500" 
d="M458 -125q9 0 15.5 -6.5t6.5 -15.5q0 -13 -13 -20q-28 -16 -76 -16q-42 0 -66 18.5t-24 52.5q0 70 89 112q-5 7 -5 17q0 4 2 14l7 29q-60 -73 -156 -73q-169 0 -169 168q0 46 8 89.5t27.5 84.5t48 71.5t72.5 49t98 18.5q47 0 81 -18.5t49 -50.5l4 31q1 13 12.5 22.5
t25.5 9.5t21.5 -10t4.5 -25l-71 -403q-3 -17 -21 -27q-34 -19 -54.5 -40t-20.5 -51q0 -43 47 -43q21 0 44 9q7 3 13 3zM248 45q87 0 134.5 74t47.5 170q0 121 -117 121q-47 0 -83 -22t-56 -58.5t-29.5 -78t-9.5 -86.5q0 -120 113 -120z" />
    <glyph glyph-name="aring.salt" horiz-adv-x="500" 
d="M453 399l4 31q1 13 12.5 22.5t25.5 9.5t21.5 -10t4.5 -25l-71 -403q-2 -13 -13 -22.5t-25 -9.5q-12 0 -19.5 7t-7.5 18q0 4 2 14l7 29q-60 -73 -156 -73q-169 0 -169 168q0 46 8 89.5t27.5 84.5t48 71.5t72.5 49t98 18.5q47 0 81 -18.5t49 -50.5zM248 45q87 0 134.5 74
t47.5 170q0 121 -117 121q-47 0 -83 -22t-56 -58.5t-29.5 -78t-9.5 -86.5q0 -120 113 -120zM337 502q-43 0 -66 20.5t-23 57.5q0 54 31.5 86t92.5 32q43 0 66 -20.5t23 -57.5q0 -54 -31.5 -86t-92.5 -32zM365 660q-74 0 -74 -75q0 -45 53 -45q74 0 74 75q0 45 -53 45z" />
    <glyph glyph-name="aringacute.salt" horiz-adv-x="500" 
d="M453 399l4 31q1 13 12.5 22.5t25.5 9.5t21.5 -10t4.5 -25l-71 -403q-2 -13 -13 -22.5t-25 -9.5q-12 0 -19.5 7t-7.5 18q0 4 2 14l7 29q-60 -73 -156 -73q-169 0 -169 168q0 46 8 89.5t27.5 84.5t48 71.5t72.5 49t98 18.5q47 0 81 -18.5t49 -50.5zM248 45q87 0 134.5 74
t47.5 170q0 121 -117 121q-47 0 -83 -22t-56 -58.5t-29.5 -78t-9.5 -86.5q0 -120 113 -120zM319 724q-15 14 2 31l104 108q19 19 39 -3q19 -20 -2 -39l-112 -95q-17 -16 -31 -2zM338 502q-43 0 -66 20.5t-23 57.5q0 54 31.5 86t92.5 32q43 0 66 -20.5t23 -57.5
q0 -54 -31.5 -86t-92.5 -32zM366 660q-74 0 -74 -75q0 -45 53 -45q74 0 74 75q0 45 -53 45z" />
    <glyph glyph-name="atilde.salt" horiz-adv-x="500" 
d="M453 399l4 31q1 13 12.5 22.5t25.5 9.5t21.5 -10t4.5 -25l-71 -403q-2 -13 -13 -22.5t-25 -9.5q-12 0 -19.5 7t-7.5 18q0 4 2 14l7 29q-60 -73 -156 -73q-169 0 -169 168q0 46 8 89.5t27.5 84.5t48 71.5t72.5 49t98 18.5q47 0 81 -18.5t49 -50.5zM248 45q87 0 134.5 74
t47.5 170q0 121 -117 121q-47 0 -83 -22t-56 -58.5t-29.5 -78t-9.5 -86.5q0 -120 113 -120zM301 617q25 0 58 -19.5t52 -19.5q27 0 51 30q7 9 19 9q10 0 17 -7t7 -17q0 -7 -5 -15q-34 -49 -97 -49q-26 0 -58 19.5t-52 19.5q-21 0 -51 -30q-9 -9 -19 -9t-17 7t-7 17q0 9 6 16
q38 48 96 48z" />
    <glyph glyph-name="c_t" horiz-adv-x="711" 
d="M69 169q0 135 67 217t188 82q47 0 82 -20q-40 44 -40 103q0 61 48 98.5t116 37.5q76 0 112.5 -37t36.5 -102q0 -22 -5 -50l-8 -44h65q11 0 18 -7t7 -18q0 -15 -10.5 -25t-25.5 -10h-64l-49 -276q-2 -10 -2 -18q0 -48 48 -48q11 0 18.5 -7.5t7.5 -18.5q0 -14 -11 -24
t-26 -10q-50 0 -76 26t-26 70q0 15 3 30l49 276h-40q-11 0 -18 7t-7 18q0 15 10.5 25t25.5 10h39l7 42q4 28 4 47q0 90 -95 90q-53 0 -83.5 -28t-30.5 -73q0 -13 3 -26t5.5 -21.5t11 -23.5t11.5 -20t14.5 -22t13.5 -21q6 -10 6 -18q0 -12 -8 -20.5t-20 -8.5q-13 0 -24 12
q-12 14 -20.5 21.5t-31.5 16.5t-52 9q-88 0 -133.5 -65.5t-45.5 -167.5q0 -69 28.5 -100.5t85.5 -31.5q60 0 121 42q11 7 20 7q11 0 19.5 -8t8.5 -20q0 -17 -18 -30q-69 -49 -161 -49q-169 0 -169 182z" />
    <glyph glyph-name="at.case" horiz-adv-x="802" 
d="M628 157q-96 0 -96 79q-46 -79 -132 -79q-60 0 -92 35t-32 94q0 104 57 170.5t145 66.5q56 0 95 -34l1 5q5 24 28 24q11 0 16.5 -7t3.5 -17l-42 -222q-2 -9 -2 -23q0 -50 57 -50q74 0 110 59.5t36 161.5q0 118 -70 176.5t-197 58.5q-179 0 -276.5 -96.5t-97.5 -298.5
q0 -242 262 -242q148 0 241 55q6 4 14 4t13.5 -5.5t5.5 -13.5q0 -15 -14 -23q-98 -61 -268 -61q-147 0 -225.5 71t-78.5 212q0 215 114 328.5t318 113.5q142 0 225.5 -70.5t83.5 -205.5q0 -23 -2 -47t-13.5 -66.5t-31.5 -73.5t-60.5 -55t-95.5 -24zM325 293q0 -41 20 -66.5
t63 -25.5q58 0 94.5 46t47.5 112l14 86q-35 35 -89 35q-64 0 -107 -52.5t-43 -134.5z" />
    <glyph glyph-name="g.salt" horiz-adv-x="483" 
d="M399 126l25 144q3 18 3 34q0 52 -31 79t-82 27q-87 0 -134 -60.5t-47 -171.5q0 -133 117 -133q42 0 79 20.5t53 40.5zM212 -141q64 0 107.5 33t55.5 99l10 57q-57 -61 -146 -61q-83 0 -127 45.5t-44 135.5q0 145 66.5 222.5t189.5 77.5q77 0 123 -39.5t46 -112.5
q0 -22 -4 -46l-49 -279q-17 -97 -79 -144.5t-151 -47.5q-57 0 -99.5 18.5t-61.5 50.5q-6 10 -6 19q0 14 8.5 22t22.5 8q15 0 24 -12q38 -46 114 -46z" />
    <glyph glyph-name="gcircumflex.salt" horiz-adv-x="483" 
d="M399 126l25 144q3 18 3 34q0 52 -31 79t-82 27q-87 0 -134 -60.5t-47 -171.5q0 -133 117 -133q42 0 79 20.5t53 40.5zM212 -141q64 0 107.5 33t55.5 99l10 57q-57 -61 -146 -61q-83 0 -127 45.5t-44 135.5q0 145 66.5 222.5t189.5 77.5q77 0 123 -39.5t46 -112.5
q0 -22 -4 -46l-49 -279q-17 -97 -79 -144.5t-151 -47.5q-57 0 -99.5 18.5t-61.5 50.5q-6 10 -6 19q0 14 8.5 22t22.5 8q15 0 24 -12q38 -46 114 -46zM420 529l-67 67l-95 -68q-8 -6 -16 -6q-10 0 -17 7t-7 17q0 12 11 20l112 78q8 6 17 6t16 -7l81 -81q6 -6 6 -16t-7 -17
t-17 -7t-17 7z" />
    <glyph glyph-name="gbreve.salt" horiz-adv-x="483" 
d="M399 126l25 144q3 18 3 34q0 52 -31 79t-82 27q-87 0 -134 -60.5t-47 -171.5q0 -133 117 -133q42 0 79 20.5t53 40.5zM212 -141q64 0 107.5 33t55.5 99l10 57q-57 -61 -146 -61q-83 0 -127 45.5t-44 135.5q0 145 66.5 222.5t189.5 77.5q77 0 123 -39.5t46 -112.5
q0 -22 -4 -46l-49 -279q-17 -97 -79 -144.5t-151 -47.5q-57 0 -99.5 18.5t-61.5 50.5q-6 10 -6 19q0 14 8.5 22t22.5 8q15 0 24 -12q38 -46 114 -46zM335 529q-43 0 -70 20.5t-27 62.5t29 42q9 0 15.5 -6.5t6.5 -17.5q0 -3 -1 -9t-1 -9q0 -21 13.5 -29t42.5 -8q65 0 75 55
q4 24 27 24q8 0 14.5 -6t6.5 -15q0 -50 -37 -77t-94 -27z" />
    <glyph glyph-name="gdotaccent.salt" horiz-adv-x="483" 
d="M399 126l25 144q3 18 3 34q0 52 -31 79t-82 27q-87 0 -134 -60.5t-47 -171.5q0 -133 117 -133q42 0 79 20.5t53 40.5zM212 -141q64 0 107.5 33t55.5 99l10 57q-57 -61 -146 -61q-83 0 -127 45.5t-44 135.5q0 145 66.5 222.5t189.5 77.5q77 0 123 -39.5t46 -112.5
q0 -22 -4 -46l-49 -279q-17 -97 -79 -144.5t-151 -47.5q-57 0 -99.5 18.5t-61.5 50.5q-6 10 -6 19q0 14 8.5 22t22.5 8q15 0 24 -12q38 -46 114 -46zM338 544q-32 0 -32 30q0 49 46 49q32 0 32 -30q0 -49 -46 -49z" />
    <glyph glyph-name="gcommaaccent.salt" horiz-adv-x="483" 
d="M288 548q0 98 95 181q6 6 14 6q13 0 13 -13q0 -4 -5 -11q-42 -45 -42 -78q0 -14 11 -36t11 -38q0 -27 -15.5 -42t-41.5 -15q-40 0 -40 46zM399 126l25 144q3 18 3 34q0 52 -31 79t-82 27q-87 0 -134 -60.5t-47 -171.5q0 -133 117 -133q42 0 79 20.5t53 40.5zM212 -141
q64 0 107.5 33t55.5 99l10 57q-57 -61 -146 -61q-83 0 -127 45.5t-44 135.5q0 145 66.5 222.5t189.5 77.5q77 0 123 -39.5t46 -112.5q0 -22 -4 -46l-49 -279q-17 -97 -79 -144.5t-151 -47.5q-57 0 -99.5 18.5t-61.5 50.5q-6 10 -6 19q0 14 8.5 22t22.5 8q15 0 24 -12
q38 -46 114 -46z" />
    <glyph glyph-name="e.salt" horiz-adv-x="466" 
d="M69 158q0 140 68 225t188 85q46 0 79 -15.5t49.5 -41t23.5 -51t7 -52.5q0 -99 -55 -99h-292q-4 -23 -4 -43q0 -64 30.5 -92t92.5 -28q68 0 127 42q10 7 19 7q12 0 20.5 -8.5t8.5 -20.5q0 -14 -13 -24q-72 -55 -174 -55q-175 0 -175 171zM416 265q4 28 4 42
q0 46 -25.5 74.5t-79.5 28.5q-134 0 -168 -145h269z" />
    <glyph glyph-name="eacute.salt" horiz-adv-x="466" 
d="M69 158q0 140 68 225t188 85q46 0 79 -15.5t49.5 -41t23.5 -51t7 -52.5q0 -99 -55 -99h-292q-4 -23 -4 -43q0 -64 30.5 -92t92.5 -28q68 0 127 42q10 7 19 7q12 0 20.5 -8.5t8.5 -20.5q0 -14 -13 -24q-72 -55 -174 -55q-175 0 -175 171zM416 265q4 28 4 42
q0 46 -25.5 74.5t-79.5 28.5q-134 0 -168 -145h269zM291 520q-15 14 2 31l104 108q19 19 39 -3q19 -20 -2 -39l-112 -95q-17 -16 -31 -2z" />
    <glyph glyph-name="egrave.salt" horiz-adv-x="466" 
d="M69 158q0 140 68 225t188 85q46 0 79 -15.5t49.5 -41t23.5 -51t7 -52.5q0 -99 -55 -99h-292q-4 -23 -4 -43q0 -64 30.5 -92t92.5 -28q68 0 127 42q10 7 19 7q12 0 20.5 -8.5t8.5 -20.5q0 -14 -13 -24q-72 -55 -174 -55q-175 0 -175 171zM416 265q4 28 4 42
q0 46 -25.5 74.5t-79.5 28.5q-134 0 -168 -145h269zM423 520q-14 -14 -31 2l-112 95q-21 19 -2 39q20 22 39 3l104 -108q17 -17 2 -31z" />
    <glyph glyph-name="ecircumflex.salt" horiz-adv-x="466" 
d="M69 158q0 140 68 225t188 85q46 0 79 -15.5t49.5 -41t23.5 -51t7 -52.5q0 -99 -55 -99h-292q-4 -23 -4 -43q0 -64 30.5 -92t92.5 -28q68 0 127 42q10 7 19 7q12 0 20.5 -8.5t8.5 -20.5q0 -14 -13 -24q-72 -55 -174 -55q-175 0 -175 171zM416 265q4 28 4 42
q0 46 -25.5 74.5t-79.5 28.5q-134 0 -168 -145h269zM423 529l-67 67l-95 -68q-8 -6 -16 -6q-10 0 -17 7t-7 17q0 12 11 20l112 78q8 6 17 6t16 -7l81 -81q6 -6 6 -16t-7 -17t-17 -7t-17 7z" />
    <glyph glyph-name="edieresis.salt" horiz-adv-x="466" 
d="M69 158q0 140 68 225t188 85q46 0 79 -15.5t49.5 -41t23.5 -51t7 -52.5q0 -99 -55 -99h-292q-4 -23 -4 -43q0 -64 30.5 -92t92.5 -28q68 0 127 42q10 7 19 7q12 0 20.5 -8.5t8.5 -20.5q0 -14 -13 -24q-72 -55 -174 -55q-175 0 -175 171zM416 265q4 28 4 42
q0 46 -25.5 74.5t-79.5 28.5q-134 0 -168 -145h269zM268 534q-30 0 -30 28q0 47 43 47q31 0 31 -29q0 -46 -44 -46zM425 534q-30 0 -30 28q0 47 43 47q31 0 31 -29q0 -46 -44 -46z" />
    <glyph glyph-name="emacron.salt" horiz-adv-x="466" 
d="M69 158q0 140 68 225t188 85q46 0 79 -15.5t49.5 -41t23.5 -51t7 -52.5q0 -99 -55 -99h-292q-4 -23 -4 -43q0 -64 30.5 -92t92.5 -28q68 0 127 42q10 7 19 7q12 0 20.5 -8.5t8.5 -20.5q0 -14 -13 -24q-72 -55 -174 -55q-175 0 -175 171zM416 265q4 28 4 42
q0 46 -25.5 74.5t-79.5 28.5q-134 0 -168 -145h269zM460 566q0 -12 -9 -20.5t-21 -8.5h-186q-9 0 -15 6t-6 15q0 12 9 20.5t21 8.5h186q9 0 15 -6t6 -15z" />
    <glyph glyph-name="ebreve.salt" horiz-adv-x="466" 
d="M69 158q0 140 68 225t188 85q46 0 79 -15.5t49.5 -41t23.5 -51t7 -52.5q0 -99 -55 -99h-292q-4 -23 -4 -43q0 -64 30.5 -92t92.5 -28q68 0 127 42q10 7 19 7q12 0 20.5 -8.5t8.5 -20.5q0 -14 -13 -24q-72 -55 -174 -55q-175 0 -175 171zM416 265q4 28 4 42
q0 46 -25.5 74.5t-79.5 28.5q-134 0 -168 -145h269zM335 529q-43 0 -70 20.5t-27 62.5t29 42q9 0 15.5 -6.5t6.5 -17.5q0 -3 -1 -9t-1 -9q0 -21 13.5 -29t42.5 -8q65 0 75 55q4 24 27 24q8 0 14.5 -6t6.5 -15q0 -50 -37 -77t-94 -27z" />
    <glyph glyph-name="edotaccent.salt" horiz-adv-x="466" 
d="M69 158q0 140 68 225t188 85q46 0 79 -15.5t49.5 -41t23.5 -51t7 -52.5q0 -99 -55 -99h-292q-4 -23 -4 -43q0 -64 30.5 -92t92.5 -28q68 0 127 42q10 7 19 7q12 0 20.5 -8.5t8.5 -20.5q0 -14 -13 -24q-72 -55 -174 -55q-175 0 -175 171zM416 265q4 28 4 42
q0 46 -25.5 74.5t-79.5 28.5q-134 0 -168 -145h269zM340 544q-32 0 -32 30q0 49 46 49q32 0 32 -30q0 -49 -46 -49z" />
    <glyph glyph-name="eogonek.salt" horiz-adv-x="466" 
d="M354 -125q9 0 15.5 -6.5t6.5 -15.5q0 -13 -13 -20q-28 -16 -76 -16q-42 0 -66 18.5t-24 52.5q0 59 64 100q-6 -1 -17 -1q-175 0 -175 171q0 140 68 225t188 85q46 0 79 -15.5t49.5 -41t23.5 -51t7 -52.5q0 -99 -55 -99h-292q-4 -23 -4 -43q0 -64 30.5 -92t92.5 -28
q68 0 127 42q10 7 19 7q12 0 20.5 -8.5t8.5 -20.5q0 -14 -13 -24q-15 -12 -62 -32t-76.5 -44t-29.5 -60q0 -43 47 -43q21 0 44 9q7 3 13 3zM416 265q4 28 4 42q0 46 -25.5 74.5t-79.5 28.5q-134 0 -168 -145h269z" />
    <glyph glyph-name="ecaron.salt" horiz-adv-x="466" 
d="M69 158q0 140 68 225t188 85q46 0 79 -15.5t49.5 -41t23.5 -51t7 -52.5q0 -99 -55 -99h-292q-4 -23 -4 -43q0 -64 30.5 -92t92.5 -28q68 0 127 42q10 7 19 7q12 0 20.5 -8.5t8.5 -20.5q0 -14 -13 -24q-72 -55 -174 -55q-175 0 -175 171zM416 265q4 28 4 42
q0 46 -25.5 74.5t-79.5 28.5q-134 0 -168 -145h269zM334 553l96 68q9 6 16 6q10 0 17 -7t7 -17q0 -13 -12 -21l-111 -77q-8 -6 -17 -6t-15 6l-82 82q-6 6 -6 16t7 17t17 7q11 0 17 -7z" />
    </font>
</defs>
</svg>
